{"glyphs":{"0":{"ha":885,"x_min":0,"x_max":0,"o":"m 857 629 b 725 846 857 722 781 731 b 490 1069 665 969 664 1069 b 236 901 356 1069 340 982 b 28 633 150 835 28 786 b 131 388 28 460 131 468 b 85 189 131 307 85 276 b 428 -28 85 1 300 -28 b 803 197 576 -28 803 8 b 779 404 803 275 779 331 b 857 629 779 506 857 511 z m 356 775 b 531 914 422 814 425 914 b 689 692 610 914 689 824 b 611 479 689 601 611 589 b 629 351 611 431 629 388 b 547 265 629 301 606 265 b 485 335 515 265 485 289 b 564 578 485 419 564 482 b 451 704 564 653 519 704 b 326 672 404 704 369 672 b 272 721 292 672 272 696 b 356 775 272 764 331 760 z m 431 47 b 271 190 329 47 271 115 b 310 388 271 314 310 304 b 168 571 310 494 168 461 b 243 646 168 618 210 646 b 378 492 340 646 378 582 b 360 307 378 431 360 367 b 544 168 360 189 472 168 b 588 124 571 168 588 140 b 431 47 588 54 485 47 z "},"1":{"ha":508,"x_min":0,"x_max":0,"o":"m 297 0 l 481 0 l 481 1042 l 299 1042 b 304 981 303 1019 304 1000 b 215 822 304 871 271 824 b 118 835 183 821 165 835 b 28 738 78 835 28 803 b 138 629 28 658 79 629 b 278 728 222 629 229 728 b 297 693 289 728 297 719 z "},"2":{"ha":792,"x_min":0,"x_max":0,"o":"m 93 721 b 93 622 99 682 93 667 b 193 538 93 569 124 538 b 307 651 274 538 307 592 b 288 783 307 717 288 728 b 443 918 288 883 388 918 b 610 776 565 918 610 831 b 542 685 610 751 608 671 b 411 538 422 710 411 635 b 329 417 411 490 389 417 b 169 456 240 417 229 456 b 28 174 36 456 28 289 l 28 0 l 764 0 l 764 174 l 301 174 b 222 264 254 174 222 222 b 331 371 222 332 268 371 b 506 332 418 371 435 332 b 597 428 568 332 597 389 b 578 546 597 476 578 485 b 624 601 578 581 597 601 b 699 582 663 601 668 582 b 763 654 740 582 763 618 b 681 896 763 740 681 718 b 460 1072 681 1033 569 1072 b 169 939 307 1072 275 956 b 65 843 86 926 65 892 b 93 721 65 775 83 789 z "},"3":{"ha":831,"x_min":0,"x_max":0,"o":"m 760 1042 l 86 1042 l 86 868 l 463 868 b 576 756 525 868 576 826 b 450 644 576 699 529 644 b 332 549 379 644 332 614 b 425 451 332 489 368 451 b 539 474 483 451 485 474 b 613 397 579 474 613 450 b 542 329 613 371 604 325 b 432 179 457 335 432 261 b 317 54 432 86 375 54 b 203 186 268 54 203 90 b 299 388 203 308 299 311 b 183 499 299 446 264 499 b 14 249 51 499 14 363 b 317 -32 14 36 203 -32 b 553 104 407 -32 524 -8 b 693 218 583 224 617 206 b 803 346 768 229 803 290 b 688 485 803 415 761 485 b 568 578 596 485 568 539 b 760 868 568 706 760 639 z "},"4":{"ha":835,"x_min":0,"x_max":0,"o":"m 468 857 l 468 500 l 211 500 l 211 1042 l 28 1042 l 28 329 l 468 329 l 468 0 l 653 0 l 653 329 l 807 329 l 807 500 l 653 500 l 653 857 z "},"5":{"ha":840,"x_min":0,"x_max":0,"o":"m 232 400 b 535 564 388 400 406 564 b 633 464 603 564 633 501 b 490 283 633 369 490 379 b 556 149 490 203 556 233 b 443 40 556 83 504 40 b 242 256 321 40 293 160 b 147 306 222 290 179 306 b 43 200 90 306 43 260 b 422 -28 43 49 281 -28 b 653 103 560 -28 653 26 b 811 399 653 301 807 236 b 688 611 814 513 715 488 b 546 715 664 713 588 715 b 293 583 421 715 388 583 b 182 715 226 583 182 633 b 349 867 182 824 264 867 l 697 867 l 697 1043 l 42 1043 b 46 968 44 1018 46 993 b 232 400 46 785 -57 400 z "},"6":{"ha":888,"x_min":0,"x_max":0,"o":"m 493 -29 b 717 165 699 -29 715 50 b 844 449 718 313 844 319 b 650 644 844 568 761 644 b 403 618 556 644 549 618 b 296 744 321 618 296 688 b 460 907 296 840 365 907 b 731 785 600 907 640 785 b 860 911 835 785 860 851 b 718 1031 860 960 804 1031 b 431 1099 550 1031 567 1099 b 228 931 347 1099 242 1044 b 142 639 215 828 243 686 b 28 469 61 601 32 549 b 197 169 28 289 179 315 b 493 -29 215 29 353 -29 z m 403 575 b 672 339 550 575 672 472 b 511 106 672 247 649 106 b 385 215 443 106 394 147 b 200 454 364 369 200 307 b 403 575 200 539 288 575 z "},"7":{"ha":735,"x_min":0,"x_max":0,"o":"m 208 521 b 39 247 61 521 39 397 b 178 -14 39 147 58 -8 b 285 111 264 -17 285 40 b 243 313 285 176 243 256 b 293 382 243 344 263 382 b 428 326 368 382 371 326 b 504 403 488 326 503 361 b 489 538 506 447 489 474 b 540 613 489 569 499 613 b 621 561 593 613 569 561 b 707 790 681 561 707 642 l 707 1042 l 28 1042 l 28 868 l 382 868 b 451 813 390 831 417 813 b 542 828 481 813 507 828 b 599 774 569 828 599 804 b 542 710 599 733 578 710 b 406 761 501 710 469 761 b 318 682 346 761 318 721 b 436 525 318 601 436 594 b 372 457 436 499 432 457 b 208 521 303 457 290 521 z "},"8":{"ha":856,"x_min":0,"x_max":0,"o":"m 828 358 b 693 490 828 454 758 468 b 601 572 632 511 601 525 b 801 864 601 671 801 643 b 521 1103 801 1033 683 1103 b 290 871 397 1103 290 1032 b 194 806 290 813 244 821 b 92 704 142 790 92 765 b 153 633 92 661 122 650 b 235 564 201 607 235 593 b 163 492 235 538 219 518 b 28 358 99 463 28 436 b 178 131 28 268 108 297 b 440 -19 217 35 310 -19 b 693 125 517 -19 693 0 b 828 358 693 296 828 246 z m 568 375 b 490 274 568 310 490 339 b 539 171 490 221 539 231 b 401 83 539 111 489 83 b 194 267 276 83 194 160 b 290 404 194 340 231 382 b 418 532 390 442 418 471 b 329 600 418 576 367 590 b 244 671 292 610 244 621 b 296 722 244 706 274 714 b 342 792 317 731 342 739 b 483 922 342 888 414 922 b 610 801 528 922 610 888 b 528 678 610 747 593 714 b 424 574 501 663 424 643 b 568 375 424 417 568 461 z "},"9":{"ha":878,"x_min":0,"x_max":0,"o":"m 414 1099 b 163 881 264 1099 163 999 b 57 621 163 733 57 750 b 228 425 57 501 117 425 b 456 451 346 425 310 451 b 592 310 538 451 592 367 b 431 128 592 214 551 128 b 164 313 265 128 304 313 b 28 169 71 313 28 244 b 181 50 28 81 110 50 b 482 -29 349 50 346 -29 b 668 139 565 -29 668 8 b 736 431 668 243 635 383 b 850 600 817 468 846 521 b 718 907 850 781 718 701 b 414 1099 718 1050 554 1099 z m 475 494 b 206 731 328 494 206 597 b 389 958 206 822 251 958 b 531 839 457 958 533 922 b 688 617 525 683 688 764 b 475 494 688 532 590 494 z "}," ":{"ha":694,"x_min":0,"x_max":0,"o":""}," ":{"ha":833,"x_min":0,"x_max":0,"o":""},"­":{"ha":479,"x_min":0,"x_max":0,"o":"m 28 435 l 451 435 l 451 608 l 28 608 z "},"A":{"ha":938,"x_min":0,"x_max":0,"o":"m 754 661 b 497 1058 526 650 760 1058 b 335 907 411 1058 353 988 b 249 840 321 839 285 840 b 153 750 196 840 153 800 b 179 619 150 696 196 692 b 68 458 160 532 68 569 b 253 263 68 349 253 382 b 28 99 253 139 28 232 b 179 -10 28 7 128 -10 b 353 161 235 -10 353 7 b 444 315 353 279 444 238 b 308 435 444 397 329 371 l 497 435 b 561 356 500 386 526 356 b 671 417 610 356 624 417 b 738 340 707 417 738 382 b 656 69 738 207 646 188 b 768 -15 660 22 706 -15 b 910 129 853 -15 910 51 b 811 339 910 226 811 274 b 892 553 811 397 892 460 b 754 661 892 617 851 665 z m 471 922 b 532 608 606 922 579 681 l 375 608 b 471 922 331 688 346 922 z "},"B":{"ha":729,"x_min":0,"x_max":0,"o":"m 394 550 b 496 631 383 621 442 635 b 647 817 619 621 647 722 b 454 1046 647 942 565 1046 b 272 996 386 1046 336 996 b 201 1042 236 996 215 1014 l 28 1042 l 28 0 l 210 0 b 382 68 318 0 394 1 b 429 161 369 133 399 160 b 554 118 476 161 507 118 b 701 301 638 117 701 200 b 394 550 701 568 413 435 z m 438 888 b 340 732 453 753 353 810 b 376 625 331 665 388 667 b 303 597 369 601 340 597 l 210 597 l 210 732 b 349 950 210 893 282 950 b 438 888 393 950 433 924 z m 506 343 b 399 297 503 268 446 297 b 324 219 354 297 324 260 b 285 99 324 175 344 100 b 210 243 239 97 210 104 l 210 425 l 382 425 b 506 343 436 425 508 410 z "},"C":{"ha":918,"x_min":0,"x_max":0,"o":"m 317 929 b 28 696 317 728 28 861 b 124 557 28 597 124 625 b 96 319 124 436 96 418 b 363 144 96 150 267 211 b 610 -11 440 90 464 -11 b 890 243 760 -11 890 92 b 781 340 890 304 838 340 b 472 147 626 340 615 147 b 321 310 354 147 321 239 b 365 482 321 390 365 414 b 242 681 365 600 242 578 b 306 740 242 738 293 740 b 406 694 364 740 342 694 b 497 788 472 694 492 740 b 483 894 501 819 488 864 b 538 974 479 929 482 974 b 611 892 590 974 597 936 b 717 815 628 835 681 815 b 824 913 761 815 824 835 b 565 1097 824 1010 726 1097 b 317 929 461 1097 317 1061 z "},"D":{"ha":922,"x_min":0,"x_max":0,"o":"m 28 1042 l 28 0 l 369 0 b 465 114 458 0 397 114 b 564 68 496 114 488 68 b 646 135 603 68 643 96 b 656 238 646 163 638 207 b 894 478 704 319 894 343 b 710 658 894 590 838 646 b 615 728 636 665 615 696 b 672 910 615 788 672 829 b 504 1057 672 992 603 1057 b 274 990 422 1057 358 990 b 211 1042 235 990 211 1010 z m 458 401 b 297 153 335 401 444 153 b 211 317 211 153 211 263 l 211 761 b 332 885 211 838 267 885 b 467 689 451 885 467 789 b 575 579 467 632 478 585 b 728 446 699 574 728 493 b 628 314 728 360 674 314 b 458 401 521 314 567 401 z "},"E":{"ha":706,"x_min":0,"x_max":0,"o":"m 28 0 l 678 0 l 678 174 l 211 174 l 211 435 l 678 435 l 678 608 l 211 608 l 211 868 l 678 868 l 678 1042 l 28 1042 z "},"F":{"ha":706,"x_min":0,"x_max":0,"o":"m 28 0 l 211 0 l 211 435 l 678 435 l 678 608 l 211 608 l 211 868 l 678 868 l 678 1042 l 28 1042 z "},"G":{"ha":1039,"x_min":0,"x_max":0,"o":"m 1011 0 l 1011 500 l 499 500 l 499 326 l 828 326 l 828 297 b 619 172 828 214 744 172 b 444 326 535 172 442 193 b 374 500 449 463 419 500 b 288 489 336 500 336 489 b 160 614 224 489 160 519 b 269 744 160 669 199 744 b 415 690 339 744 339 690 b 504 789 475 690 504 743 b 599 913 504 881 557 913 b 676 792 647 913 700 861 b 771 689 658 738 707 689 b 888 813 838 689 888 743 b 638 1089 888 947 782 1089 b 396 972 535 1089 499 972 b 242 1011 317 972 329 1011 b 88 854 150 1011 92 935 b 110 686 85 804 110 747 b 28 447 110 550 28 538 b 288 194 28 246 274 356 b 499 -36 300 50 378 -36 b 746 136 669 -36 642 136 b 829 44 782 136 829 121 l 829 0 z "},"H":{"ha":789,"x_min":0,"x_max":0,"o":"m 578 608 l 211 608 l 211 1042 l 28 1042 l 28 0 l 211 0 l 211 435 l 578 435 l 578 0 l 761 0 l 761 1042 l 578 1042 z "},"I":{"ha":239,"x_min":0,"x_max":0,"o":"m 28 0 l 211 0 l 211 1042 l 28 1042 z "},"J":{"ha":722,"x_min":0,"x_max":0,"o":"m 147 415 b 28 322 69 406 28 374 b 144 217 28 249 93 228 b 379 -28 322 178 158 -28 b 526 64 493 -28 469 64 b 600 47 563 64 556 47 b 694 365 694 47 694 285 l 694 1042 l 511 1042 l 511 244 b 433 67 511 125 485 67 b 396 161 399 67 386 99 b 335 274 408 243 367 265 b 283 321 290 285 283 299 b 335 364 283 342 300 356 b 464 506 392 378 464 421 b 365 610 464 554 435 610 b 222 518 307 610 233 575 b 147 415 211 463 204 422 z "},"K":{"ha":810,"x_min":0,"x_max":0,"o":"m 332 546 b 211 756 217 549 211 649 l 211 1042 l 28 1042 l 28 0 l 211 0 l 211 349 b 293 261 214 307 240 261 b 432 311 361 261 361 311 b 519 197 479 311 519 267 b 508 99 519 139 508 158 b 622 -19 508 33 547 -19 b 733 97 678 -19 733 13 b 689 250 733 181 689 201 b 731 307 689 276 700 292 b 782 386 769 326 782 354 b 700 463 782 433 740 463 b 479 399 613 463 610 399 b 389 469 431 399 389 425 b 465 542 389 510 418 542 b 551 528 501 542 508 528 b 633 599 599 528 633 563 b 568 776 633 697 568 675 b 689 943 568 860 682 843 b 589 1050 693 1004 651 1050 b 490 944 514 1050 490 999 b 382 832 490 890 476 832 b 304 760 336 832 304 804 b 365 681 304 718 329 692 b 418 615 410 667 418 635 b 332 546 418 564 375 544 z "},"L":{"ha":789,"x_min":0,"x_max":0,"o":"m 761 0 l 761 174 l 211 174 l 211 1042 l 28 1042 l 28 0 z "},"M":{"ha":1042,"x_min":0,"x_max":0,"o":"m 550 567 b 465 638 550 618 501 635 b 408 719 421 640 408 676 b 465 901 408 797 465 793 b 381 975 465 957 406 975 b 260 924 325 975 317 924 b 207 1042 225 924 207 950 l 28 1042 l 28 0 l 207 0 l 207 615 b 261 710 207 668 211 710 b 329 640 292 710 329 683 b 294 450 329 525 294 517 b 418 354 294 383 351 356 b 436 176 490 353 436 274 b 565 58 436 93 510 58 b 694 203 640 58 710 83 b 683 332 689 246 686 278 b 729 450 682 358 678 424 b 793 554 757 464 793 493 b 726 704 793 635 726 644 b 776 763 726 732 740 763 b 838 692 817 763 838 724 l 836 0 l 1014 0 l 1014 1042 l 836 1042 l 838 978 b 757 867 839 888 796 867 b 607 924 681 867 681 924 b 510 815 563 924 510 878 b 651 514 510 682 651 657 b 567 332 651 471 657 332 b 496 415 519 332 496 378 b 550 567 496 492 550 513 z "},"N":{"ha":803,"x_min":0,"x_max":0,"o":"m 208 0 l 208 721 b 281 807 208 763 225 807 b 343 732 315 807 343 769 b 217 497 343 640 217 638 b 336 368 217 407 265 368 b 497 447 429 368 424 447 b 571 365 526 447 571 428 b 481 257 571 292 535 257 b 399 175 425 257 399 217 b 486 92 399 131 436 99 b 593 29 551 83 593 74 l 593 0 l 775 0 l 775 1042 l 593 1042 l 593 579 b 531 628 593 604 554 628 b 388 531 450 628 446 531 b 353 583 365 531 353 550 b 435 713 353 611 358 657 b 531 892 489 751 531 815 b 401 1026 531 992 463 1026 b 265 956 319 1026 326 956 b 207 1014 231 956 207 975 l 207 1042 l 28 1042 l 28 0 z "},"O":{"ha":1050,"x_min":0,"x_max":0,"o":"m 553 -12 b 990 264 729 -12 990 64 b 957 447 990 363 957 371 b 1022 717 957 528 1022 572 b 574 1056 1022 913 869 1056 b 260 836 418 1056 260 996 b 28 561 260 651 28 751 b 153 304 28 415 153 435 b 553 -12 153 90 244 -12 z m 363 322 b 229 507 363 426 229 413 b 483 706 229 664 483 551 b 439 860 483 761 439 808 b 606 976 439 936 507 981 b 833 769 706 971 833 910 b 726 472 833 660 726 649 b 803 235 726 356 803 336 b 546 38 803 76 654 38 b 329 176 418 38 329 94 b 363 322 329 253 363 260 z "},"P":{"ha":760,"x_min":0,"x_max":0,"o":"m 672 510 b 628 639 685 578 629 594 b 732 857 625 746 732 729 b 508 1050 732 988 604 1050 b 283 913 326 1050 368 913 b 197 1042 258 913 197 929 l 28 1042 l 28 0 l 197 0 l 197 418 b 318 285 206 368 211 285 b 458 435 456 285 397 406 b 672 510 521 465 653 403 z m 261 706 b 335 788 304 706 335 735 b 446 890 335 858 385 890 b 553 794 496 890 553 851 b 449 557 553 675 429 732 b 361 453 458 467 399 453 b 272 542 299 453 272 504 b 197 613 272 588 240 613 l 197 746 b 261 706 211 724 233 706 z "},"Q":{"ha":1110,"x_min":0,"x_max":0,"o":"m 244 556 b 468 667 383 558 468 582 b 444 840 468 736 442 769 b 607 996 449 956 542 996 b 796 793 714 996 796 915 b 772 635 796 725 772 704 b 897 417 772 510 897 504 b 783 283 897 349 865 282 b 594 419 701 285 668 419 b 508 342 536 419 508 382 b 575 163 508 283 575 214 b 479 78 575 117 522 78 b 446 300 354 78 446 215 b 365 417 446 369 440 417 b 244 369 308 417 313 369 b 244 556 129 369 113 553 z m 186 282 b 267 117 288 274 267 199 b 446 -11 267 36 325 -11 b 674 118 649 -11 601 118 b 863 -43 756 118 758 -43 b 967 57 919 -43 967 1 b 911 219 967 118 911 161 b 1082 525 911 318 1082 358 b 918 836 1082 675 947 617 b 608 1056 901 963 764 1056 b 244 764 301 1056 394 811 b 28 522 74 710 28 625 b 186 282 28 396 101 289 z "},"R":{"ha":760,"x_min":0,"x_max":0,"o":"m 28 1042 l 28 0 l 211 0 l 211 276 b 258 264 226 268 242 264 b 438 350 333 264 363 350 b 536 260 490 350 536 310 b 414 46 536 160 404 160 b 522 -25 417 8 464 -25 b 732 257 663 -25 732 150 b 554 404 732 407 601 410 b 439 485 461 393 439 442 b 724 811 439 646 724 488 b 440 1061 724 1001 576 1061 b 211 1042 310 1061 225 972 z m 289 465 b 211 579 251 465 211 503 l 211 732 b 388 963 211 900 304 963 b 553 818 483 963 551 894 b 435 710 554 717 499 696 b 328 633 386 719 328 710 b 289 465 328 583 375 465 z "},"S":{"ha":853,"x_min":0,"x_max":0,"o":"m 267 772 b 390 868 276 843 332 868 b 604 803 486 868 539 803 b 744 942 674 803 744 853 b 607 1060 744 1033 663 1060 b 468 1013 547 1060 515 1013 b 335 1044 428 1013 385 1044 b 199 900 249 1044 199 974 b 221 794 199 864 221 833 b 161 629 221 728 161 703 b 315 488 161 549 231 488 b 549 578 418 488 461 578 b 658 475 604 578 653 558 b 479 235 668 329 451 410 b 426 140 489 175 476 140 b 354 278 361 140 356 210 b 165 468 353 378 272 468 b 28 354 76 468 28 418 b 246 108 28 203 188 214 b 463 -22 303 6 392 -22 b 707 164 569 -22 707 26 b 825 474 707 353 825 338 b 654 660 825 568 756 660 b 442 625 583 660 518 625 b 267 772 349 625 254 681 z "},"T":{"ha":789,"x_min":0,"x_max":0,"o":"m 28 868 l 303 868 l 303 0 l 486 0 l 486 868 l 761 868 l 761 1042 l 28 1042 z "},"U":{"ha":790,"x_min":0,"x_max":0,"o":"m 158 121 b 413 -28 289 121 251 -28 b 661 40 563 -28 514 40 b 763 260 753 40 763 153 l 763 1042 l 579 1042 l 579 315 b 531 171 579 229 574 171 b 421 193 468 171 475 193 b 296 149 367 193 369 149 b 213 476 200 149 213 308 l 213 1042 l 29 1042 l 29 315 b 158 121 29 258 32 121 z "},"V":{"ha":897,"x_min":0,"x_max":0,"o":"m 542 913 b 681 611 542 801 681 751 b 525 463 681 533 529 554 b 619 300 521 378 619 390 b 471 161 619 232 572 161 b 346 319 390 161 349 231 b 446 593 340 464 453 479 b 376 686 442 647 413 686 b 260 604 328 686 307 604 b 200 672 224 604 200 631 b 282 949 200 806 282 789 b 168 1057 282 1004 231 1057 b 28 913 85 1057 28 1004 b 86 703 28 815 86 801 b 40 507 86 593 40 599 b 150 393 40 422 111 393 b 407 -14 371 393 192 31 b 603 135 513 -33 590 36 b 789 279 619 271 781 167 b 725 421 796 369 729 332 b 869 583 721 506 869 474 b 763 775 869 693 763 657 b 817 939 763 846 817 836 b 690 1058 817 989 771 1058 b 542 913 611 1058 542 1018 z "},"W":{"ha":1306,"x_min":0,"x_max":0,"o":"m 1117 482 b 1278 590 1219 478 1278 525 b 1143 906 1278 681 1179 674 b 983 1051 1128 1004 1068 1064 b 871 906 892 1038 854 960 b 1117 682 908 783 1117 815 b 1063 619 1117 646 1093 619 b 928 653 1010 619 976 669 b 879 583 892 640 879 615 b 965 249 879 472 965 361 b 863 122 965 149 911 122 b 757 296 769 122 757 213 b 851 669 757 469 851 586 b 749 757 851 744 808 757 b 706 897 681 757 700 860 b 556 1044 717 979 672 1049 b 365 778 482 1042 365 994 b 419 443 365 661 419 556 b 304 283 419 358 394 268 b 222 403 251 292 222 340 b 331 785 222 528 331 646 b 231 917 331 857 304 914 b 113 828 165 922 113 883 b 178 628 113 764 178 706 b 29 403 176 511 28 524 b 161 121 31 292 172 346 b 285 -17 156 25 222 -17 b 411 67 338 -17 401 -3 b 560 322 433 228 560 196 b 479 642 560 422 479 517 b 567 765 479 710 503 765 b 654 660 619 765 654 732 b 557 482 654 571 551 590 b 672 242 563 367 701 419 b 860 -33 635 17 786 -33 b 1088 168 1033 -33 1088 60 b 1035 383 1088 242 1035 322 b 1117 482 1035 443 1051 485 z "},"X":{"ha":1029,"x_min":0,"x_max":0,"o":"m 797 -33 b 1000 124 874 -33 997 8 b 913 229 1001 193 971 229 b 763 136 808 229 814 136 b 718 194 738 136 715 153 b 761 356 721 251 761 297 b 660 435 761 417 711 454 b 592 493 619 419 592 449 b 678 565 592 542 621 575 b 836 693 790 547 836 618 b 799 819 836 769 799 771 b 904 975 799 903 904 860 b 794 1063 904 1031 851 1063 b 667 939 689 1063 667 1006 b 693 829 667 907 693 864 b 547 658 693 753 547 806 b 451 549 547 581 521 549 b 381 660 408 549 381 581 b 403 836 381 718 403 774 b 226 985 403 949 343 988 b 71 851 147 982 60 944 b 172 761 78 783 117 761 b 293 717 214 761 293 788 b 244 661 293 692 276 669 b 176 556 199 650 168 603 b 288 475 189 482 236 475 b 444 417 338 475 444 503 b 386 356 444 379 421 356 b 267 253 314 356 264 332 b 183 201 269 192 215 197 b 31 54 65 214 19 160 b 128 -29 36 -1 82 -29 b 218 36 174 -29 213 -10 b 263 97 222 75 239 97 b 300 44 283 97 300 75 b 365 -43 300 -18 326 -43 b 454 110 404 -43 460 -28 b 542 346 449 261 451 346 b 590 139 639 346 590 244 b 797 -33 590 1 675 -33 z "},"Y":{"ha":932,"x_min":0,"x_max":0,"o":"m 131 940 b 149 843 131 906 149 879 b 29 683 149 765 32 783 b 154 590 28 618 88 590 b 254 611 201 590 222 611 b 300 560 281 611 300 589 b 251 506 300 535 285 506 b 207 463 226 506 207 492 b 290 415 207 419 249 415 b 331 357 313 415 331 400 l 331 0 l 514 0 l 514 360 b 576 506 514 449 518 486 b 756 619 626 522 746 464 b 799 682 757 650 771 682 b 903 756 869 682 900 703 b 751 904 907 840 782 828 b 608 1083 731 957 733 1083 b 489 972 549 1083 489 1047 b 703 799 489 826 703 899 b 571 733 703 739 632 765 b 518 567 500 696 514 607 b 453 481 522 524 503 481 b 371 557 397 481 367 511 b 396 701 375 614 419 625 b 269 818 368 792 300 732 b 275 940 258 851 275 897 b 200 1028 275 979 261 1028 b 131 940 147 1028 131 981 z "},"Z":{"ha":715,"x_min":0,"x_max":0,"o":"m 53 0 l 688 0 l 688 174 l 376 174 b 321 226 381 217 356 226 b 271 219 292 226 297 219 b 218 257 224 219 218 249 b 286 303 218 267 221 310 b 386 372 338 299 386 303 b 314 479 386 440 314 418 b 368 517 314 510 342 517 b 511 467 443 517 438 467 b 610 546 567 467 610 488 b 563 671 610 615 563 596 b 688 869 563 740 688 714 l 688 1042 l 61 1042 l 61 868 l 489 868 b 475 831 479 856 475 849 b 517 751 475 775 517 786 b 438 721 517 725 492 704 b 331 633 364 743 311 694 b 272 576 344 589 313 576 b 161 615 233 576 210 615 b 74 531 106 615 74 583 b 161 407 74 461 161 469 b 28 232 161 317 28 318 b 53 174 28 201 38 192 z "},"Æ":{"ha":1256,"x_min":0,"x_max":0,"o":"m 578 1042 b 490 1058 578 1042 538 1058 b 335 907 404 1058 343 993 b 249 840 328 838 285 840 b 153 750 196 840 153 800 b 179 619 150 696 196 692 b 68 458 160 532 68 569 b 253 263 68 349 253 382 b 28 99 253 139 28 232 b 179 -10 28 7 128 -10 b 353 161 235 -10 353 7 b 444 315 353 279 444 238 b 308 435 444 397 329 371 l 497 435 b 554 371 500 386 519 371 b 635 408 593 371 594 408 b 678 344 663 408 678 381 b 604 97 678 226 604 215 b 686 0 604 57 624 0 l 1228 0 l 1228 174 l 761 174 l 761 435 l 1228 435 l 1228 608 l 761 608 l 761 868 l 1228 868 l 1228 1042 z m 471 922 b 532 608 606 922 579 681 l 375 608 b 471 922 331 688 346 922 z "},"Ð":{"ha":975,"x_min":0,"x_max":0,"o":"m 28 436 l 81 436 l 81 0 l 422 0 b 518 114 511 0 450 114 b 617 68 549 114 540 68 b 699 135 656 68 696 96 b 708 238 699 163 690 207 b 947 478 757 319 947 343 b 763 658 947 590 890 646 b 668 728 689 665 668 696 b 725 910 668 788 725 829 b 557 1057 725 992 656 1057 b 326 990 475 1057 411 990 b 264 1031 288 990 264 1010 l 264 1042 l 81 1042 l 81 607 l 28 607 z m 650 292 b 467 493 556 292 467 347 l 467 607 l 264 607 l 264 761 b 385 885 264 838 319 885 b 519 689 504 885 519 789 b 628 579 519 632 531 585 b 797 446 751 574 797 511 b 650 292 797 349 717 292 z m 350 153 b 264 317 264 153 264 263 l 264 436 l 363 436 b 350 153 450 436 461 153 z "},"Œ":{"ha":1382,"x_min":0,"x_max":0,"o":"m 497 -31 b 699 0 561 -33 643 -11 l 1354 0 l 1354 174 l 888 174 l 888 435 l 1354 435 l 1354 608 l 888 608 l 888 868 l 1354 868 l 1354 1042 l 706 1042 b 549 1063 671 1050 621 1063 b 257 836 393 1063 251 996 b 28 561 264 625 28 710 b 128 304 28 415 113 432 b 497 -31 153 92 219 -18 z m 328 306 b 204 507 328 410 206 413 b 458 706 203 669 458 551 b 432 860 458 761 432 808 b 581 976 432 936 478 976 b 808 769 681 976 808 910 b 722 472 808 660 722 576 b 763 260 722 396 763 332 b 500 38 763 103 608 38 b 304 182 372 38 304 100 b 328 306 304 228 328 264 z "},"Ø":{"ha":1051,"x_min":0,"x_max":0,"o":"m 528 -12 b 897 304 806 -11 872 92 b 1022 561 913 432 1026 415 b 790 836 1017 767 783 625 b 476 1056 796 996 632 1056 b 28 642 181 1056 28 850 b 78 425 28 568 78 506 b 72 189 78 357 39 281 b 528 -12 126 42 296 -14 z m 650 801 b 575 724 651 769 618 724 b 450 756 532 724 497 756 b 317 629 363 756 317 704 b 403 386 317 533 403 471 b 336 317 403 340 368 317 b 267 515 211 317 254 449 b 217 788 296 665 217 678 b 460 976 217 928 360 971 b 650 801 588 982 647 901 z m 821 507 b 697 314 804 414 697 418 b 721 182 697 272 721 228 b 525 43 721 100 653 43 b 288 158 426 43 288 71 b 369 240 288 197 324 240 b 576 256 433 240 540 167 b 538 543 608 333 538 458 b 665 679 538 633 568 676 b 821 507 757 682 838 600 z "},"Þ":{"ha":871,"x_min":0,"x_max":0,"o":"m 211 0 l 211 246 b 311 358 211 314 246 358 b 540 215 418 358 372 215 b 718 354 636 215 718 258 b 668 479 718 419 668 432 b 843 643 668 556 843 542 b 696 838 843 739 696 726 b 500 1054 696 953 653 1054 b 290 817 367 1054 290 938 b 257 646 290 719 328 646 b 211 701 228 646 211 668 l 211 1042 l 28 1042 l 28 0 z m 686 646 b 524 503 686 575 524 596 b 579 383 524 447 579 436 b 522 332 579 351 558 332 b 390 503 411 332 481 503 b 268 446 333 503 329 446 b 211 503 239 446 211 465 b 331 571 211 563 261 582 b 483 699 433 554 483 618 b 460 835 483 753 460 782 b 551 931 460 890 493 931 b 638 853 606 931 638 901 b 615 739 638 778 615 779 b 686 646 615 690 686 694 z "},"À":{"ha":938,"x_min":0,"x_max":0,"o":"m 754 661 b 497 1058 526 650 760 1058 b 335 907 411 1058 353 988 b 249 840 321 839 285 840 b 153 750 196 840 153 800 b 179 619 150 696 196 692 b 68 458 160 532 68 569 b 253 263 68 349 253 382 b 28 99 253 139 28 232 b 179 -10 28 7 128 -10 b 353 161 235 -10 353 7 b 444 315 353 279 444 238 b 308 435 444 397 329 371 l 497 435 b 561 356 500 386 526 356 b 671 417 610 356 624 417 b 738 340 707 417 738 382 b 656 69 738 207 646 188 b 768 -15 660 22 706 -15 b 910 129 853 -15 910 51 b 811 339 910 226 811 274 b 892 553 811 397 892 460 b 754 661 892 617 851 665 z m 471 922 b 532 608 606 922 579 681 l 375 608 b 471 922 331 688 346 922 z m 385 1097 l 610 1097 l 243 1346 l 243 1181 z "},"Á":{"ha":938,"x_min":0,"x_max":0,"o":"m 754 661 b 892 553 851 665 892 617 b 811 339 892 460 811 397 b 910 129 811 274 910 226 b 768 -15 910 51 853 -15 b 656 69 706 -15 660 22 b 738 340 646 188 738 207 b 671 417 738 382 707 417 b 561 356 624 417 610 356 b 497 435 526 356 500 386 l 308 435 b 444 315 329 371 444 397 b 353 161 444 238 353 279 b 179 -10 353 7 235 -10 b 28 99 128 -10 28 7 b 253 263 28 232 253 139 b 68 458 253 382 68 349 b 179 619 68 569 160 532 b 153 750 196 692 150 696 b 249 840 153 800 196 840 b 335 907 285 840 321 839 b 497 1058 353 988 411 1058 b 754 661 760 1058 526 650 z m 471 922 b 375 608 346 922 331 688 l 532 608 b 471 922 579 681 606 922 z m 749 1181 l 749 1346 l 382 1097 l 607 1097 z "},"Â":{"ha":938,"x_min":0,"x_max":0,"o":"m 754 661 b 497 1058 526 650 760 1058 b 335 907 411 1058 353 988 b 249 840 321 839 285 840 b 153 750 196 840 153 800 b 179 619 150 696 196 692 b 68 458 160 532 68 569 b 253 263 68 349 253 382 b 28 99 253 139 28 232 b 179 -10 28 7 128 -10 b 353 161 235 -10 353 7 b 444 315 353 279 444 238 b 308 435 444 397 329 371 l 497 435 b 561 356 500 386 526 356 b 671 417 610 356 624 417 b 738 340 707 417 738 382 b 656 69 738 207 646 188 b 768 -15 660 22 706 -15 b 910 129 853 -15 910 51 b 811 339 910 226 811 274 b 892 553 811 397 892 460 b 754 661 892 617 851 665 z m 471 922 b 532 608 606 922 579 681 l 375 608 b 471 922 331 688 346 922 z m 488 1201 l 692 1068 l 692 1221 l 563 1310 l 411 1310 l 282 1221 l 282 1068 z "},"Ã":{"ha":938,"x_min":0,"x_max":0,"o":"m 754 661 b 892 553 851 665 892 617 b 811 339 892 460 811 397 b 910 129 811 274 910 226 b 768 -15 910 51 853 -15 b 656 69 706 -15 660 22 b 738 340 646 188 738 207 b 671 417 738 382 707 417 b 561 356 624 417 610 356 b 497 435 526 356 500 386 l 308 435 b 444 315 329 371 444 397 b 353 161 444 238 353 279 b 179 -10 353 7 235 -10 b 28 99 128 -10 28 7 b 253 263 28 232 253 139 b 68 458 253 382 68 349 b 179 619 68 569 160 532 b 153 750 196 692 150 696 b 249 840 153 800 196 840 b 335 907 285 840 321 839 b 497 1058 353 988 411 1058 b 754 661 760 1058 526 650 z m 471 922 b 375 608 346 922 331 688 l 532 608 b 471 922 579 681 606 922 z m 596 1090 b 701 1135 638 1090 672 1106 l 701 1278 b 599 1219 681 1250 656 1219 b 397 1282 544 1219 464 1282 b 292 1238 356 1282 321 1267 l 292 1094 b 394 1153 313 1122 338 1153 b 596 1090 447 1153 529 1090 z "},"Ä":{"ha":938,"x_min":0,"x_max":0,"o":"m 754 661 b 892 553 851 665 892 617 b 811 339 892 460 811 397 b 910 129 811 274 910 226 b 768 -15 910 51 853 -15 b 656 69 706 -15 660 22 b 738 340 646 188 738 207 b 671 417 738 382 707 417 b 561 356 624 417 610 356 b 497 435 526 356 500 386 l 308 435 b 444 315 329 371 444 397 b 353 161 444 238 353 279 b 179 -10 353 7 235 -10 b 28 99 128 -10 28 7 b 253 263 28 232 253 139 b 68 458 253 382 68 349 b 179 619 68 569 160 532 b 153 750 196 692 150 696 b 249 840 153 800 196 840 b 335 907 285 840 321 839 b 497 1058 353 988 411 1058 b 754 661 760 1058 526 650 z m 471 922 b 375 608 346 922 331 688 l 532 608 b 471 922 579 681 606 922 z m 450 1300 l 311 1300 l 268 1169 l 381 1089 l 494 1169 z m 676 1300 l 538 1300 l 494 1169 l 607 1089 l 721 1169 z "},"Ā":{"ha":938,"x_min":0,"x_max":0,"o":"m 754 661 b 892 553 851 665 892 617 b 811 339 892 460 811 397 b 910 129 811 274 910 226 b 768 -15 910 51 853 -15 b 656 69 706 -15 660 22 b 738 340 646 188 738 207 b 671 417 738 382 707 417 b 561 356 624 417 610 356 b 497 435 526 356 500 386 l 308 435 b 444 315 329 371 444 397 b 353 161 444 238 353 279 b 179 -10 353 7 235 -10 b 28 99 128 -10 28 7 b 253 263 28 232 253 139 b 68 458 253 382 68 349 b 179 619 68 569 160 532 b 153 750 196 692 150 696 b 249 840 153 800 196 840 b 335 907 285 840 321 839 b 497 1058 353 988 411 1058 b 754 661 760 1058 526 650 z m 471 922 b 375 608 346 922 331 688 l 532 608 b 471 922 579 681 606 922 z m 292 1126 l 701 1126 l 701 1258 l 292 1258 z "},"Ă":{"ha":938,"x_min":0,"x_max":0,"o":"m 754 661 b 497 1058 526 650 760 1058 b 335 907 411 1058 353 988 b 249 840 321 839 285 840 b 153 750 196 840 153 800 b 179 619 150 696 196 692 b 68 458 160 532 68 569 b 253 263 68 349 253 382 b 28 99 253 139 28 232 b 179 -10 28 7 128 -10 b 353 161 235 -10 353 7 b 444 315 353 279 444 238 b 308 435 444 397 329 371 l 497 435 b 561 356 500 386 526 356 b 671 417 610 356 624 417 b 738 340 707 417 738 382 b 656 69 738 207 646 188 b 768 -15 660 22 706 -15 b 910 129 853 -15 910 51 b 811 339 910 226 811 274 b 892 553 811 397 892 460 b 754 661 892 617 851 665 z m 496 1214 b 421 1292 453 1214 425 1246 l 285 1292 b 496 1089 289 1165 376 1089 b 708 1292 615 1089 704 1165 l 572 1292 b 496 1214 568 1246 539 1214 z m 471 922 b 532 608 606 922 579 681 l 375 608 b 471 922 331 688 346 922 z "},"Å":{"ha":938,"x_min":0,"x_max":0,"o":"m 754 661 b 497 1058 526 650 760 1058 b 335 907 411 1058 353 988 b 249 840 321 839 285 840 b 153 750 196 840 153 800 b 179 619 150 696 196 692 b 68 458 160 532 68 569 b 253 263 68 349 253 382 b 28 99 253 139 28 232 b 179 -10 28 7 128 -10 b 353 161 235 -10 353 7 b 444 315 353 279 444 238 b 308 435 444 397 329 371 l 497 435 b 561 356 500 386 526 356 b 671 417 610 356 624 417 b 738 340 707 417 738 382 b 656 69 738 207 646 188 b 768 -15 660 22 706 -15 b 910 129 853 -15 910 51 b 811 339 910 226 811 274 b 892 553 811 397 892 460 b 754 661 892 617 851 665 z m 471 922 b 532 608 606 922 579 681 l 375 608 b 471 922 331 688 346 922 z m 335 1228 b 489 1074 335 1143 404 1074 b 643 1228 574 1074 643 1143 b 489 1382 643 1313 574 1382 b 335 1228 404 1382 335 1313 z m 435 1228 b 489 1282 435 1258 458 1282 b 543 1228 519 1282 543 1258 b 489 1174 543 1197 519 1174 b 435 1228 458 1174 435 1197 z "},"Ǻ":{"ha":938,"x_min":0,"x_max":0,"o":"m 754 661 b 892 553 851 665 892 617 b 811 339 892 460 811 397 b 910 129 811 274 910 226 b 768 -15 910 51 853 -15 b 656 69 706 -15 660 22 b 738 340 646 188 738 207 b 671 417 738 382 707 417 b 561 356 624 417 610 356 b 497 435 526 356 500 386 l 308 435 b 444 315 329 371 444 397 b 353 161 444 238 353 279 b 179 -10 353 7 235 -10 b 28 99 128 -10 28 7 b 253 263 28 232 253 139 b 68 458 253 382 68 349 b 179 619 68 569 160 532 b 153 750 196 692 150 696 b 249 840 153 800 196 840 b 335 907 285 840 321 839 b 497 1058 353 988 411 1058 b 754 661 760 1058 526 650 z m 471 922 b 375 608 346 922 331 688 l 532 608 b 471 922 579 681 606 922 z m 328 1228 b 482 1382 328 1313 397 1382 b 636 1228 567 1382 636 1313 b 482 1074 636 1143 567 1074 b 328 1228 397 1074 328 1143 z m 428 1228 b 482 1174 428 1197 451 1174 b 536 1228 513 1174 536 1197 b 482 1282 536 1258 513 1282 b 428 1228 451 1282 428 1258 z m 721 1486 l 721 1651 l 354 1403 l 579 1403 z "},"Ą":{"ha":938,"x_min":0,"x_max":0,"o":"m 910 -151 b 861 -175 893 -165 878 -175 b 833 -146 843 -175 833 -164 l 833 0 b 910 129 881 24 910 74 b 811 339 910 226 811 274 b 892 553 811 397 892 460 b 754 661 892 617 851 665 b 497 1058 526 650 760 1058 b 335 907 411 1058 353 988 b 249 840 321 839 285 840 b 153 750 196 840 153 800 b 179 619 150 696 196 692 b 68 458 160 532 68 569 b 253 263 68 349 253 382 b 28 99 253 139 28 232 b 179 -10 28 7 128 -10 b 353 161 235 -10 353 7 b 444 315 353 279 444 238 b 308 435 444 397 329 371 l 497 435 b 561 356 500 386 526 356 b 671 417 610 356 624 417 b 738 340 707 417 738 382 b 656 69 738 207 646 188 b 689 10 657 46 669 25 l 689 -165 b 844 -321 689 -267 744 -321 b 979 -271 896 -321 940 -303 z m 471 922 b 532 608 606 922 579 681 l 375 608 b 471 922 331 688 346 922 z "},"Ǽ":{"ha":1256,"x_min":0,"x_max":0,"o":"m 578 1042 l 1228 1042 l 1228 868 l 761 868 l 761 608 l 1228 608 l 1228 435 l 761 435 l 761 174 l 1228 174 l 1228 0 l 686 0 b 604 97 624 0 604 57 b 678 344 604 215 678 226 b 635 408 678 381 663 408 b 554 371 594 408 593 371 b 497 435 519 371 500 386 l 308 435 b 444 315 329 371 444 397 b 353 161 444 238 353 279 b 179 -10 353 7 235 -10 b 28 99 128 -10 28 7 b 253 263 28 232 253 139 b 68 458 253 382 68 349 b 179 619 68 569 160 532 b 153 750 196 692 150 696 b 249 840 153 800 196 840 b 335 907 285 840 328 838 b 490 1058 343 993 404 1058 b 578 1042 538 1058 578 1042 z m 471 922 b 375 608 346 922 331 688 l 532 608 b 471 922 579 681 606 922 z m 1019 1181 l 1019 1346 l 653 1097 l 878 1097 z "},"Ć":{"ha":918,"x_min":0,"x_max":0,"o":"m 317 929 b 565 1097 317 1061 461 1097 b 824 913 726 1097 824 1010 b 717 815 824 835 761 815 b 611 892 681 815 628 835 b 538 974 597 936 590 974 b 483 894 482 974 479 929 b 497 788 488 864 501 819 b 406 694 492 740 472 694 b 306 740 342 694 364 740 b 242 681 293 740 242 738 b 365 482 242 578 365 600 b 321 310 365 414 321 390 b 472 147 321 239 354 147 b 781 340 615 147 626 340 b 890 243 838 340 890 304 b 610 -11 890 92 760 -11 b 363 144 464 -11 440 90 b 96 319 267 211 96 150 b 124 557 96 418 124 436 b 28 696 124 625 28 597 b 317 929 28 861 317 728 z m 800 1208 l 800 1374 l 433 1125 l 658 1125 z "},"Ĉ":{"ha":918,"x_min":0,"x_max":0,"o":"m 317 929 b 28 696 317 728 28 861 b 124 557 28 597 124 625 b 96 319 124 436 96 418 b 363 144 96 150 267 211 b 610 -11 440 90 464 -11 b 890 243 760 -11 890 92 b 781 340 890 304 838 340 b 472 147 626 340 615 147 b 321 310 354 147 321 239 b 365 482 321 390 365 414 b 242 681 365 600 242 578 b 306 740 242 738 293 740 b 406 694 364 740 342 694 b 497 788 472 694 492 740 b 483 894 501 819 488 864 b 538 974 479 929 482 974 b 611 892 590 974 597 936 b 717 815 628 835 681 815 b 824 913 761 815 824 835 b 565 1097 824 1010 726 1097 b 317 929 461 1097 317 1061 z m 557 1201 l 761 1068 l 761 1221 l 632 1310 l 481 1310 l 351 1221 l 351 1068 z "},"Č":{"ha":918,"x_min":0,"x_max":0,"o":"m 317 929 b 28 696 317 728 28 861 b 124 557 28 597 124 625 b 96 319 124 436 96 418 b 363 144 96 150 267 211 b 610 -11 440 90 464 -11 b 890 243 760 -11 890 92 b 781 340 890 304 838 340 b 472 147 626 340 615 147 b 321 310 354 147 321 239 b 365 482 321 390 365 414 b 242 681 365 600 242 578 b 306 740 242 738 293 740 b 406 694 364 740 342 694 b 497 788 472 694 492 740 b 483 894 501 819 488 864 b 538 974 479 929 482 974 b 611 892 590 974 597 936 b 717 815 628 835 681 815 b 824 913 761 815 824 835 b 565 1097 824 1010 726 1097 b 317 929 461 1097 317 1061 z m 363 1367 l 363 1214 l 492 1125 l 643 1125 l 772 1214 l 772 1367 l 568 1233 z "},"Ċ":{"ha":918,"x_min":0,"x_max":0,"o":"m 317 929 b 565 1097 317 1061 461 1097 b 824 913 726 1097 824 1010 b 717 815 824 835 761 815 b 611 892 681 815 628 835 b 538 974 597 936 590 974 b 483 894 482 974 479 929 b 497 788 488 864 501 819 b 406 694 492 740 472 694 b 306 740 342 694 364 740 b 242 681 293 740 242 738 b 365 482 242 578 365 600 b 321 310 365 414 321 390 b 472 147 321 239 354 147 b 781 340 615 147 626 340 b 890 243 838 340 890 304 b 610 -11 890 92 760 -11 b 363 144 464 -11 440 90 b 96 319 267 211 96 150 b 124 557 96 418 124 436 b 28 696 124 625 28 597 b 317 929 28 861 317 728 z m 625 1328 l 486 1328 l 443 1197 l 556 1117 l 669 1197 z "},"Ç":{"ha":918,"x_min":0,"x_max":0,"o":"m 447 -299 b 578 -328 476 -315 526 -328 b 747 -174 664 -328 747 -276 b 649 -47 747 -101 696 -58 l 649 -8 b 890 243 782 7 890 104 b 781 340 890 304 838 340 b 472 147 626 340 615 147 b 321 310 354 147 321 239 b 365 482 321 390 365 414 b 242 681 365 600 242 578 b 306 740 242 738 293 740 b 406 694 364 740 342 694 b 497 788 472 694 492 740 b 483 894 501 819 488 864 b 538 974 479 929 482 974 b 611 892 590 974 597 936 b 717 815 628 835 681 815 b 824 913 761 815 824 835 b 565 1097 824 1010 726 1097 b 317 929 461 1097 317 1061 b 28 696 317 728 28 861 b 124 557 28 597 124 625 b 96 319 124 436 96 418 b 363 144 96 150 267 211 b 517 7 419 104 447 39 l 517 -128 b 607 -165 579 -121 607 -137 b 563 -201 607 -189 588 -201 b 486 -171 521 -201 486 -171 z "},"Ď":{"ha":922,"x_min":0,"x_max":0,"o":"m 28 1042 l 28 0 l 369 0 b 465 114 458 0 397 114 b 564 68 496 114 488 68 b 646 135 603 68 643 96 b 656 238 646 163 638 207 b 894 478 704 319 894 343 b 710 658 894 590 838 646 b 615 728 636 665 615 696 b 672 910 615 788 672 829 b 504 1057 672 992 603 1057 b 274 990 422 1057 358 990 b 211 1042 235 990 211 1010 z m 458 401 b 297 153 335 401 444 153 b 211 317 211 153 211 263 l 211 761 b 332 885 211 838 267 885 b 467 689 451 885 467 789 b 575 579 467 632 478 585 b 728 446 699 574 728 493 b 628 314 728 360 674 314 b 458 401 521 314 567 401 z m 144 1339 l 144 1186 l 274 1097 l 425 1097 l 554 1186 l 554 1339 l 350 1206 z "},"Đ":{"ha":975,"x_min":0,"x_max":0,"o":"m 28 436 l 81 436 l 81 0 l 422 0 b 518 114 511 0 450 114 b 617 68 549 114 540 68 b 699 135 656 68 696 96 b 708 238 699 163 690 207 b 947 478 757 319 947 343 b 763 658 947 590 890 646 b 668 728 689 665 668 696 b 725 910 668 788 725 829 b 557 1057 725 992 656 1057 b 326 990 475 1057 411 990 b 264 1031 288 990 264 1010 l 264 1042 l 81 1042 l 81 607 l 28 607 z m 650 292 b 467 493 556 292 467 347 l 467 607 l 264 607 l 264 761 b 385 885 264 838 319 885 b 519 689 504 885 519 789 b 628 579 519 632 531 585 b 797 446 751 574 797 511 b 650 292 797 349 717 292 z m 350 153 b 264 317 264 153 264 263 l 264 436 l 363 436 b 350 153 450 436 461 153 z "},"È":{"ha":706,"x_min":0,"x_max":0,"o":"m 28 0 l 678 0 l 678 174 l 211 174 l 211 435 l 678 435 l 678 608 l 211 608 l 211 868 l 678 868 l 678 1042 l 28 1042 z m 297 1097 l 522 1097 l 156 1346 l 156 1181 z "},"É":{"ha":706,"x_min":0,"x_max":0,"o":"m 28 1042 l 678 1042 l 678 868 l 211 868 l 211 608 l 678 608 l 678 435 l 211 435 l 211 174 l 678 174 l 678 0 l 28 0 z m 578 1181 l 578 1346 l 211 1097 l 436 1097 z "},"Ê":{"ha":706,"x_min":0,"x_max":0,"o":"m 28 0 l 678 0 l 678 174 l 211 174 l 211 435 l 678 435 l 678 608 l 211 608 l 211 868 l 678 868 l 678 1042 l 28 1042 z m 353 1201 l 557 1068 l 557 1221 l 428 1310 l 276 1310 l 147 1221 l 147 1068 z "},"Ě":{"ha":706,"x_min":0,"x_max":0,"o":"m 28 0 l 678 0 l 678 174 l 211 174 l 211 435 l 678 435 l 678 608 l 211 608 l 211 868 l 678 868 l 678 1042 l 28 1042 z m 147 1339 l 147 1186 l 276 1097 l 428 1097 l 557 1186 l 557 1339 l 353 1206 z "},"Ë":{"ha":706,"x_min":0,"x_max":0,"o":"m 28 1042 l 678 1042 l 678 868 l 211 868 l 211 608 l 678 608 l 678 435 l 211 435 l 211 174 l 678 174 l 678 0 l 28 0 z m 535 1300 l 396 1300 l 353 1169 l 465 1089 l 579 1169 z m 308 1300 l 169 1300 l 126 1169 l 239 1089 l 353 1169 z "},"Ē":{"ha":706,"x_min":0,"x_max":0,"o":"m 28 1042 l 678 1042 l 678 868 l 211 868 l 211 608 l 678 608 l 678 435 l 211 435 l 211 174 l 678 174 l 678 0 l 28 0 z m 147 1126 l 557 1126 l 557 1258 l 147 1258 z "},"Ĕ":{"ha":706,"x_min":0,"x_max":0,"o":"m 28 0 l 678 0 l 678 174 l 211 174 l 211 435 l 678 435 l 678 608 l 211 608 l 211 868 l 678 868 l 678 1042 l 28 1042 z m 351 1214 b 276 1292 308 1214 281 1246 l 140 1292 b 351 1089 144 1165 232 1089 b 564 1292 471 1089 560 1165 l 428 1292 b 351 1214 424 1246 394 1214 z "},"Ė":{"ha":706,"x_min":0,"x_max":0,"o":"m 28 1042 l 678 1042 l 678 868 l 211 868 l 211 608 l 678 608 l 678 435 l 211 435 l 211 174 l 678 174 l 678 0 l 28 0 z m 421 1300 l 282 1300 l 239 1169 l 351 1089 l 465 1169 z "},"Ę":{"ha":706,"x_min":0,"x_max":0,"o":"m 608 -151 b 560 -175 592 -165 576 -175 b 532 -146 542 -175 532 -164 l 532 0 l 678 0 l 678 174 l 211 174 l 211 435 l 678 435 l 678 608 l 211 608 l 211 868 l 678 868 l 678 1042 l 28 1042 l 28 0 l 388 0 l 388 -165 b 543 -321 388 -267 443 -321 b 678 -271 594 -321 639 -303 z "},"Ĝ":{"ha":1039,"x_min":0,"x_max":0,"o":"m 1011 0 l 1011 500 l 499 500 l 499 326 l 828 326 l 828 297 b 619 172 828 214 744 172 b 444 326 535 172 442 193 b 374 500 449 463 419 500 b 288 489 336 500 336 489 b 160 614 224 489 160 519 b 269 744 160 669 199 744 b 415 690 339 744 339 690 b 504 789 475 690 504 743 b 599 913 504 881 557 913 b 676 792 647 913 700 861 b 771 689 658 738 707 689 b 888 813 838 689 888 743 b 638 1089 888 947 782 1089 b 396 972 535 1089 499 972 b 242 1011 317 972 329 1011 b 88 854 150 1011 92 935 b 110 686 85 804 110 747 b 28 447 110 550 28 538 b 288 194 28 246 274 356 b 499 -36 300 50 378 -36 b 746 136 669 -36 642 136 b 829 44 782 136 829 121 l 829 0 z m 617 1201 l 821 1068 l 821 1221 l 692 1310 l 540 1310 l 411 1221 l 411 1068 z "},"Ğ":{"ha":1039,"x_min":0,"x_max":0,"o":"m 1011 0 l 1011 500 l 499 500 l 499 326 l 828 326 l 828 297 b 619 172 828 214 744 172 b 444 326 535 172 442 193 b 374 500 449 463 419 500 b 288 489 336 500 336 489 b 160 614 224 489 160 519 b 269 744 160 669 199 744 b 415 690 339 744 339 690 b 504 789 475 690 504 743 b 599 913 504 881 557 913 b 676 792 647 913 700 861 b 771 689 658 738 707 689 b 888 813 838 689 888 743 b 638 1089 888 947 782 1089 b 396 972 535 1089 499 972 b 242 1011 317 972 329 1011 b 88 854 150 1011 92 935 b 110 686 85 804 110 747 b 28 447 110 550 28 538 b 288 194 28 246 274 356 b 499 -36 300 50 378 -36 b 746 136 669 -36 642 136 b 829 44 782 136 829 121 l 829 0 z m 518 1214 b 443 1292 475 1214 447 1246 l 307 1292 b 518 1089 311 1165 399 1089 b 731 1292 638 1089 726 1165 l 594 1292 b 518 1214 590 1246 561 1214 z "},"Ġ":{"ha":1039,"x_min":0,"x_max":0,"o":"m 829 0 l 829 44 b 746 136 829 121 782 136 b 499 -36 642 136 669 -36 b 288 194 378 -36 300 50 b 28 447 274 356 28 246 b 110 686 28 538 110 550 b 88 854 110 747 85 804 b 242 1011 92 935 150 1011 b 396 972 329 1011 317 972 b 638 1089 499 972 535 1089 b 888 813 782 1089 888 947 b 771 689 888 743 838 689 b 676 792 707 689 658 738 b 599 913 700 861 647 913 b 504 789 557 913 504 881 b 415 690 504 743 475 690 b 269 744 339 690 339 744 b 160 614 199 744 160 669 b 288 489 160 519 224 489 b 374 500 336 489 336 500 b 444 326 419 500 449 463 b 619 172 442 193 535 172 b 828 297 744 172 828 214 l 828 326 l 499 326 l 499 500 l 1011 500 l 1011 0 z m 601 1300 l 463 1300 l 419 1169 l 532 1089 l 646 1169 z "},"Ģ":{"ha":1039,"x_min":0,"x_max":0,"o":"m 1011 0 l 1011 500 l 499 500 l 499 326 l 828 326 l 828 297 b 619 172 828 214 744 172 b 444 326 535 172 442 193 b 374 500 449 463 419 500 b 288 489 336 500 336 489 b 160 614 224 489 160 519 b 269 744 160 669 199 744 b 415 690 339 744 339 690 b 504 789 475 690 504 743 b 599 913 504 881 557 913 b 676 792 647 913 700 861 b 771 689 658 738 707 689 b 888 813 838 689 888 743 b 638 1089 888 947 782 1089 b 396 972 535 1089 499 972 b 242 1011 317 972 329 1011 b 88 854 150 1011 92 935 b 110 686 85 804 110 747 b 28 447 110 550 28 538 b 288 194 28 246 274 356 b 499 -36 300 50 378 -36 b 746 136 669 -36 642 136 b 829 44 782 136 829 121 l 829 0 z m 540 -267 b 476 -319 538 -314 504 -319 l 476 -386 b 625 -267 563 -386 603 -351 l 661 -136 l 547 -53 l 432 -136 l 476 -267 z "},"Ĥ":{"ha":789,"x_min":0,"x_max":0,"o":"m 578 608 l 211 608 l 211 1042 l 28 1042 l 28 0 l 211 0 l 211 435 l 578 435 l 578 0 l 761 0 l 761 1042 l 578 1042 z m 394 1201 l 599 1068 l 599 1221 l 469 1310 l 318 1310 l 189 1221 l 189 1068 z "},"Ħ":{"ha":789,"x_min":0,"x_max":0,"o":"m -61 760 l 28 760 l 28 0 l 211 0 l 211 435 l 578 435 l 578 0 l 761 0 l 761 760 l 849 760 l 849 892 l 761 892 l 761 1042 l 578 1042 l 578 892 l 211 892 l 211 1042 l 28 1042 l 28 892 l -61 892 z m 211 608 l 211 760 l 578 760 l 578 608 z "},"Ì":{"ha":239,"x_min":0,"x_max":0,"o":"m 28 0 l 211 0 l 211 1042 l 28 1042 z m -19 1097 l 206 1097 l -161 1346 l -161 1181 z "},"Í":{"ha":239,"x_min":0,"x_max":0,"o":"m 28 1042 l 211 1042 l 211 0 l 28 0 z m 390 1181 l 390 1346 l 24 1097 l 249 1097 z "},"Î":{"ha":239,"x_min":0,"x_max":0,"o":"m 28 0 l 211 0 l 211 1042 l 28 1042 z m 121 1201 l 325 1068 l 325 1221 l 196 1310 l 44 1310 l -85 1221 l -85 1068 z "},"Ĩ":{"ha":239,"x_min":0,"x_max":0,"o":"m 28 1042 l 211 1042 l 211 0 l 28 0 z m 219 1090 b 325 1135 261 1090 296 1106 l 325 1278 b 222 1219 304 1250 279 1219 b 21 1282 168 1219 88 1282 b -85 1238 -21 1282 -56 1267 l -85 1094 b 18 1153 -64 1122 -39 1153 b 219 1090 71 1153 153 1090 z "},"Ï":{"ha":239,"x_min":0,"x_max":0,"o":"m 28 1042 l 211 1042 l 211 0 l 28 0 z m 301 1300 l 163 1300 l 119 1169 l 232 1089 l 346 1169 z m 75 1300 l -64 1300 l -107 1169 l 6 1089 l 119 1169 z "},"Ī":{"ha":239,"x_min":0,"x_max":0,"o":"m 28 1042 l 211 1042 l 211 0 l 28 0 z m -85 1126 l 325 1126 l 325 1258 l -85 1258 z "},"Ĭ":{"ha":239,"x_min":0,"x_max":0,"o":"m 28 0 l 211 0 l 211 1042 l 28 1042 z m 119 1214 b 44 1292 76 1214 49 1246 l -92 1292 b 119 1089 -87 1165 0 1089 b 332 1292 239 1089 328 1165 l 196 1292 b 119 1214 192 1246 163 1214 z "},"İ":{"ha":239,"x_min":0,"x_max":0,"o":"m 28 1042 l 211 1042 l 211 0 l 28 0 z m 189 1300 l 50 1300 l 7 1169 l 119 1089 l 233 1169 z "},"Į":{"ha":239,"x_min":0,"x_max":0,"o":"m 267 -151 b 218 -175 250 -165 235 -175 b 190 -146 200 -175 190 -164 l 190 0 l 211 0 l 211 1042 l 28 1042 l 28 0 l 46 0 l 46 -165 b 201 -321 46 -267 101 -321 b 336 -271 253 -321 297 -303 z "},"Ĵ":{"ha":722,"x_min":0,"x_max":0,"o":"m 147 415 b 28 322 69 406 28 374 b 144 217 28 249 93 228 b 379 -28 322 178 158 -28 b 526 64 493 -28 469 64 b 600 47 563 64 556 47 b 694 365 694 47 694 285 l 694 1042 l 511 1042 l 511 244 b 433 67 511 125 485 67 b 396 161 399 67 386 99 b 335 274 408 243 367 265 b 283 321 290 285 283 299 b 335 364 283 342 300 356 b 464 506 392 378 464 421 b 365 610 464 554 435 610 b 222 518 307 610 233 575 b 147 415 211 463 204 422 z m 417 1201 l 621 1068 l 621 1221 l 492 1310 l 340 1310 l 211 1221 l 211 1068 z "},"Ķ":{"ha":810,"x_min":0,"x_max":0,"o":"m 332 546 b 211 756 217 549 211 649 l 211 1042 l 28 1042 l 28 0 l 211 0 l 211 349 b 293 261 214 307 240 261 b 432 311 361 261 361 311 b 519 197 479 311 519 267 b 508 99 519 139 508 158 b 622 -19 508 33 547 -19 b 733 97 678 -19 733 13 b 689 250 733 181 689 201 b 731 307 689 276 700 292 b 782 386 769 326 782 354 b 700 463 782 433 740 463 b 479 399 613 463 610 399 b 389 469 431 399 389 425 b 465 542 389 510 418 542 b 551 528 501 542 508 528 b 633 599 599 528 633 563 b 568 776 633 697 568 675 b 689 943 568 860 682 843 b 589 1050 693 1004 651 1050 b 490 944 514 1050 490 999 b 382 832 490 890 476 832 b 304 760 336 832 304 804 b 365 681 304 718 329 692 b 418 615 410 667 418 635 b 332 546 418 564 375 544 z m 371 -267 b 307 -319 368 -314 335 -319 l 307 -386 b 456 -267 393 -386 433 -351 l 492 -136 l 378 -53 l 263 -136 l 307 -267 z "},"Ĺ":{"ha":789,"x_min":0,"x_max":0,"o":"m 28 0 l 28 1042 l 211 1042 l 211 174 l 761 174 l 761 0 z m 394 1181 l 394 1346 l 28 1097 l 253 1097 z "},"Ľ":{"ha":789,"x_min":0,"x_max":0,"o":"m 28 0 l 28 1042 l 211 1042 l 211 174 l 761 174 l 761 0 z m 429 896 b 356 822 425 836 392 822 l 356 749 b 522 914 458 753 486 788 l 561 1047 l 435 1139 l 307 1047 l 361 896 z "},"Ļ":{"ha":789,"x_min":0,"x_max":0,"o":"m 761 0 l 761 174 l 211 174 l 211 1042 l 28 1042 l 28 0 z m 388 -267 b 324 -319 385 -314 351 -319 l 324 -386 b 472 -267 410 -386 450 -351 l 508 -136 l 394 -53 l 279 -136 l 324 -267 z "},"Ŀ":{"ha":789,"x_min":0,"x_max":0,"o":"m 761 0 l 761 174 l 211 174 l 211 1042 l 28 1042 l 28 0 z m 624 565 l 482 667 l 342 565 l 394 403 l 569 403 z "},"Ł":{"ha":933,"x_min":0,"x_max":0,"o":"m 906 0 l 906 174 l 356 174 l 356 351 b 422 439 392 357 422 385 b 414 538 422 468 397 503 b 619 708 457 625 619 579 b 526 814 619 751 601 814 b 422 733 465 814 422 781 b 389 646 422 681 415 646 b 356 685 365 646 357 667 l 356 1042 l 172 1042 l 172 551 b 101 518 165 483 151 518 b 28 425 71 518 28 485 b 100 342 28 374 53 342 b 172 321 114 342 169 363 l 172 0 z "},"Ń":{"ha":803,"x_min":0,"x_max":0,"o":"m 208 0 l 208 721 b 281 807 208 763 225 807 b 343 732 315 807 343 769 b 217 497 343 640 217 638 b 336 368 217 407 265 368 b 497 447 429 368 424 447 b 571 365 526 447 571 428 b 481 257 571 292 535 257 b 399 175 425 257 399 217 b 486 92 399 131 436 99 b 593 29 551 83 593 74 l 593 0 l 775 0 l 775 1042 l 593 1042 l 593 582 b 531 628 589 606 553 628 b 388 531 450 628 446 531 b 353 583 365 531 353 550 b 435 713 353 611 358 657 b 531 892 489 751 531 815 b 401 1026 531 992 463 1026 b 265 956 319 1026 326 956 b 207 1014 231 956 207 975 l 207 1042 l 28 1042 l 28 0 z m 626 1181 l 626 1346 l 260 1097 l 485 1097 z "},"Ň":{"ha":803,"x_min":0,"x_max":0,"o":"m 208 0 l 208 721 b 281 807 208 763 225 807 b 343 732 315 807 343 769 b 217 497 343 640 217 638 b 336 368 217 407 265 368 b 497 447 429 368 424 447 b 571 365 526 447 571 428 b 481 257 571 292 535 257 b 399 175 425 257 399 217 b 486 92 399 131 436 99 b 593 29 551 83 593 74 l 593 0 l 775 0 l 775 1042 l 593 1042 l 593 582 b 531 628 589 606 553 628 b 388 531 450 628 446 531 b 353 583 365 531 353 550 b 435 713 353 611 358 657 b 531 892 489 751 531 815 b 401 1026 531 992 463 1026 b 265 956 319 1026 326 956 b 207 1014 231 956 207 975 l 207 1042 l 28 1042 l 28 0 z m 196 1339 l 196 1186 l 325 1097 l 476 1097 l 606 1186 l 606 1339 l 401 1206 z "},"Ñ":{"ha":803,"x_min":0,"x_max":0,"o":"m 208 0 l 208 721 b 281 807 208 763 225 807 b 343 732 315 807 343 769 b 217 497 343 640 217 638 b 336 368 217 407 265 368 b 497 447 429 368 424 447 b 571 365 526 447 571 428 b 481 257 571 292 535 257 b 399 175 425 257 399 217 b 486 92 399 131 436 99 b 593 29 551 83 593 74 l 593 0 l 775 0 l 775 1042 l 593 1042 l 593 582 b 531 628 589 606 553 628 b 388 531 450 628 446 531 b 353 583 365 531 353 550 b 435 713 353 611 358 657 b 531 892 489 751 531 815 b 401 1026 531 992 463 1026 b 265 956 319 1026 326 956 b 207 1014 231 956 207 975 l 207 1042 l 28 1042 l 28 0 z m 500 1090 b 606 1135 542 1090 576 1106 l 606 1278 b 503 1219 585 1250 560 1219 b 301 1282 449 1219 368 1282 b 196 1238 260 1282 225 1267 l 196 1094 b 299 1153 217 1122 242 1153 b 500 1090 351 1153 433 1090 z "},"Ņ":{"ha":803,"x_min":0,"x_max":0,"o":"m 208 0 l 208 721 b 281 807 208 763 225 807 b 343 732 315 807 343 769 b 217 497 343 640 217 638 b 336 368 217 407 265 368 b 497 447 429 368 424 447 b 571 365 526 447 571 428 b 481 257 571 292 535 257 b 399 175 425 257 399 217 b 486 92 399 131 436 99 b 593 29 551 83 593 74 l 593 0 l 775 0 l 775 1042 l 593 1042 l 593 582 b 531 628 589 606 553 628 b 388 531 450 628 446 531 b 353 583 365 531 353 550 b 435 713 353 611 358 657 b 531 892 489 751 531 815 b 401 1026 531 992 463 1026 b 265 956 319 1026 326 956 b 207 1014 231 956 207 975 l 207 1042 l 28 1042 l 28 0 z m 394 -267 b 331 -319 392 -314 358 -319 l 331 -386 b 479 -267 417 -386 457 -351 l 515 -136 l 401 -53 l 286 -136 l 331 -267 z "},"Ò":{"ha":1050,"x_min":0,"x_max":0,"o":"m 553 -12 b 990 264 729 -12 990 64 b 957 447 990 363 957 371 b 1022 717 957 528 1022 572 b 574 1056 1022 913 869 1056 b 260 836 418 1056 260 996 b 28 561 260 651 28 751 b 153 304 28 415 153 435 b 553 -12 153 90 244 -12 z m 363 322 b 229 507 363 426 229 413 b 483 706 229 664 483 551 b 439 860 483 761 439 808 b 606 976 439 936 507 981 b 833 769 706 971 833 910 b 726 472 833 660 726 649 b 803 235 726 356 803 336 b 546 38 803 76 654 38 b 329 176 418 38 329 94 b 363 322 329 253 363 260 z m 497 1097 l 722 1097 l 356 1346 l 356 1181 z "},"Ó":{"ha":1050,"x_min":0,"x_max":0,"o":"m 553 -12 b 153 304 244 -12 153 90 b 28 561 153 435 28 415 b 260 836 28 751 260 651 b 574 1056 260 996 418 1056 b 1022 717 869 1056 1022 913 b 957 447 1022 572 957 528 b 990 264 957 371 990 363 b 553 -12 990 64 729 -12 z m 363 322 b 329 176 363 260 329 253 b 546 38 329 94 418 38 b 803 235 654 38 803 76 b 726 472 803 336 726 356 b 833 769 726 649 833 660 b 606 976 833 910 706 971 b 439 860 507 981 439 936 b 483 706 439 808 483 761 b 229 507 483 551 229 664 b 363 322 229 413 363 426 z m 861 1181 l 861 1346 l 494 1097 l 719 1097 z "},"Ô":{"ha":1050,"x_min":0,"x_max":0,"o":"m 553 -12 b 990 264 729 -12 990 64 b 957 447 990 363 957 371 b 1022 717 957 528 1022 572 b 574 1056 1022 913 869 1056 b 260 836 418 1056 260 996 b 28 561 260 651 28 751 b 153 304 28 415 153 435 b 553 -12 153 90 244 -12 z m 363 322 b 229 507 363 426 229 413 b 483 706 229 664 483 551 b 439 860 483 761 439 808 b 606 976 439 936 507 981 b 833 769 706 971 833 910 b 726 472 833 660 726 649 b 803 235 726 356 803 336 b 546 38 803 76 654 38 b 329 176 418 38 329 94 b 363 322 329 253 363 260 z m 594 1201 l 799 1068 l 799 1221 l 669 1310 l 518 1310 l 389 1221 l 389 1068 z "},"Õ":{"ha":1050,"x_min":0,"x_max":0,"o":"m 553 -12 b 153 304 244 -12 153 90 b 28 561 153 435 28 415 b 260 836 28 751 260 651 b 574 1056 260 996 418 1056 b 1022 717 869 1056 1022 913 b 957 447 1022 572 957 528 b 990 264 957 371 990 363 b 553 -12 990 64 729 -12 z m 363 322 b 329 176 363 260 329 253 b 546 38 329 94 418 38 b 803 235 654 38 803 76 b 726 472 803 336 726 356 b 833 769 726 649 833 660 b 606 976 833 910 706 971 b 439 860 507 981 439 936 b 483 706 439 808 483 761 b 229 507 483 551 229 664 b 363 322 229 413 363 426 z m 679 1090 b 785 1135 721 1090 756 1106 l 785 1278 b 682 1219 764 1250 739 1219 b 481 1282 628 1219 547 1282 b 375 1238 439 1282 404 1267 l 375 1094 b 478 1153 396 1122 421 1153 b 679 1090 531 1153 613 1090 z "},"Ö":{"ha":1050,"x_min":0,"x_max":0,"o":"m 553 -12 b 153 304 244 -12 153 90 b 28 561 153 435 28 415 b 260 836 28 751 260 651 b 574 1056 260 996 418 1056 b 1022 717 869 1056 1022 913 b 957 447 1022 572 957 528 b 990 264 957 371 990 363 b 553 -12 990 64 729 -12 z m 363 322 b 329 176 363 260 329 253 b 546 38 329 94 418 38 b 803 235 654 38 803 76 b 726 472 803 336 726 356 b 833 769 726 649 833 660 b 606 976 833 910 706 971 b 439 860 507 981 439 936 b 483 706 439 808 483 761 b 229 507 483 551 229 664 b 363 322 229 413 363 426 z m 547 1300 l 408 1300 l 365 1169 l 478 1089 l 592 1169 z m 774 1300 l 635 1300 l 592 1169 l 704 1089 l 818 1169 z "},"Ō":{"ha":1050,"x_min":0,"x_max":0,"o":"m 553 -12 b 153 304 244 -12 153 90 b 28 561 153 435 28 415 b 260 836 28 751 260 651 b 574 1056 260 996 418 1056 b 1022 717 869 1056 1022 913 b 957 447 1022 572 957 528 b 990 264 957 371 990 363 b 553 -12 990 64 729 -12 z m 363 322 b 329 176 363 260 329 253 b 546 38 329 94 418 38 b 803 235 654 38 803 76 b 726 472 803 336 726 356 b 833 769 726 649 833 660 b 606 976 833 910 706 971 b 439 860 507 981 439 936 b 483 706 439 808 483 761 b 229 507 483 551 229 664 b 363 322 229 413 363 426 z m 388 1126 l 797 1126 l 797 1258 l 388 1258 z "},"Ŏ":{"ha":1050,"x_min":0,"x_max":0,"o":"m 553 -12 b 990 264 729 -12 990 64 b 957 447 990 363 957 371 b 1022 717 957 528 1022 572 b 574 1056 1022 913 869 1056 b 260 836 418 1056 260 996 b 28 561 260 651 28 751 b 153 304 28 415 153 435 b 553 -12 153 90 244 -12 z m 363 322 b 229 507 363 426 229 413 b 483 706 229 664 483 551 b 439 860 483 761 439 808 b 606 976 439 936 507 981 b 833 769 706 971 833 910 b 726 472 833 660 726 649 b 803 235 726 356 803 336 b 546 38 803 76 654 38 b 329 176 418 38 329 94 b 363 322 329 253 363 260 z m 593 1214 b 518 1292 550 1214 522 1246 l 382 1292 b 593 1089 386 1165 474 1089 b 806 1292 713 1089 801 1165 l 669 1292 b 593 1214 665 1246 636 1214 z "},"Ő":{"ha":1050,"x_min":0,"x_max":0,"o":"m 553 -12 b 153 304 244 -12 153 90 b 28 561 153 435 28 415 b 260 836 28 751 260 651 b 574 1056 260 996 418 1056 b 1022 717 869 1056 1022 913 b 957 447 1022 572 957 528 b 990 264 957 371 990 363 b 553 -12 990 64 729 -12 z m 363 322 b 329 176 363 260 329 253 b 546 38 329 94 418 38 b 803 235 654 38 803 76 b 726 472 803 336 726 356 b 833 769 726 649 833 660 b 606 976 833 910 706 971 b 439 860 507 981 439 936 b 483 706 439 808 483 761 b 229 507 483 551 229 664 b 363 322 229 413 363 426 z m 665 1179 l 665 1338 l 365 1097 l 554 1097 z m 907 1179 l 907 1338 l 601 1097 l 790 1097 z "},"Ǿ":{"ha":1051,"x_min":0,"x_max":0,"o":"m 528 -12 b 897 304 806 -11 872 92 b 1022 561 913 432 1026 415 b 790 836 1017 767 783 625 b 476 1056 796 996 632 1056 b 28 642 181 1056 28 850 b 78 425 28 568 78 506 b 72 189 78 357 39 281 b 528 -12 126 42 296 -14 z m 650 801 b 575 724 651 769 618 724 b 450 756 532 724 497 756 b 317 629 363 756 317 704 b 403 386 317 533 403 471 b 336 317 403 340 368 317 b 267 515 211 317 254 449 b 217 788 296 665 217 678 b 460 976 217 928 360 971 b 650 801 588 982 647 901 z m 821 507 b 697 314 804 414 697 418 b 721 182 697 272 721 228 b 525 43 721 100 653 43 b 288 158 426 43 288 71 b 369 240 288 197 324 240 b 576 256 433 240 540 167 b 538 543 608 333 538 458 b 665 679 538 633 568 676 b 821 507 757 682 838 600 z m 708 1181 l 708 1346 l 342 1097 l 567 1097 z "},"Ŕ":{"ha":760,"x_min":0,"x_max":0,"o":"m 28 1042 l 28 0 l 211 0 l 211 276 b 258 264 226 268 242 264 b 438 350 333 264 363 350 b 536 260 490 350 536 310 b 414 46 536 160 404 160 b 522 -25 417 8 464 -25 b 732 257 663 -25 732 150 b 554 404 732 407 601 410 b 439 485 461 393 439 442 b 724 811 439 646 724 488 b 440 1061 724 1001 576 1061 b 211 1042 310 1061 225 972 z m 289 465 b 211 579 251 465 211 503 l 211 732 b 388 963 211 900 304 963 b 553 818 483 963 551 894 b 435 710 554 717 499 696 b 328 633 386 719 328 710 b 289 465 328 583 375 465 z m 576 1181 l 576 1346 l 210 1097 l 435 1097 z "},"Ř":{"ha":760,"x_min":0,"x_max":0,"o":"m 28 1042 l 28 0 l 211 0 l 211 276 b 258 264 226 268 242 264 b 438 350 333 264 363 350 b 536 260 490 350 536 310 b 414 46 536 160 404 160 b 522 -25 417 8 464 -25 b 732 257 663 -25 732 150 b 554 404 732 407 601 410 b 439 485 461 393 439 442 b 724 811 439 646 724 488 b 440 1061 724 1001 576 1061 b 211 1042 310 1061 225 972 z m 289 465 b 211 579 251 465 211 503 l 211 732 b 388 963 211 900 304 963 b 553 818 483 963 551 894 b 435 710 554 717 499 696 b 328 633 386 719 328 710 b 289 465 328 583 375 465 z m 147 1339 l 147 1186 l 276 1097 l 428 1097 l 557 1186 l 557 1339 l 353 1206 z "},"Ŗ":{"ha":760,"x_min":0,"x_max":0,"o":"m 28 1042 l 28 0 l 211 0 l 211 276 b 258 264 226 268 242 264 b 438 350 333 264 363 350 b 536 260 490 350 536 310 b 414 46 536 160 404 160 b 522 -25 417 8 464 -25 b 732 257 663 -25 732 150 b 554 404 732 407 601 410 b 439 485 461 393 439 442 b 724 811 439 646 724 488 b 440 1061 724 1001 576 1061 b 211 1042 310 1061 225 972 z m 289 465 b 211 579 251 465 211 503 l 211 732 b 388 963 211 900 304 963 b 553 818 483 963 551 894 b 435 710 554 717 499 696 b 328 633 386 719 328 710 b 289 465 328 583 375 465 z m 346 -267 b 282 -319 343 -314 310 -319 l 282 -386 b 431 -267 368 -386 408 -351 l 467 -136 l 353 -53 l 238 -136 l 282 -267 z "},"Ś":{"ha":853,"x_min":0,"x_max":0,"o":"m 267 772 b 442 625 254 681 349 625 b 654 660 518 625 583 660 b 825 474 756 660 825 568 b 707 164 825 338 707 353 b 463 -22 707 26 569 -22 b 246 108 392 -22 303 6 b 28 354 188 214 28 203 b 165 468 28 418 76 468 b 354 278 272 468 353 378 b 426 140 356 210 361 140 b 479 235 476 140 489 175 b 658 475 451 410 668 329 b 549 578 653 558 604 578 b 315 488 461 578 418 488 b 161 629 231 488 161 549 b 221 794 161 703 221 728 b 199 900 221 833 199 864 b 335 1044 199 974 249 1044 b 468 1013 385 1044 428 1013 b 607 1060 515 1013 547 1060 b 744 942 663 1060 744 1033 b 604 803 744 853 674 803 b 390 868 539 803 486 868 b 267 772 332 868 276 843 z m 707 1181 l 707 1346 l 340 1097 l 565 1097 z "},"Ŝ":{"ha":853,"x_min":0,"x_max":0,"o":"m 267 772 b 390 868 276 843 332 868 b 604 803 486 868 539 803 b 744 942 674 803 744 853 b 607 1060 744 1033 663 1060 b 468 1013 547 1060 515 1013 b 335 1044 428 1013 385 1044 b 199 900 249 1044 199 974 b 221 794 199 864 221 833 b 161 629 221 728 161 703 b 315 488 161 549 231 488 b 549 578 418 488 461 578 b 658 475 604 578 653 558 b 479 235 668 329 451 410 b 426 140 489 175 476 140 b 354 278 361 140 356 210 b 165 468 353 378 272 468 b 28 354 76 468 28 418 b 246 108 28 203 188 214 b 463 -22 303 6 392 -22 b 707 164 569 -22 707 26 b 825 474 707 353 825 338 b 654 660 825 568 756 660 b 442 625 583 660 518 625 b 267 772 349 625 254 681 z m 468 1201 l 672 1068 l 672 1221 l 543 1310 l 392 1310 l 263 1221 l 263 1068 z "},"Š":{"ha":853,"x_min":0,"x_max":0,"o":"m 267 772 b 390 868 276 843 332 868 b 604 803 486 868 539 803 b 744 942 674 803 744 853 b 607 1060 744 1033 663 1060 b 468 1013 547 1060 515 1013 b 335 1044 428 1013 385 1044 b 199 900 249 1044 199 974 b 221 794 199 864 221 833 b 161 629 221 728 161 703 b 315 488 161 549 231 488 b 549 578 418 488 461 578 b 658 475 604 578 653 558 b 479 235 668 329 451 410 b 426 140 489 175 476 140 b 354 278 361 140 356 210 b 165 468 353 378 272 468 b 28 354 76 468 28 418 b 246 108 28 203 188 214 b 463 -22 303 6 392 -22 b 707 164 569 -22 707 26 b 825 474 707 353 825 338 b 654 660 825 568 756 660 b 442 625 583 660 518 625 b 267 772 349 625 254 681 z m 263 1339 l 263 1186 l 392 1097 l 543 1097 l 672 1186 l 672 1339 l 468 1206 z "},"Ş":{"ha":853,"x_min":0,"x_max":0,"o":"m 304 -299 b 435 -328 333 -315 383 -328 b 604 -174 521 -328 604 -276 b 506 -47 604 -101 553 -58 l 506 -19 b 707 164 603 -8 707 44 b 825 474 707 353 825 338 b 654 660 825 568 756 660 b 442 625 583 660 518 625 b 267 772 349 625 254 681 b 390 868 276 843 332 868 b 604 803 486 868 539 803 b 744 942 674 803 744 853 b 607 1060 744 1033 663 1060 b 468 1013 547 1060 515 1013 b 335 1044 428 1013 385 1044 b 199 900 249 1044 199 974 b 221 794 199 864 221 833 b 161 629 221 728 161 703 b 315 488 161 549 231 488 b 549 578 418 488 461 578 b 658 475 604 578 653 558 b 479 235 668 329 451 410 b 426 140 489 175 476 140 b 354 278 361 140 356 210 b 165 468 353 378 272 468 b 28 354 76 468 28 418 b 246 108 28 203 188 214 b 374 -7 281 46 326 10 l 374 -128 b 464 -165 436 -121 464 -137 b 419 -201 464 -189 444 -201 b 343 -171 378 -201 343 -171 z "},"Ș":{"ha":853,"x_min":0,"x_max":0,"o":"m 267 772 b 390 868 276 843 332 868 b 604 803 486 868 539 803 b 744 942 674 803 744 853 b 607 1060 744 1033 663 1060 b 468 1013 547 1060 515 1013 b 335 1044 428 1013 385 1044 b 199 900 249 1044 199 974 b 221 794 199 864 221 833 b 161 629 221 728 161 703 b 315 488 161 549 231 488 b 549 578 418 488 461 578 b 658 475 604 578 653 558 b 479 235 668 329 451 410 b 426 140 489 175 476 140 b 354 278 361 140 356 210 b 165 468 353 378 272 468 b 28 354 76 468 28 418 b 246 108 28 203 188 214 b 463 -22 303 6 392 -22 b 707 164 569 -22 707 26 b 825 474 707 353 825 338 b 654 660 825 568 756 660 b 442 625 583 660 518 625 b 267 772 349 625 254 681 z m 447 -267 b 383 -319 444 -314 411 -319 l 383 -386 b 532 -267 469 -386 510 -351 l 568 -136 l 454 -53 l 339 -136 l 383 -267 z "},"Ť":{"ha":789,"x_min":0,"x_max":0,"o":"m 28 868 l 303 868 l 303 0 l 486 0 l 486 868 l 761 868 l 761 1042 l 28 1042 z m 192 1339 l 192 1186 l 321 1097 l 472 1097 l 601 1186 l 601 1339 l 397 1206 z "},"Ţ":{"ha":789,"x_min":0,"x_max":0,"o":"m 263 -299 b 393 -328 292 -315 342 -328 b 563 -174 479 -328 563 -276 b 464 -47 563 -101 511 -58 l 464 0 l 486 0 l 486 868 l 761 868 l 761 1042 l 28 1042 l 28 868 l 303 868 l 303 0 l 332 0 l 332 -128 b 422 -165 394 -121 422 -137 b 378 -201 422 -189 403 -201 b 301 -171 336 -201 301 -171 z "},"Ț":{"ha":789,"x_min":0,"x_max":0,"o":"m 28 868 l 303 868 l 303 0 l 486 0 l 486 868 l 761 868 l 761 1042 l 28 1042 z m 388 -267 b 324 -319 385 -314 351 -319 l 324 -386 b 472 -267 410 -386 450 -351 l 508 -136 l 394 -53 l 279 -136 l 324 -267 z "},"Ŧ":{"ha":789,"x_min":0,"x_max":0,"o":"m 154 435 l 303 435 l 303 0 l 486 0 l 486 435 l 633 435 l 633 608 l 486 608 l 486 868 l 761 868 l 761 1042 l 28 1042 l 28 868 l 303 868 l 303 608 l 154 608 z "},"Ù":{"ha":790,"x_min":0,"x_max":0,"o":"m 158 121 b 413 -28 289 121 251 -28 b 661 40 563 -28 514 40 b 763 260 753 40 763 153 l 763 1042 l 579 1042 l 579 315 b 531 171 579 229 574 171 b 421 193 468 171 475 193 b 296 149 367 193 369 149 b 213 476 200 149 213 308 l 213 1042 l 29 1042 l 29 315 b 158 121 29 258 32 121 z m 339 1097 l 564 1097 l 197 1346 l 197 1181 z "},"Ú":{"ha":790,"x_min":0,"x_max":0,"o":"m 158 121 b 29 315 32 121 29 258 l 29 1042 l 213 1042 l 213 476 b 296 149 213 308 200 149 b 421 193 369 149 367 193 b 531 171 475 193 468 171 b 579 315 574 171 579 229 l 579 1042 l 763 1042 l 763 260 b 661 40 763 153 753 40 b 413 -28 514 40 563 -28 b 158 121 251 -28 289 121 z m 633 1181 l 633 1346 l 267 1097 l 492 1097 z "},"Û":{"ha":790,"x_min":0,"x_max":0,"o":"m 158 121 b 413 -28 289 121 251 -28 b 661 40 563 -28 514 40 b 763 260 753 40 763 153 l 763 1042 l 579 1042 l 579 315 b 531 171 579 229 574 171 b 421 193 468 171 475 193 b 296 149 367 193 369 149 b 213 476 200 149 213 308 l 213 1042 l 29 1042 l 29 315 b 158 121 29 258 32 121 z m 396 1201 l 600 1068 l 600 1221 l 471 1310 l 319 1310 l 190 1221 l 190 1068 z "},"Ũ":{"ha":790,"x_min":0,"x_max":0,"o":"m 158 121 b 29 315 32 121 29 258 l 29 1042 l 213 1042 l 213 476 b 296 149 213 308 200 149 b 421 193 369 149 367 193 b 531 171 475 193 468 171 b 579 315 574 171 579 229 l 579 1042 l 763 1042 l 763 260 b 661 40 763 153 753 40 b 413 -28 514 40 563 -28 b 158 121 251 -28 289 121 z m 494 1090 b 600 1135 536 1090 571 1106 l 600 1278 b 497 1219 579 1250 554 1219 b 296 1282 443 1219 363 1282 b 190 1238 254 1282 219 1267 l 190 1094 b 293 1153 211 1122 236 1153 b 494 1090 346 1153 428 1090 z "},"Ü":{"ha":790,"x_min":0,"x_max":0,"o":"m 158 121 b 29 315 32 121 29 258 l 29 1042 l 213 1042 l 213 476 b 296 149 213 308 200 149 b 421 193 369 149 367 193 b 531 171 475 193 468 171 b 579 315 574 171 579 229 l 579 1042 l 763 1042 l 763 260 b 661 40 763 153 753 40 b 413 -28 514 40 563 -28 b 158 121 251 -28 289 121 z m 576 1300 l 438 1300 l 394 1169 l 507 1089 l 621 1169 z m 350 1300 l 211 1300 l 168 1169 l 281 1089 l 394 1169 z "},"Ū":{"ha":790,"x_min":0,"x_max":0,"o":"m 158 121 b 29 315 32 121 29 258 l 29 1042 l 213 1042 l 213 476 b 296 149 213 308 200 149 b 421 193 369 149 367 193 b 531 171 475 193 468 171 b 579 315 574 171 579 229 l 579 1042 l 763 1042 l 763 260 b 661 40 763 153 753 40 b 413 -28 514 40 563 -28 b 158 121 251 -28 289 121 z m 190 1126 l 600 1126 l 600 1258 l 190 1258 z "},"Ŭ":{"ha":790,"x_min":0,"x_max":0,"o":"m 158 121 b 413 -28 289 121 251 -28 b 661 40 563 -28 514 40 b 763 260 753 40 763 153 l 763 1042 l 579 1042 l 579 315 b 531 171 579 229 574 171 b 421 193 468 171 475 193 b 296 149 367 193 369 149 b 213 476 200 149 213 308 l 213 1042 l 29 1042 l 29 315 b 158 121 29 258 32 121 z m 394 1214 b 319 1292 351 1214 324 1246 l 183 1292 b 394 1089 188 1165 275 1089 b 607 1292 514 1089 603 1165 l 471 1292 b 394 1214 467 1246 438 1214 z "},"Ů":{"ha":790,"x_min":0,"x_max":0,"o":"m 158 121 b 413 -28 289 121 251 -28 b 661 40 563 -28 514 40 b 763 260 753 40 763 153 l 763 1042 l 579 1042 l 579 315 b 531 171 579 229 574 171 b 421 193 468 171 475 193 b 296 149 367 193 369 149 b 213 476 200 149 213 308 l 213 1042 l 29 1042 l 29 315 b 158 121 29 258 32 121 z m 240 1228 b 394 1074 240 1143 310 1074 b 549 1228 479 1074 549 1143 b 394 1382 549 1313 479 1382 b 240 1228 310 1382 240 1313 z m 340 1228 b 394 1282 340 1258 364 1282 b 449 1228 425 1282 449 1258 b 394 1174 449 1197 425 1174 b 340 1228 364 1174 340 1197 z "},"Ű":{"ha":790,"x_min":0,"x_max":0,"o":"m 158 121 b 29 315 32 121 29 258 l 29 1042 l 213 1042 l 213 476 b 296 149 213 308 200 149 b 421 193 369 149 367 193 b 531 171 475 193 468 171 b 579 315 574 171 579 229 l 579 1042 l 763 1042 l 763 260 b 661 40 763 153 753 40 b 413 -28 514 40 563 -28 b 158 121 251 -28 289 121 z m 693 1179 l 693 1338 l 388 1097 l 576 1097 z m 451 1179 l 451 1338 l 151 1097 l 340 1097 z "},"Ų":{"ha":790,"x_min":0,"x_max":0,"o":"m 651 -151 b 603 -175 635 -165 619 -175 b 575 -146 585 -175 575 -164 l 575 28 b 661 40 594 35 619 40 b 763 260 753 40 763 153 l 763 1042 l 579 1042 l 579 315 b 531 171 579 229 574 171 b 421 193 468 171 475 193 b 296 149 367 193 369 149 b 213 476 200 149 213 308 l 213 1042 l 29 1042 l 29 315 b 158 121 29 258 32 121 b 413 -28 289 121 251 -28 b 431 -26 418 -28 425 -26 l 431 -165 b 586 -321 431 -267 486 -321 b 721 -271 638 -321 682 -303 z "},"Ẁ":{"ha":1306,"x_min":0,"x_max":0,"o":"m 1117 482 b 1278 590 1219 478 1278 525 b 1143 906 1278 681 1179 674 b 983 1051 1128 1004 1068 1064 b 871 906 892 1038 854 960 b 1117 682 908 783 1117 815 b 1063 619 1117 646 1093 619 b 928 653 1010 619 976 669 b 879 583 892 640 879 615 b 965 249 879 472 965 361 b 863 122 965 149 911 122 b 757 296 769 122 757 213 b 851 669 757 469 851 586 b 749 757 851 744 808 757 b 706 897 681 757 700 860 b 556 1044 717 979 672 1049 b 365 778 482 1042 365 994 b 419 443 365 661 419 556 b 304 283 419 358 394 268 b 222 403 251 292 222 340 b 331 785 222 528 331 646 b 231 917 331 857 304 914 b 113 828 165 922 113 883 b 178 628 113 764 178 706 b 29 403 176 511 28 524 b 161 121 31 292 172 346 b 285 -17 156 25 222 -17 b 411 67 338 -17 401 -3 b 560 322 433 228 560 196 b 479 642 560 422 479 517 b 567 765 479 710 503 765 b 654 660 619 765 654 732 b 557 482 654 571 551 590 b 672 242 563 367 701 419 b 860 -33 635 17 786 -33 b 1088 168 1033 -33 1088 60 b 1035 383 1088 242 1035 322 b 1117 482 1035 443 1051 485 z m 569 1097 l 794 1097 l 428 1346 l 428 1181 z "},"Ẃ":{"ha":1306,"x_min":0,"x_max":0,"o":"m 1117 482 b 1278 590 1219 478 1278 525 b 1143 906 1278 681 1179 674 b 983 1051 1128 1004 1068 1064 b 871 906 892 1038 854 960 b 1117 682 908 783 1117 815 b 1063 619 1117 646 1093 619 b 928 653 1010 619 976 669 b 879 583 892 640 879 615 b 965 249 879 472 965 361 b 863 122 965 149 911 122 b 757 296 769 122 757 213 b 851 669 757 469 851 586 b 749 757 851 744 808 757 b 706 897 681 757 700 860 b 556 1044 717 979 672 1049 b 365 778 482 1042 365 994 b 419 443 365 661 419 556 b 304 283 419 358 394 268 b 222 403 251 292 222 340 b 331 785 222 528 331 646 b 231 917 331 857 304 914 b 113 828 165 922 113 883 b 178 628 113 764 178 706 b 29 403 176 511 28 524 b 161 121 31 292 172 346 b 285 -17 156 25 222 -17 b 411 67 338 -17 401 -3 b 560 322 433 228 560 196 b 479 642 560 422 479 517 b 567 765 479 710 503 765 b 654 660 619 765 654 732 b 557 482 654 571 551 590 b 672 242 563 367 701 419 b 860 -33 635 17 786 -33 b 1088 168 1033 -33 1088 60 b 1035 383 1088 242 1035 322 b 1117 482 1035 443 1051 485 z m 836 1181 l 836 1346 l 469 1097 l 694 1097 z "},"Ŵ":{"ha":1306,"x_min":0,"x_max":0,"o":"m 1117 482 b 1278 590 1219 478 1278 525 b 1143 906 1278 681 1179 674 b 983 1051 1128 1004 1068 1064 b 871 906 892 1038 854 960 b 1117 682 908 783 1117 815 b 1063 619 1117 646 1093 619 b 928 653 1010 619 976 669 b 879 583 892 640 879 615 b 965 249 879 472 965 361 b 863 122 965 149 911 122 b 757 296 769 122 757 213 b 851 669 757 469 851 586 b 749 757 851 744 808 757 b 706 897 681 757 700 860 b 556 1044 717 979 672 1049 b 365 778 482 1042 365 994 b 419 443 365 661 419 556 b 304 283 419 358 394 268 b 222 403 251 292 222 340 b 331 785 222 528 331 646 b 231 917 331 857 304 914 b 113 828 165 922 113 883 b 178 628 113 764 178 706 b 29 403 176 511 28 524 b 161 121 31 292 172 346 b 285 -17 156 25 222 -17 b 411 67 338 -17 401 -3 b 560 322 433 228 560 196 b 479 642 560 422 479 517 b 567 765 479 710 503 765 b 654 660 619 765 654 732 b 557 482 654 571 551 590 b 672 242 563 367 701 419 b 860 -33 635 17 786 -33 b 1088 168 1033 -33 1088 60 b 1035 383 1088 242 1035 322 b 1117 482 1035 443 1051 485 z m 625 1201 l 829 1068 l 829 1221 l 700 1310 l 549 1310 l 419 1221 l 419 1068 z "},"Ẅ":{"ha":1306,"x_min":0,"x_max":0,"o":"m 1117 482 b 1278 590 1219 478 1278 525 b 1143 906 1278 681 1179 674 b 983 1051 1128 1004 1068 1064 b 871 906 892 1038 854 960 b 1117 682 908 783 1117 815 b 1063 619 1117 646 1093 619 b 928 653 1010 619 976 669 b 879 583 892 640 879 615 b 965 249 879 472 965 361 b 863 122 965 149 911 122 b 757 296 769 122 757 213 b 851 669 757 469 851 586 b 749 757 851 744 808 757 b 706 897 681 757 700 860 b 556 1044 717 979 672 1049 b 365 778 482 1042 365 994 b 419 443 365 661 419 556 b 304 283 419 358 394 268 b 222 403 251 292 222 340 b 331 785 222 528 331 646 b 231 917 331 857 304 914 b 113 828 165 922 113 883 b 178 628 113 764 178 706 b 29 403 176 511 28 524 b 161 121 31 292 172 346 b 285 -17 156 25 222 -17 b 411 67 338 -17 401 -3 b 560 322 433 228 560 196 b 479 642 560 422 479 517 b 567 765 479 710 503 765 b 654 660 619 765 654 732 b 557 482 654 571 551 590 b 672 242 563 367 701 419 b 860 -33 635 17 786 -33 b 1088 168 1033 -33 1088 60 b 1035 383 1088 242 1035 322 b 1117 482 1035 443 1051 485 z m 807 1300 l 668 1300 l 625 1169 l 738 1089 l 851 1169 z m 581 1300 l 442 1300 l 399 1169 l 511 1089 l 625 1169 z "},"Ỳ":{"ha":932,"x_min":0,"x_max":0,"o":"m 131 940 b 149 843 131 906 149 879 b 29 683 149 765 32 783 b 154 590 28 618 88 590 b 254 611 201 590 222 611 b 300 560 281 611 300 589 b 251 506 300 535 285 506 b 207 463 226 506 207 492 b 290 415 207 419 249 415 b 331 357 313 415 331 400 l 331 0 l 514 0 l 514 360 b 576 506 514 449 518 486 b 756 619 626 522 746 464 b 799 682 757 650 771 682 b 903 756 869 682 900 703 b 751 904 907 840 782 828 b 608 1083 731 957 733 1083 b 489 972 549 1083 489 1047 b 703 799 489 826 703 899 b 571 733 703 739 632 765 b 518 567 500 696 514 607 b 453 481 522 524 503 481 b 371 557 397 481 367 511 b 396 701 375 614 419 625 b 269 818 368 792 300 732 b 275 940 258 851 275 897 b 200 1028 275 979 261 1028 b 131 940 147 1028 131 981 z m 326 1097 l 551 1097 l 185 1346 l 185 1181 z "},"Ý":{"ha":932,"x_min":0,"x_max":0,"o":"m 131 940 b 200 1028 131 981 147 1028 b 275 940 261 1028 275 979 b 269 818 275 897 258 851 b 396 701 300 732 368 792 b 371 557 419 625 375 614 b 453 481 367 511 397 481 b 518 567 503 481 522 524 b 571 733 514 607 500 696 b 703 799 632 765 703 739 b 489 972 703 899 489 826 b 608 1083 489 1047 549 1083 b 751 904 733 1083 731 957 b 903 756 782 828 907 840 b 799 682 900 703 869 682 b 756 619 771 682 757 650 b 576 506 746 464 626 522 b 514 360 518 486 514 449 l 514 0 l 331 0 l 331 357 b 290 415 331 400 313 415 b 207 463 249 415 207 419 b 251 506 207 492 226 506 b 300 560 285 506 300 535 b 254 611 300 589 281 611 b 154 590 222 611 201 590 b 29 683 88 590 28 618 b 149 843 32 783 149 765 b 131 940 149 879 131 906 z m 649 1181 l 649 1346 l 282 1097 l 507 1097 z "},"Ŷ":{"ha":932,"x_min":0,"x_max":0,"o":"m 131 940 b 149 843 131 906 149 879 b 29 683 149 765 32 783 b 154 590 28 618 88 590 b 254 611 201 590 222 611 b 300 560 281 611 300 589 b 251 506 300 535 285 506 b 207 463 226 506 207 492 b 290 415 207 419 249 415 b 331 357 313 415 331 400 l 331 0 l 514 0 l 514 360 b 576 506 514 449 518 486 b 756 619 626 522 746 464 b 799 682 757 650 771 682 b 903 756 869 682 900 703 b 751 904 907 840 782 828 b 608 1083 731 957 733 1083 b 489 972 549 1083 489 1047 b 703 799 489 826 703 899 b 571 733 703 739 632 765 b 518 567 500 696 514 607 b 453 481 522 524 503 481 b 371 557 397 481 367 511 b 396 701 375 614 419 625 b 269 818 368 792 300 732 b 275 940 258 851 275 897 b 200 1028 275 979 261 1028 b 131 940 147 1028 131 981 z m 300 1201 l 504 1068 l 504 1221 l 375 1310 l 224 1310 l 94 1221 l 94 1068 z "},"Ÿ":{"ha":932,"x_min":0,"x_max":0,"o":"m 131 940 b 200 1028 131 981 147 1028 b 275 940 261 1028 275 979 b 269 818 275 897 258 851 b 396 701 300 732 368 792 b 371 557 419 625 375 614 b 453 481 367 511 397 481 b 518 567 503 481 522 524 b 571 733 514 607 500 696 b 703 799 632 765 703 739 b 489 972 703 899 489 826 b 608 1083 489 1047 549 1083 b 751 904 733 1083 731 957 b 903 756 782 828 907 840 b 799 682 900 703 869 682 b 756 619 771 682 757 650 b 576 506 746 464 626 522 b 514 360 518 486 514 449 l 514 0 l 331 0 l 331 357 b 290 415 331 400 313 415 b 207 463 249 415 207 419 b 251 506 207 492 226 506 b 300 560 285 506 300 535 b 254 611 300 589 281 611 b 154 590 222 611 201 590 b 29 683 88 590 28 618 b 149 843 32 783 149 765 b 131 940 149 879 131 906 z m 606 1300 l 467 1300 l 424 1169 l 536 1089 l 650 1169 z m 379 1300 l 240 1300 l 197 1169 l 310 1089 l 424 1169 z "},"Ź":{"ha":715,"x_min":0,"x_max":0,"o":"m 53 174 b 28 232 38 192 28 201 b 161 407 28 318 161 317 b 74 531 161 469 74 461 b 161 615 74 583 106 615 b 272 576 210 615 233 576 b 331 633 313 576 344 589 b 438 721 311 694 364 743 b 517 751 492 704 517 725 b 475 831 517 786 475 775 b 489 868 475 849 479 856 l 61 868 l 61 1042 l 688 1042 l 688 869 b 563 671 688 714 563 740 b 610 546 563 596 610 615 b 511 467 610 488 567 467 b 368 517 438 467 443 517 b 314 479 342 517 314 510 b 386 372 314 418 386 440 b 286 303 386 303 338 299 b 218 257 221 310 218 267 b 271 219 218 249 224 219 b 321 226 297 219 292 226 b 376 174 356 226 381 217 l 688 174 l 688 0 l 53 0 z m 568 1181 l 568 1346 l 201 1097 l 426 1097 z "},"Ž":{"ha":715,"x_min":0,"x_max":0,"o":"m 53 0 l 688 0 l 688 174 l 376 174 b 321 226 381 217 356 226 b 271 219 292 226 297 219 b 218 257 224 219 218 249 b 286 303 218 267 221 310 b 386 372 338 299 386 303 b 314 479 386 440 314 418 b 368 517 314 510 342 517 b 511 467 443 517 438 467 b 610 546 567 467 610 488 b 563 671 610 615 563 596 b 688 869 563 740 688 714 l 688 1042 l 61 1042 l 61 868 l 489 868 b 475 831 479 856 475 849 b 517 751 475 775 517 786 b 438 721 517 725 492 704 b 331 633 364 743 311 694 b 272 576 344 589 313 576 b 161 615 233 576 210 615 b 74 531 106 615 74 583 b 161 407 74 461 161 469 b 28 232 161 317 28 318 b 53 174 28 201 38 192 z m 153 1339 l 153 1186 l 282 1097 l 433 1097 l 563 1186 l 563 1339 l 358 1206 z "},"Ż":{"ha":715,"x_min":0,"x_max":0,"o":"m 53 174 b 28 232 38 192 28 201 b 161 407 28 318 161 317 b 74 531 161 469 74 461 b 161 615 74 583 106 615 b 272 576 210 615 233 576 b 331 633 313 576 344 589 b 438 721 311 694 364 743 b 517 751 492 704 517 725 b 475 831 517 786 475 775 b 489 868 475 849 479 856 l 61 868 l 61 1042 l 688 1042 l 688 869 b 563 671 688 714 563 740 b 610 546 563 596 610 615 b 511 467 610 488 567 467 b 368 517 438 467 443 517 b 314 479 342 517 314 510 b 386 372 314 418 386 440 b 286 303 386 303 338 299 b 218 257 221 310 218 267 b 271 219 218 249 224 219 b 321 226 297 219 292 226 b 376 174 356 226 381 217 l 688 174 l 688 0 l 53 0 z m 426 1300 l 288 1300 l 244 1169 l 357 1089 l 471 1169 z "},"a":{"ha":869,"x_min":0,"x_max":0,"o":"m 776 335 b 835 513 781 454 832 429 b 665 738 838 615 688 631 b 456 1051 640 856 693 1051 b 267 900 344 1051 267 993 b 346 707 267 779 346 778 b 107 493 346 590 104 646 b 174 290 108 399 178 407 b 29 108 169 190 35 201 b 139 -25 25 29 53 -25 b 244 82 224 -25 260 18 b 338 235 221 182 338 138 b 239 388 338 328 239 322 b 288 436 239 404 246 436 b 442 365 361 436 364 365 b 614 482 535 365 493 482 b 696 350 667 482 696 421 b 575 115 696 257 578 244 b 706 -15 572 21 657 -14 b 840 99 742 -17 833 -3 b 776 335 849 213 774 265 z m 572 703 b 550 607 556 674 535 651 l 417 607 b 444 676 417 607 444 635 b 410 796 444 731 410 724 b 506 872 410 844 454 876 b 572 703 557 868 626 797 z "},"b":{"ha":807,"x_min":0,"x_max":0,"o":"m 524 1057 b 274 972 344 1057 336 972 b 211 1042 229 972 211 1011 l 28 1042 l 28 0 l 210 0 b 338 69 281 0 251 69 b 522 -15 390 69 403 -15 b 693 175 589 -15 693 33 b 511 432 693 364 511 297 b 779 751 513 563 779 499 b 524 1057 779 860 751 1057 z m 443 83 b 324 172 382 83 342 118 b 210 217 303 232 263 239 l 210 357 b 310 449 210 419 263 449 b 400 353 372 449 392 424 b 528 154 418 204 528 238 b 443 83 528 89 490 85 z m 519 564 b 396 504 506 524 472 504 b 210 647 336 504 210 531 l 210 711 b 368 829 289 679 385 711 b 475 971 356 921 421 969 b 593 883 533 972 594 943 b 522 725 590 814 528 819 b 519 564 517 638 540 624 z "},"c":{"ha":925,"x_min":0,"x_max":0,"o":"m 121 439 b 128 219 129 324 97 286 b 257 117 163 144 201 156 b 438 -32 311 78 317 -32 b 606 99 558 -32 532 58 b 763 104 671 136 703 106 b 897 254 814 103 897 142 b 765 363 897 326 828 363 b 597 222 704 363 628 329 b 449 131 582 169 528 131 b 351 322 307 131 375 231 b 242 431 336 382 243 376 b 361 608 240 519 360 511 b 324 772 363 688 324 719 b 475 893 324 849 424 893 b 625 708 615 893 622 763 b 769 572 628 653 681 572 b 888 679 843 572 888 619 b 692 882 888 842 775 779 b 504 1068 628 961 639 1068 b 351 957 428 1068 365 1036 b 161 828 339 886 254 844 b 28 689 86 814 28 751 b 121 439 28 567 117 513 z "},"d":{"ha":978,"x_min":0,"x_max":0,"o":"m 260 0 b 404 67 279 35 328 74 b 615 -15 481 61 528 -15 b 721 60 665 -15 703 7 b 688 264 757 160 663 199 b 817 299 710 321 765 299 b 949 471 868 299 944 329 b 810 660 953 601 888 613 b 747 882 732 707 710 769 b 631 1075 785 996 708 1075 b 414 946 519 1075 517 946 b 183 1042 311 946 279 1042 b 28 900 88 1042 28 983 b 76 778 28 846 42 808 l 76 0 z m 260 751 b 369 849 318 763 339 803 b 507 911 400 894 460 911 b 660 781 578 911 660 872 b 586 628 660 692 586 706 b 718 454 586 522 719 561 b 558 201 717 326 558 388 b 471 114 557 114 492 114 b 379 231 406 114 367 157 b 260 353 394 317 342 367 z "},"e":{"ha":706,"x_min":0,"x_max":0,"o":"m 28 0 l 678 0 l 678 174 l 211 174 l 211 435 l 678 435 l 678 608 l 211 608 l 211 868 l 678 868 l 678 1042 l 28 1042 z "},"f":{"ha":706,"x_min":0,"x_max":0,"o":"m 28 0 l 211 0 l 211 435 l 678 435 l 678 608 l 211 608 l 211 868 l 678 868 l 678 1042 l 28 1042 z "},"g":{"ha":944,"x_min":0,"x_max":0,"o":"m 268 519 b 406 824 222 624 244 824 b 576 739 475 824 515 810 b 769 633 632 675 679 633 b 908 757 858 633 908 664 b 801 885 908 840 864 885 b 644 840 717 885 718 840 b 571 940 593 840 578 892 b 393 1058 558 1032 488 1058 b 203 893 294 1058 203 997 b 28 550 203 607 28 726 b 94 378 28 458 94 465 b 61 207 94 297 61 294 b 183 57 61 118 107 57 b 331 108 263 57 272 108 b 633 -28 444 108 454 -28 b 833 110 717 -28 833 4 b 796 240 833 161 796 186 b 917 336 796 310 831 338 l 917 519 z m 240 243 b 282 336 240 279 257 308 l 626 336 b 722 240 688 336 722 289 b 644 150 722 190 703 150 b 476 235 558 150 575 235 b 310 153 401 235 376 153 b 240 243 264 153 240 185 z "},"h":{"ha":789,"x_min":0,"x_max":0,"o":"m 578 608 l 211 608 l 211 1042 l 28 1042 l 28 0 l 211 0 l 211 435 l 578 435 l 578 0 l 761 0 l 761 1042 l 578 1042 z "},"i":{"ha":239,"x_min":0,"x_max":0,"o":"m 28 0 l 211 0 l 211 1042 l 28 1042 z "},"j":{"ha":624,"x_min":0,"x_max":0,"o":"m 283 -29 b 439 -110 344 -46 332 -110 b 594 125 607 -110 594 6 l 594 1042 l 413 1042 l 413 217 b 497 42 413 94 497 136 b 436 -11 497 17 471 -11 b 347 100 361 -11 413 100 b 264 79 306 100 294 79 b 218 147 244 79 218 107 b 331 350 218 218 331 260 b 208 485 331 407 297 485 b 61 344 96 485 61 417 b 78 192 61 314 78 224 b 42 54 78 121 42 101 b 147 -42 42 -3 79 -42 b 283 -29 211 -42 235 -15 z "},"k":{"ha":751,"x_min":0,"x_max":0,"o":"m 211 1042 l 28 1042 l 28 0 l 211 0 l 211 299 b 315 321 244 293 289 299 b 467 508 400 390 346 508 b 550 418 519 508 550 469 b 468 314 550 374 525 338 b 338 135 396 283 338 207 b 468 -15 338 11 410 -15 b 579 83 524 -15 579 7 b 508 233 579 135 508 172 b 724 447 508 324 724 274 b 564 564 724 546 663 592 b 497 592 533 556 497 560 b 590 704 497 632 590 619 b 490 814 590 794 490 749 b 585 847 490 839 514 846 b 692 963 633 849 692 890 b 583 1061 692 1003 658 1061 b 433 919 440 1061 517 919 b 274 839 306 919 274 883 b 449 657 274 718 449 750 b 331 546 449 583 394 546 b 211 593 263 546 236 574 z "},"l":{"ha":789,"x_min":0,"x_max":0,"o":"m 761 0 l 761 174 l 211 174 l 211 1042 l 28 1042 l 28 0 z "},"m":{"ha":1043,"x_min":0,"x_max":0,"o":"m 836 0 l 1015 0 l 1015 1042 l 836 1042 b 682 918 836 904 765 918 b 508 767 564 918 508 842 b 579 575 508 676 529 632 b 617 453 615 533 619 492 b 529 369 614 414 589 369 b 442 451 476 369 442 397 b 508 588 442 501 508 511 b 350 733 508 690 350 651 b 417 882 350 803 444 814 b 278 914 396 933 325 914 b 207 1042 224 914 194 967 l 28 1042 l 28 0 l 207 0 l 207 431 b 283 544 207 496 233 544 b 342 328 389 544 383 425 b 469 106 283 190 393 106 b 606 200 526 106 592 128 b 714 297 618 264 640 297 b 776 365 746 297 776 332 b 647 574 776 488 664 428 b 746 679 640 629 688 679 b 836 549 832 679 836 607 z "},"n":{"ha":808,"x_min":0,"x_max":0,"o":"m 211 0 l 211 522 b 267 608 211 565 231 608 b 326 500 314 608 326 549 b 258 222 326 374 258 349 b 390 53 258 124 329 53 b 494 129 461 53 494 92 b 554 221 494 188 515 221 b 597 200 571 221 588 213 l 597 0 l 781 0 l 781 1042 l 597 1042 l 597 492 b 501 344 597 403 575 344 b 406 464 432 344 406 394 b 508 803 406 593 508 665 b 417 897 508 863 471 897 b 289 861 360 897 343 861 b 211 1013 225 861 211 956 l 211 1042 l 28 1042 l 28 0 z "},"o":{"ha":965,"x_min":0,"x_max":0,"o":"m 64 403 b 49 272 65 338 49 313 b 231 79 49 144 183 167 b 450 -15 264 15 385 -15 b 721 172 603 -15 721 19 b 914 426 721 293 914 194 b 938 625 914 503 938 550 b 892 771 938 675 926 724 b 678 883 839 844 728 797 b 458 1051 618 989 586 1051 b 169 768 228 1051 233 856 b 31 590 104 679 46 696 b 64 403 21 522 63 493 z m 249 744 b 439 881 267 824 347 881 b 647 651 594 881 644 811 b 860 424 650 476 856 547 b 768 326 860 354 824 304 b 592 246 707 351 592 321 b 475 86 592 119 535 86 b 311 246 344 86 318 210 b 211 390 289 358 211 307 b 265 542 211 443 265 468 b 249 744 265 632 228 654 z "},"p":{"ha":772,"x_min":0,"x_max":0,"o":"m 321 0 l 321 338 b 382 401 321 378 350 401 b 549 332 431 401 471 332 b 674 501 651 332 674 421 b 743 649 674 579 742 563 b 622 819 744 785 622 724 b 639 933 624 854 639 874 b 488 1057 639 1008 588 1057 b 278 929 383 1057 364 942 b 157 964 231 922 204 964 b 28 835 97 964 28 924 b 138 707 28 782 64 736 l 138 0 z m 481 436 b 321 553 422 436 335 490 l 321 674 b 371 788 374 693 383 739 b 446 899 353 858 396 899 b 553 814 494 899 551 863 b 525 669 553 757 525 743 b 592 508 525 578 592 557 b 481 436 592 450 553 436 z "},"q":{"ha":975,"x_min":0,"x_max":0,"o":"m 696 -17 b 882 140 786 -17 882 29 b 864 271 882 188 864 228 b 947 486 864 386 947 390 b 835 706 947 626 835 592 b 724 986 835 796 969 943 b 543 1063 636 1001 633 1063 b 319 918 429 1063 422 918 b 103 838 260 918 169 951 b 100 528 57 760 100 640 b 28 226 100 438 28 358 b 236 -15 28 81 100 -15 b 468 131 394 -15 385 128 b 539 72 504 132 526 113 b 696 -17 557 13 594 -17 z m 793 293 b 690 183 793 224 754 183 b 586 353 614 183 586 251 b 433 518 586 475 511 518 b 324 410 375 518 324 478 b 472 219 324 279 472 336 b 344 139 472 156 415 138 b 153 338 225 142 151 228 b 254 542 153 429 183 506 b 342 665 319 575 342 615 b 311 799 342 718 311 753 b 386 875 311 847 342 875 b 543 819 443 875 468 819 b 694 861 617 819 646 860 b 793 732 772 861 793 796 b 719 521 793 640 719 592 b 793 293 719 400 793 394 z "},"r":{"ha":739,"x_min":0,"x_max":0,"o":"m 28 1042 l 28 0 l 211 0 l 211 319 b 331 267 235 272 301 267 b 511 361 415 267 468 331 b 547 372 519 367 535 372 b 579 339 567 372 579 358 b 526 292 579 315 558 303 b 365 113 438 261 365 213 b 472 -11 365 33 421 -11 b 613 119 553 -11 613 40 b 624 239 613 171 606 199 b 710 367 649 293 710 290 b 594 474 710 428 667 474 b 365 365 496 474 522 372 b 264 451 300 363 264 400 b 339 538 264 510 296 538 b 539 486 422 538 428 486 b 711 618 618 486 711 531 b 686 754 711 678 686 679 b 711 928 686 854 711 869 b 558 1056 711 1013 661 1056 b 286 964 436 1056 375 964 b 211 1042 232 964 204 974 z m 211 831 b 313 782 222 814 240 782 b 500 888 394 782 400 888 b 617 761 576 888 617 813 b 493 617 617 678 560 617 b 278 726 382 617 378 726 b 211 706 264 726 231 718 z "},"s":{"ha":744,"x_min":0,"x_max":0,"o":"m 338 597 b 210 786 258 597 210 642 b 329 913 210 874 257 913 b 442 822 392 913 428 879 b 563 703 460 744 479 703 b 678 878 654 703 679 793 b 565 1029 676 967 642 1029 b 440 982 497 1029 503 982 b 244 1065 350 982 342 1065 b 107 939 156 1065 107 1011 b 136 793 107 885 140 843 b 63 601 132 700 63 696 b 190 478 63 536 96 478 b 376 544 264 478 297 544 b 476 449 432 544 476 515 b 440 304 476 389 440 358 b 553 146 439 211 553 228 b 401 58 553 69 451 58 b 279 218 319 58 268 108 b 167 414 292 336 288 414 b 28 276 93 414 28 372 b 401 -15 28 117 119 -15 b 717 208 593 -15 717 85 b 665 379 717 300 665 317 b 692 492 665 425 692 439 b 553 664 692 585 651 664 b 338 597 440 664 482 597 z "},"t":{"ha":789,"x_min":0,"x_max":0,"o":"m 28 868 l 303 868 l 303 0 l 486 0 l 486 868 l 761 868 l 761 1042 l 28 1042 z "},"u":{"ha":810,"x_min":0,"x_max":0,"o":"m 211 1042 l 28 1042 l 28 194 b 101 96 89 197 104 157 b 297 -72 97 15 147 -72 b 450 38 371 -72 411 -24 b 542 103 476 79 501 103 b 599 0 583 103 601 65 l 782 0 l 782 1042 l 599 1042 l 599 417 b 542 300 599 356 583 300 b 435 331 496 300 486 331 b 382 269 393 331 382 293 b 428 163 382 215 428 210 b 335 71 428 104 379 71 b 211 208 261 71 211 122 z "},"v":{"ha":901,"x_min":0,"x_max":0,"o":"m 226 694 b 375 922 226 794 375 801 b 239 1063 374 997 325 1063 b 104 929 164 1063 104 1014 b 138 793 104 864 138 846 b 28 632 138 735 28 714 b 193 435 28 510 193 554 b 121 283 193 371 111 353 b 317 210 138 158 272 257 b 482 -15 390 132 332 -15 b 600 140 567 -15 600 49 b 633 297 600 192 606 254 b 794 449 681 372 794 319 b 772 592 794 507 772 526 b 874 825 772 699 874 710 b 739 961 874 899 817 961 b 610 829 668 961 611 918 b 683 665 610 739 683 719 b 556 461 683 567 556 586 b 436 193 556 367 579 193 b 313 307 375 193 313 239 b 403 407 313 365 335 397 b 531 533 485 418 528 458 b 419 675 531 613 499 675 b 282 636 371 675 333 636 b 226 694 249 636 226 658 z "},"w":{"ha":1040,"x_min":0,"x_max":0,"o":"m 1013 0 l 1013 1042 l 829 1042 l 829 422 b 749 208 829 258 799 208 b 678 293 692 208 678 250 b 796 653 678 424 796 503 b 660 799 796 739 740 799 b 415 553 465 799 543 553 b 318 583 379 553 368 583 b 240 476 254 583 240 506 b 357 204 240 374 357 293 b 322 168 357 183 346 168 b 207 331 258 168 207 219 l 207 1042 l 28 1042 l 28 0 l 207 0 b 251 83 207 56 219 83 b 353 31 285 83 281 31 b 421 140 431 31 421 115 b 510 269 421 243 510 161 b 446 429 510 347 446 339 b 524 529 446 496 485 529 b 608 399 563 529 608 506 b 522 122 608 271 522 250 b 656 -15 522 32 567 -15 b 785 83 750 -15 729 83 b 829 0 818 83 832 42 z "},"x":{"ha":1064,"x_min":0,"x_max":0,"o":"m 804 721 b 867 949 804 858 867 849 b 736 1049 867 1008 808 1050 b 606 911 678 1047 606 1029 b 636 721 606 826 640 785 b 525 607 632 658 597 607 b 458 794 421 607 494 739 b 254 851 400 885 275 807 b 264 979 231 903 261 929 b 160 1069 267 1022 242 1069 b 39 972 72 1069 39 1003 b 165 819 39 847 138 882 b 179 682 181 783 131 731 b 360 649 219 642 339 708 b 269 515 385 575 267 590 b 382 385 272 435 381 472 b 290 324 382 349 311 379 b 318 188 269 267 318 221 b 264 128 318 165 313 128 b 201 217 197 128 211 167 b 110 301 188 290 138 301 b 28 210 43 301 28 251 b 172 76 28 118 143 97 b 361 -28 238 31 250 -28 b 467 92 428 -28 463 29 b 433 276 469 156 431 208 b 515 375 436 329 458 376 b 593 306 558 374 593 354 b 743 100 593 135 646 165 b 910 -28 788 69 785 -28 b 1035 79 939 -28 1028 0 b 956 169 1039 132 990 171 b 847 113 889 167 890 113 b 804 360 775 113 847 283 b 586 515 749 463 581 378 b 804 721 590 611 804 539 z "},"y":{"ha":806,"x_min":0,"x_max":0,"o":"m 778 914 b 636 1051 778 1008 731 1051 b 474 881 546 1051 474 1003 b 571 593 474 775 571 729 b 472 500 571 531 536 500 b 393 590 424 500 393 533 b 438 718 393 651 438 681 b 372 771 438 742 418 771 b 282 726 324 771 317 726 b 238 767 251 726 238 738 b 297 943 238 838 296 857 b 161 1065 299 1024 243 1065 b 28 947 108 1065 31 1036 b 138 758 28 829 138 826 b 90 613 138 688 90 675 b 174 519 90 558 118 519 b 282 532 226 519 239 532 b 315 449 313 532 315 503 l 315 0 l 500 0 l 500 403 b 538 449 500 432 515 449 b 635 417 576 449 576 417 b 738 531 699 417 739 463 b 649 708 735 643 649 626 b 778 914 649 803 778 781 z "},"z":{"ha":715,"x_min":0,"x_max":0,"o":"m 688 183 l 417 182 b 379 208 399 182 379 190 b 424 231 379 228 397 236 b 506 282 464 224 506 229 b 299 517 506 408 299 374 b 383 594 299 579 347 594 b 463 513 421 594 463 558 b 556 404 463 439 496 404 b 649 540 622 404 649 456 b 644 731 649 588 646 672 b 688 858 642 818 654 844 l 688 1042 l 28 1042 l 28 858 l 496 858 b 572 771 539 858 572 814 b 511 696 572 718 542 696 b 317 768 461 696 429 768 b 139 594 260 768 139 722 b 306 299 139 383 306 400 b 243 244 306 265 286 244 b 114 315 178 244 179 315 b 28 176 60 315 28 253 l 28 0 l 688 0 z "},"æ":{"ha":1210,"x_min":0,"x_max":0,"o":"m 524 0 l 1182 0 l 1182 174 l 718 174 l 718 435 l 1182 435 l 1182 608 l 718 608 l 718 868 l 1182 868 l 1182 1042 l 532 1042 b 431 1056 532 1042 494 1056 b 240 900 319 1056 244 993 b 299 711 236 797 321 803 b 74 506 271 597 74 683 b 99 343 74 449 104 399 b 31 140 89 243 43 232 b 153 -18 17 35 67 -18 b 289 86 238 -18 288 21 b 200 332 293 197 200 240 b 279 435 200 374 210 435 b 397 383 328 435 343 383 b 539 439 501 383 472 439 b 603 364 588 439 603 396 b 524 115 603 290 526 244 z m 539 704 b 517 608 522 675 501 653 l 383 608 b 411 678 383 608 411 636 b 376 797 411 732 376 725 b 472 874 376 846 421 878 b 539 704 524 869 593 799 z "},"ð":{"ha":982,"x_min":0,"x_max":0,"o":"m 264 0 b 408 67 283 35 332 74 b 619 -15 485 61 532 -15 b 725 60 669 -15 707 7 b 692 264 761 160 667 199 b 821 299 714 321 769 299 b 953 471 872 299 949 329 b 814 660 957 601 892 613 b 751 882 736 707 714 769 b 635 1075 789 996 713 1075 b 418 946 524 1075 521 946 b 188 1042 315 946 283 1042 b 32 900 92 1042 32 983 b 81 778 32 846 46 808 l 81 607 l 28 607 l 28 436 l 81 436 l 81 0 z m 451 607 l 264 607 l 264 751 b 374 849 322 763 343 803 b 511 911 404 894 464 911 b 664 781 582 911 664 872 b 590 628 664 692 590 706 b 722 454 590 522 724 561 b 563 201 721 326 563 388 b 475 114 561 114 496 114 b 383 231 410 114 371 157 b 264 353 399 317 346 367 l 264 436 l 451 436 z "},"ß":{"ha":860,"x_min":0,"x_max":0,"o":"m 28 1042 l 28 -140 l 211 -140 l 211 801 b 432 910 332 828 306 910 b 572 801 529 910 572 857 b 478 693 572 754 546 693 b 335 710 390 693 383 710 b 240 611 282 710 240 678 b 413 340 240 453 413 489 b 322 182 413 293 425 182 b 226 76 260 182 226 126 b 325 -24 226 13 265 -24 b 489 88 481 -24 432 88 b 675 0 554 88 525 0 b 832 174 828 0 832 135 b 763 329 832 206 831 290 b 706 456 731 347 708 369 b 633 550 704 514 694 550 b 510 503 575 550 565 503 b 432 583 474 503 432 522 b 504 653 432 649 475 653 b 614 638 547 653 569 638 b 751 807 704 638 751 701 b 590 1007 751 875 710 1007 b 432 965 501 1007 538 965 b 208 1042 326 965 338 1042 z m 468 343 b 515 407 468 383 493 407 b 575 349 551 407 575 385 b 746 176 575 232 746 293 b 667 92 746 111 710 92 b 593 167 633 92 596 119 b 533 261 590 229 583 244 b 468 343 489 276 468 296 z "},"œ":{"ha":1456,"x_min":0,"x_max":0,"o":"m 778 1025 b 710 961 778 985 769 961 b 496 1051 613 961 654 1051 b 217 817 300 1051 281 904 b 28 596 151 728 28 708 b 99 400 28 493 99 490 b 82 282 99 358 82 311 b 271 92 82 142 238 182 b 503 -29 306 0 390 -29 b 743 174 719 -29 683 174 b 778 99 764 174 778 157 l 778 0 l 1428 0 l 1428 174 l 961 174 l 961 435 l 1428 435 l 1428 608 l 961 608 l 961 868 l 1428 868 l 1428 1042 l 778 1042 z m 251 725 b 374 883 251 813 306 883 b 535 813 464 883 436 813 b 685 861 625 813 604 861 b 710 650 754 861 710 717 b 897 397 710 475 897 521 b 833 315 897 332 865 315 b 758 335 797 315 788 335 b 685 249 713 335 685 306 b 515 89 685 122 601 89 b 361 193 485 89 361 119 b 192 392 361 343 192 308 b 282 560 192 475 282 501 b 251 725 282 643 251 633 z "},"ø":{"ha":976,"x_min":0,"x_max":0,"o":"m 651 776 b 586 724 651 742 629 724 b 461 754 543 724 508 754 b 349 629 393 754 349 704 b 431 386 349 533 431 471 b 283 314 431 332 376 314 b 199 390 229 314 199 342 b 276 542 199 443 276 468 b 246 743 276 632 225 653 b 450 881 264 822 358 881 b 651 776 563 881 651 835 z m 78 413 b 60 272 79 347 60 313 b 239 63 60 144 192 150 b 461 -15 272 -1 379 -15 b 732 172 614 -15 732 39 b 925 426 732 293 925 194 b 949 625 925 503 949 550 b 893 767 949 675 928 719 b 689 883 840 840 739 797 b 469 1051 629 989 588 1051 b 192 761 239 1051 257 849 b 28 596 128 672 28 699 b 78 413 28 526 76 503 z m 706 628 b 871 424 706 453 871 575 b 779 326 871 354 835 304 b 650 249 718 351 650 324 b 486 86 650 122 613 86 b 333 207 379 86 333 154 b 551 303 333 306 488 161 b 535 543 586 379 535 458 b 654 676 535 628 592 676 b 706 628 683 676 706 660 z "},"þ":{"ha":869,"x_min":0,"x_max":0,"o":"m 28 1042 l 28 0 l 211 0 l 211 410 b 250 485 211 461 218 485 b 282 314 315 485 282 399 b 494 86 282 169 351 86 b 694 300 651 86 711 186 b 840 500 678 411 843 400 b 683 656 838 610 683 592 b 715 783 683 697 715 708 b 569 928 715 876 653 928 b 310 775 401 928 451 775 b 211 900 250 775 211 815 l 211 1042 z m 690 485 b 624 382 690 433 624 443 b 639 289 624 339 639 335 b 553 211 639 236 604 211 b 460 303 489 211 460 251 b 479 432 460 346 479 385 b 303 565 479 538 417 581 b 211 632 242 557 211 582 b 268 692 211 671 235 692 b 394 635 329 692 342 635 b 526 806 499 635 429 806 b 579 751 561 806 579 781 b 525 635 579 694 525 700 b 690 485 525 515 690 561 z "},"à":{"ha":869,"x_min":0,"x_max":0,"o":"m 776 335 b 835 513 781 454 832 429 b 665 738 838 615 688 631 b 456 1051 640 856 693 1051 b 267 900 344 1051 267 993 b 346 707 267 779 346 778 b 107 493 346 590 104 646 b 174 290 108 399 178 407 b 29 108 169 190 35 201 b 139 -25 25 29 53 -25 b 244 82 224 -25 260 18 b 338 235 221 182 338 138 b 239 388 338 328 239 322 b 288 436 239 404 246 436 b 442 365 361 436 364 365 b 614 482 535 365 493 482 b 696 350 667 482 696 421 b 575 115 696 257 578 244 b 706 -15 572 21 657 -14 b 840 99 742 -17 833 -3 b 776 335 849 213 774 265 z m 572 703 b 550 607 556 674 535 651 l 417 607 b 444 676 417 607 444 635 b 410 796 444 731 410 724 b 506 872 410 844 454 876 b 572 703 557 868 626 797 z m 365 1097 l 590 1097 l 224 1346 l 224 1181 z "},"á":{"ha":869,"x_min":0,"x_max":0,"o":"m 776 335 b 840 99 774 265 849 213 b 706 -15 833 -3 742 -17 b 575 115 657 -14 572 21 b 696 350 578 244 696 257 b 614 482 696 421 667 482 b 442 365 493 482 535 365 b 288 436 364 365 361 436 b 239 388 246 436 239 404 b 338 235 239 322 338 328 b 244 82 338 138 221 182 b 139 -25 260 18 224 -25 b 29 108 53 -25 25 29 b 174 290 35 201 169 190 b 107 493 178 407 108 399 b 346 707 104 646 346 590 b 267 900 346 778 267 779 b 456 1051 267 993 344 1051 b 665 738 693 1051 640 856 b 835 513 688 631 838 615 b 776 335 832 429 781 454 z m 572 703 b 506 872 626 797 557 868 b 410 796 454 876 410 844 b 444 676 410 724 444 731 b 417 607 444 635 417 607 l 550 607 b 572 703 535 651 556 674 z m 715 1181 l 715 1346 l 349 1097 l 574 1097 z "},"â":{"ha":869,"x_min":0,"x_max":0,"o":"m 776 335 b 835 513 781 454 832 429 b 665 738 838 615 688 631 b 456 1051 640 856 693 1051 b 267 900 344 1051 267 993 b 346 707 267 779 346 778 b 107 493 346 590 104 646 b 174 290 108 399 178 407 b 29 108 169 190 35 201 b 139 -25 25 29 53 -25 b 244 82 224 -25 260 18 b 338 235 221 182 338 138 b 239 388 338 328 239 322 b 288 436 239 404 246 436 b 442 365 361 436 364 365 b 614 482 535 365 493 482 b 696 350 667 482 696 421 b 575 115 696 257 578 244 b 706 -15 572 21 657 -14 b 840 99 742 -17 833 -3 b 776 335 849 213 774 265 z m 572 703 b 550 607 556 674 535 651 l 417 607 b 444 676 417 607 444 635 b 410 796 444 731 410 724 b 506 872 410 844 454 876 b 572 703 557 868 626 797 z m 463 1201 l 667 1068 l 667 1221 l 538 1310 l 386 1310 l 257 1221 l 257 1068 z "},"ã":{"ha":869,"x_min":0,"x_max":0,"o":"m 776 335 b 840 99 774 265 849 213 b 706 -15 833 -3 742 -17 b 575 115 657 -14 572 21 b 696 350 578 244 696 257 b 614 482 696 421 667 482 b 442 365 493 482 535 365 b 288 436 364 365 361 436 b 239 388 246 436 239 404 b 338 235 239 322 338 328 b 244 82 338 138 221 182 b 139 -25 260 18 224 -25 b 29 108 53 -25 25 29 b 174 290 35 201 169 190 b 107 493 178 407 108 399 b 346 707 104 646 346 590 b 267 900 346 778 267 779 b 456 1051 267 993 344 1051 b 665 738 693 1051 640 856 b 835 513 688 631 838 615 b 776 335 832 429 781 454 z m 572 703 b 506 872 626 797 557 868 b 410 796 454 876 410 844 b 444 676 410 724 444 731 b 417 607 444 635 417 607 l 550 607 b 572 703 535 651 556 674 z m 561 1090 b 667 1135 603 1090 638 1106 l 667 1278 b 564 1219 646 1250 621 1219 b 363 1282 510 1219 429 1282 b 257 1238 321 1282 286 1267 l 257 1094 b 360 1153 278 1122 303 1153 b 561 1090 413 1153 494 1090 z "},"ä":{"ha":869,"x_min":0,"x_max":0,"o":"m 776 335 b 840 99 774 265 849 213 b 706 -15 833 -3 742 -17 b 575 115 657 -14 572 21 b 696 350 578 244 696 257 b 614 482 696 421 667 482 b 442 365 493 482 535 365 b 288 436 364 365 361 436 b 239 388 246 436 239 404 b 338 235 239 322 338 328 b 244 82 338 138 221 182 b 139 -25 260 18 224 -25 b 29 108 53 -25 25 29 b 174 290 35 201 169 190 b 107 493 178 407 108 399 b 346 707 104 646 346 590 b 267 900 346 778 267 779 b 456 1051 267 993 344 1051 b 665 738 693 1051 640 856 b 835 513 688 631 838 615 b 776 335 832 429 781 454 z m 572 703 b 506 872 626 797 557 868 b 410 796 454 876 410 844 b 444 676 410 724 444 731 b 417 607 444 635 417 607 l 550 607 b 572 703 535 651 556 674 z m 418 1300 l 279 1300 l 236 1169 l 349 1089 l 463 1169 z m 644 1300 l 506 1300 l 463 1169 l 575 1089 l 689 1169 z "},"ā":{"ha":869,"x_min":0,"x_max":0,"o":"m 776 335 b 835 513 781 454 832 429 b 665 738 838 615 688 631 b 456 1051 640 856 693 1051 b 267 900 344 1051 267 993 b 346 707 267 779 346 778 b 107 493 346 590 104 646 b 174 290 108 399 178 407 b 29 108 169 190 35 201 b 139 -25 25 29 53 -25 b 244 82 224 -25 260 18 b 338 235 221 182 338 138 b 239 388 338 328 239 322 b 288 436 239 404 246 436 b 442 365 361 436 364 365 b 614 482 535 365 493 482 b 696 350 667 482 696 421 b 575 115 696 257 578 244 b 706 -15 572 21 657 -14 b 840 99 742 -17 833 -3 b 776 335 849 213 774 265 z m 572 703 b 550 607 556 674 535 651 l 417 607 b 444 676 417 607 444 635 b 410 796 444 731 410 724 b 506 872 410 844 454 876 b 572 703 557 868 626 797 z m 249 1126 l 658 1126 l 658 1258 l 249 1258 z "},"ă":{"ha":869,"x_min":0,"x_max":0,"o":"m 776 335 b 835 513 781 454 832 429 b 665 738 838 615 688 631 b 456 1051 640 856 693 1051 b 267 900 344 1051 267 993 b 346 707 267 779 346 778 b 107 493 346 590 104 646 b 174 290 108 399 178 407 b 29 108 169 190 35 201 b 139 -25 25 29 53 -25 b 244 82 224 -25 260 18 b 338 235 221 182 338 138 b 239 388 338 328 239 322 b 288 436 239 404 246 436 b 442 365 361 436 364 365 b 614 482 535 365 493 482 b 696 350 667 482 696 421 b 575 115 696 257 578 244 b 706 -15 572 21 657 -14 b 840 99 742 -17 833 -3 b 776 335 849 213 774 265 z m 447 1214 b 372 1292 404 1214 376 1246 l 236 1292 b 447 1089 240 1165 328 1089 b 660 1292 567 1089 656 1165 l 524 1292 b 447 1214 519 1246 490 1214 z m 572 703 b 550 607 556 674 535 651 l 417 607 b 444 676 417 607 444 635 b 410 796 444 731 410 724 b 506 872 410 844 454 876 b 572 703 557 868 626 797 z "},"å":{"ha":869,"x_min":0,"x_max":0,"o":"m 776 335 b 835 513 781 454 832 429 b 665 738 838 615 688 631 b 456 1051 640 856 693 1051 b 267 900 344 1051 267 993 b 346 707 267 779 346 778 b 107 493 346 590 104 646 b 174 290 108 399 178 407 b 29 108 169 190 35 201 b 139 -25 25 29 53 -25 b 244 82 224 -25 260 18 b 338 235 221 182 338 138 b 239 388 338 328 239 322 b 288 436 239 404 246 436 b 442 365 361 436 364 365 b 614 482 535 365 493 482 b 696 350 667 482 696 421 b 575 115 696 257 578 244 b 706 -15 572 21 657 -14 b 840 99 742 -17 833 -3 b 776 335 849 213 774 265 z m 572 703 b 550 607 556 674 535 651 l 417 607 b 444 676 417 607 444 635 b 410 796 444 731 410 724 b 506 872 410 844 454 876 b 572 703 557 868 626 797 z m 294 1228 b 449 1074 294 1143 364 1074 b 603 1228 533 1074 603 1143 b 449 1382 603 1313 533 1382 b 294 1228 364 1382 294 1313 z m 394 1228 b 449 1282 394 1258 418 1282 b 503 1228 479 1282 503 1258 b 449 1174 503 1197 479 1174 b 394 1228 418 1174 394 1197 z "},"ǻ":{"ha":869,"x_min":0,"x_max":0,"o":"m 776 335 b 840 99 774 265 849 213 b 706 -15 833 -3 742 -17 b 575 115 657 -14 572 21 b 696 350 578 244 696 257 b 614 482 696 421 667 482 b 442 365 493 482 535 365 b 288 436 364 365 361 436 b 239 388 246 436 239 404 b 338 235 239 322 338 328 b 244 82 338 138 221 182 b 139 -25 260 18 224 -25 b 29 108 53 -25 25 29 b 174 290 35 201 169 190 b 107 493 178 407 108 399 b 346 707 104 646 346 590 b 267 900 346 778 267 779 b 456 1051 267 993 344 1051 b 665 738 693 1051 640 856 b 835 513 688 631 838 615 b 776 335 832 429 781 454 z m 572 703 b 506 872 626 797 557 868 b 410 796 454 876 410 844 b 444 676 410 724 444 731 b 417 607 444 635 417 607 l 550 607 b 572 703 535 651 556 674 z m 328 1228 b 482 1382 328 1313 397 1382 b 636 1228 567 1382 636 1313 b 482 1074 636 1143 567 1074 b 328 1228 397 1074 328 1143 z m 428 1228 b 482 1174 428 1197 451 1174 b 536 1228 513 1174 536 1197 b 482 1282 536 1258 513 1282 b 428 1228 451 1282 428 1258 z m 721 1486 l 721 1651 l 354 1403 l 579 1403 z "},"ą":{"ha":869,"x_min":0,"x_max":0,"o":"m 835 -151 b 786 -175 818 -165 803 -175 b 758 -146 768 -175 758 -164 l 758 -8 b 840 99 796 3 836 33 b 776 335 849 213 774 265 b 835 513 781 454 832 429 b 665 738 838 615 688 631 b 456 1051 640 856 693 1051 b 267 900 344 1051 267 993 b 346 707 267 779 346 778 b 107 493 346 590 104 646 b 174 290 108 399 178 407 b 29 108 169 190 35 201 b 139 -25 25 29 53 -25 b 244 82 224 -25 260 18 b 338 235 221 182 338 138 b 239 388 338 328 239 322 b 288 436 239 404 246 436 b 442 365 361 436 364 365 b 614 482 535 365 493 482 b 696 350 667 482 696 421 b 575 115 696 257 578 244 b 614 21 574 72 590 42 l 614 -165 b 769 -321 614 -267 669 -321 b 904 -271 821 -321 865 -303 z m 572 703 b 550 607 556 674 535 651 l 417 607 b 444 676 417 607 444 635 b 410 796 444 731 410 724 b 506 872 410 844 454 876 b 572 703 557 868 626 797 z "},"ǽ":{"ha":1210,"x_min":0,"x_max":0,"o":"m 524 115 b 603 364 526 244 603 290 b 539 439 603 396 588 439 b 397 383 472 439 501 383 b 279 435 343 383 328 435 b 200 332 210 435 200 374 b 289 86 200 240 293 197 b 153 -18 288 21 238 -18 b 31 140 67 -18 17 35 b 99 343 43 232 89 243 b 74 506 104 399 74 449 b 299 711 74 683 271 597 b 240 900 321 803 236 797 b 431 1056 244 993 319 1056 b 532 1042 494 1056 532 1042 l 1182 1042 l 1182 868 l 718 868 l 718 608 l 1182 608 l 1182 435 l 718 435 l 718 174 l 1182 174 l 1182 0 l 524 0 z m 539 704 b 472 874 593 799 524 869 b 376 797 421 878 376 846 b 411 678 376 725 411 732 b 383 608 411 636 383 608 l 517 608 b 539 704 501 653 522 675 z m 996 1181 l 996 1346 l 629 1097 l 854 1097 z "},"ć":{"ha":925,"x_min":0,"x_max":0,"o":"m 121 439 b 28 689 117 513 28 567 b 161 828 28 751 86 814 b 351 957 254 844 339 886 b 504 1068 365 1036 428 1068 b 692 882 639 1068 628 961 b 888 679 775 779 888 842 b 769 572 888 619 843 572 b 625 708 681 572 628 653 b 475 893 622 763 615 893 b 324 772 424 893 324 849 b 361 608 324 719 363 688 b 242 431 360 511 240 519 b 351 322 243 376 336 382 b 449 131 375 231 307 131 b 597 222 528 131 582 169 b 765 363 628 329 704 363 b 897 254 828 363 897 326 b 763 104 897 142 814 103 b 606 99 703 106 671 136 b 438 -32 532 58 558 -32 b 257 117 317 -32 311 78 b 128 219 201 156 163 144 b 121 439 97 286 129 324 z m 772 1181 l 772 1346 l 406 1097 l 631 1097 z "},"ĉ":{"ha":925,"x_min":0,"x_max":0,"o":"m 121 439 b 128 219 129 324 97 286 b 257 117 163 144 201 156 b 438 -32 311 78 317 -32 b 606 99 558 -32 532 58 b 763 104 671 136 703 106 b 897 254 814 103 897 142 b 765 363 897 326 828 363 b 597 222 704 363 628 329 b 449 131 582 169 528 131 b 351 322 307 131 375 231 b 242 431 336 382 243 376 b 361 608 240 519 360 511 b 324 772 363 688 324 719 b 475 893 324 849 424 893 b 625 708 615 893 622 763 b 769 572 628 653 681 572 b 888 679 843 572 888 619 b 692 882 888 842 775 779 b 504 1068 628 961 639 1068 b 351 957 428 1068 365 1036 b 161 828 339 886 254 844 b 28 689 86 814 28 751 b 121 439 28 567 117 513 z m 504 1201 l 708 1068 l 708 1221 l 579 1310 l 428 1310 l 299 1221 l 299 1068 z "},"č":{"ha":925,"x_min":0,"x_max":0,"o":"m 121 439 b 128 219 129 324 97 286 b 257 117 163 144 201 156 b 438 -32 311 78 317 -32 b 606 99 558 -32 532 58 b 763 104 671 136 703 106 b 897 254 814 103 897 142 b 765 363 897 326 828 363 b 597 222 704 363 628 329 b 449 131 582 169 528 131 b 351 322 307 131 375 231 b 242 431 336 382 243 376 b 361 608 240 519 360 511 b 324 772 363 688 324 719 b 475 893 324 849 424 893 b 625 708 615 893 622 763 b 769 572 628 653 681 572 b 888 679 843 572 888 619 b 692 882 888 842 775 779 b 504 1068 628 961 639 1068 b 351 957 428 1068 365 1036 b 161 828 339 886 254 844 b 28 689 86 814 28 751 b 121 439 28 567 117 513 z m 288 1339 l 288 1186 l 417 1097 l 568 1097 l 697 1186 l 697 1339 l 493 1206 z "},"ċ":{"ha":925,"x_min":0,"x_max":0,"o":"m 121 439 b 28 689 117 513 28 567 b 161 828 28 751 86 814 b 351 957 254 844 339 886 b 504 1068 365 1036 428 1068 b 692 882 639 1068 628 961 b 888 679 775 779 888 842 b 769 572 888 619 843 572 b 625 708 681 572 628 653 b 475 893 622 763 615 893 b 324 772 424 893 324 849 b 361 608 324 719 363 688 b 242 431 360 511 240 519 b 351 322 243 376 336 382 b 449 131 375 231 307 131 b 597 222 528 131 582 169 b 765 363 628 329 704 363 b 897 254 828 363 897 326 b 763 104 897 142 814 103 b 606 99 703 106 671 136 b 438 -32 532 58 558 -32 b 257 117 317 -32 311 78 b 128 219 201 156 163 144 b 121 439 97 286 129 324 z m 558 1300 l 419 1300 l 376 1169 l 489 1089 l 603 1169 z "},"ç":{"ha":925,"x_min":0,"x_max":0,"o":"m 313 -299 b 443 -328 342 -315 392 -328 b 613 -174 529 -328 613 -276 b 514 -47 613 -101 561 -58 l 514 -11 b 606 99 551 18 554 71 b 763 104 671 136 703 106 b 897 254 814 103 897 142 b 765 363 897 326 828 363 b 597 222 704 363 628 329 b 449 131 582 169 528 131 b 351 322 307 131 375 231 b 242 431 336 382 243 376 b 361 608 240 519 360 511 b 324 772 363 688 324 719 b 475 893 324 849 424 893 b 625 708 615 893 622 763 b 769 572 628 653 681 572 b 888 679 843 572 888 619 b 692 882 888 842 775 779 b 504 1068 628 961 639 1068 b 351 957 428 1068 365 1036 b 161 828 339 886 254 844 b 28 689 86 814 28 751 b 121 439 28 567 117 513 b 128 219 129 324 97 286 b 257 117 163 144 201 156 b 382 -22 301 85 313 6 l 382 -128 b 472 -165 444 -121 472 -137 b 428 -201 472 -189 453 -201 b 351 -171 386 -201 351 -171 z "},"ď":{"ha":978,"x_min":0,"x_max":0,"o":"m 260 0 b 404 67 279 35 328 74 b 615 -15 481 61 528 -15 b 721 60 665 -15 703 7 b 688 264 757 160 663 199 b 817 299 710 321 765 299 b 949 471 868 299 944 329 b 810 660 953 601 888 613 b 747 882 732 707 710 769 b 631 1075 785 996 708 1075 b 414 946 519 1075 517 946 b 183 1042 311 946 279 1042 b 28 900 88 1042 28 983 b 76 778 28 846 42 808 l 76 0 z m 260 751 b 369 849 318 763 339 803 b 507 911 400 894 460 911 b 660 781 578 911 660 872 b 586 628 660 692 586 706 b 718 454 586 522 719 561 b 558 201 717 326 558 388 b 471 114 557 114 492 114 b 379 231 406 114 367 157 b 260 353 394 317 342 367 z m 194 1339 l 194 1186 l 324 1097 l 475 1097 l 604 1186 l 604 1339 l 400 1206 z "},"đ":{"ha":978,"x_min":0,"x_max":0,"o":"m 0 454 l 76 454 l 76 0 l 260 0 b 404 67 279 35 328 74 b 615 -15 481 61 528 -15 b 721 60 665 -15 703 7 b 688 264 757 160 663 199 b 817 299 710 321 765 299 b 949 471 868 299 944 329 b 810 660 953 601 888 613 b 747 882 732 707 710 769 b 631 1075 785 996 708 1075 b 414 946 519 1075 517 946 b 183 1042 311 946 279 1042 b 28 900 88 1042 28 983 b 76 778 28 846 42 808 l 76 586 l 0 586 z m 260 454 l 410 454 l 410 586 l 260 586 l 260 751 b 369 849 318 763 339 803 b 507 911 400 894 460 911 b 660 781 578 911 660 872 b 586 628 660 692 586 706 b 718 454 586 522 719 561 b 558 201 717 326 558 388 b 471 114 557 114 492 114 b 379 231 406 114 367 157 b 260 353 394 317 342 367 z "},"è":{"ha":706,"x_min":0,"x_max":0,"o":"m 28 0 l 678 0 l 678 174 l 211 174 l 211 435 l 678 435 l 678 608 l 211 608 l 211 868 l 678 868 l 678 1042 l 28 1042 z m 311 1097 l 536 1097 l 169 1346 l 169 1181 z "},"é":{"ha":706,"x_min":0,"x_max":0,"o":"m 28 1042 l 678 1042 l 678 868 l 211 868 l 211 608 l 678 608 l 678 435 l 211 435 l 211 174 l 678 174 l 678 0 l 28 0 z m 564 1181 l 564 1346 l 197 1097 l 422 1097 z "},"ê":{"ha":706,"x_min":0,"x_max":0,"o":"m 28 0 l 678 0 l 678 174 l 211 174 l 211 435 l 678 435 l 678 608 l 211 608 l 211 868 l 678 868 l 678 1042 l 28 1042 z m 365 1201 l 569 1068 l 569 1221 l 440 1310 l 289 1310 l 160 1221 l 160 1068 z "},"ě":{"ha":706,"x_min":0,"x_max":0,"o":"m 28 0 l 678 0 l 678 174 l 211 174 l 211 435 l 678 435 l 678 608 l 211 608 l 211 868 l 678 868 l 678 1042 l 28 1042 z m 150 1339 l 150 1186 l 279 1097 l 431 1097 l 560 1186 l 560 1339 l 356 1206 z "},"ë":{"ha":706,"x_min":0,"x_max":0,"o":"m 28 1042 l 678 1042 l 678 868 l 211 868 l 211 608 l 678 608 l 678 435 l 211 435 l 211 174 l 678 174 l 678 0 l 28 0 z m 539 1300 l 400 1300 l 357 1169 l 469 1089 l 583 1169 z m 313 1300 l 174 1300 l 131 1169 l 243 1089 l 357 1169 z "},"ē":{"ha":706,"x_min":0,"x_max":0,"o":"m 28 0 l 678 0 l 678 174 l 211 174 l 211 435 l 678 435 l 678 608 l 211 608 l 211 868 l 678 868 l 678 1042 l 28 1042 z m 150 1126 l 560 1126 l 560 1258 l 150 1258 z "},"ĕ":{"ha":706,"x_min":0,"x_max":0,"o":"m 28 0 l 678 0 l 678 174 l 211 174 l 211 435 l 678 435 l 678 608 l 211 608 l 211 868 l 678 868 l 678 1042 l 28 1042 z m 365 1214 b 290 1292 322 1214 294 1246 l 154 1292 b 365 1089 158 1165 246 1089 b 578 1292 485 1089 574 1165 l 442 1292 b 365 1214 438 1246 408 1214 z "},"ė":{"ha":706,"x_min":0,"x_max":0,"o":"m 28 1042 l 678 1042 l 678 868 l 211 868 l 211 608 l 678 608 l 678 435 l 211 435 l 211 174 l 678 174 l 678 0 l 28 0 z m 421 1300 l 282 1300 l 239 1169 l 351 1089 l 465 1169 z "},"ę":{"ha":706,"x_min":0,"x_max":0,"o":"m 636 -151 b 588 -175 619 -165 604 -175 b 560 -146 569 -175 560 -164 l 560 0 l 678 0 l 678 174 l 211 174 l 211 435 l 678 435 l 678 608 l 211 608 l 211 868 l 678 868 l 678 1042 l 28 1042 l 28 0 l 415 0 l 415 -165 b 571 -321 415 -267 471 -321 b 706 -271 622 -321 667 -303 z "},"ĝ":{"ha":944,"x_min":0,"x_max":0,"o":"m 268 519 b 406 824 222 624 244 824 b 576 739 475 824 515 810 b 769 633 632 675 679 633 b 908 757 858 633 908 664 b 801 885 908 840 864 885 b 644 840 717 885 718 840 b 571 940 593 840 578 892 b 393 1058 558 1032 488 1058 b 203 893 294 1058 203 997 b 28 550 203 607 28 726 b 94 378 28 458 94 465 b 61 207 94 297 61 294 b 183 57 61 118 107 57 b 331 108 263 57 272 108 b 633 -28 444 108 454 -28 b 833 110 717 -28 833 4 b 796 240 833 161 796 186 b 917 336 796 310 831 338 l 917 519 z m 240 243 b 282 336 240 279 257 308 l 626 336 b 722 240 688 336 722 289 b 644 150 722 190 703 150 b 476 235 558 150 575 235 b 310 153 401 235 376 153 b 240 243 264 153 240 185 z m 486 1201 l 690 1068 l 690 1221 l 561 1310 l 410 1310 l 281 1221 l 281 1068 z "},"ğ":{"ha":944,"x_min":0,"x_max":0,"o":"m 268 519 b 406 824 222 624 244 824 b 576 739 475 824 515 810 b 769 633 632 675 679 633 b 908 757 858 633 908 664 b 801 885 908 840 864 885 b 644 840 717 885 718 840 b 571 940 593 840 578 892 b 393 1058 558 1032 488 1058 b 203 893 294 1058 203 997 b 28 550 203 607 28 726 b 94 378 28 458 94 465 b 61 207 94 297 61 294 b 183 57 61 118 107 57 b 331 108 263 57 272 108 b 633 -28 444 108 454 -28 b 833 110 717 -28 833 4 b 796 240 833 161 796 186 b 917 336 796 310 831 338 l 917 519 z m 240 243 b 282 336 240 279 257 308 l 626 336 b 722 240 688 336 722 289 b 644 150 722 190 703 150 b 476 235 558 150 575 235 b 310 153 401 235 376 153 b 240 243 264 153 240 185 z m 457 1214 b 382 1292 414 1214 386 1246 l 246 1292 b 457 1089 250 1165 338 1089 b 669 1292 576 1089 665 1165 l 533 1292 b 457 1214 529 1246 500 1214 z "},"ġ":{"ha":944,"x_min":0,"x_max":0,"o":"m 917 519 l 917 336 b 796 240 831 338 796 310 b 833 110 796 186 833 161 b 633 -28 833 4 717 -28 b 331 108 454 -28 444 108 b 183 57 272 108 263 57 b 61 207 107 57 61 118 b 94 378 61 294 94 297 b 28 550 94 465 28 458 b 203 893 28 726 203 607 b 393 1058 203 997 294 1058 b 571 940 488 1058 558 1032 b 644 840 578 892 593 840 b 801 885 718 840 717 885 b 908 757 864 885 908 840 b 769 633 908 664 858 633 b 576 739 679 633 632 675 b 406 824 515 810 475 824 b 268 519 244 824 222 624 z m 240 243 b 310 153 240 185 264 153 b 476 235 376 153 401 235 b 644 150 575 235 558 150 b 722 240 703 150 722 190 b 626 336 722 289 688 336 l 282 336 b 240 243 257 308 240 279 z m 526 1300 l 388 1300 l 344 1169 l 457 1089 l 571 1169 z "},"ģ":{"ha":944,"x_min":0,"x_max":0,"o":"m 268 519 b 406 824 222 624 244 824 b 576 739 475 824 515 810 b 769 633 632 675 679 633 b 908 757 858 633 908 664 b 801 885 908 840 864 885 b 644 840 717 885 718 840 b 571 940 593 840 578 892 b 393 1058 558 1032 488 1058 b 203 893 294 1058 203 997 b 28 550 203 607 28 726 b 94 378 28 458 94 465 b 61 207 94 297 61 294 b 183 57 61 118 107 57 b 331 108 263 57 272 108 b 633 -28 444 108 454 -28 b 833 110 717 -28 833 4 b 796 240 833 161 796 186 b 917 336 796 310 831 338 l 917 519 z m 240 243 b 282 336 240 279 257 308 l 626 336 b 722 240 688 336 722 289 b 644 150 722 190 703 150 b 476 235 558 150 575 235 b 310 153 401 235 376 153 b 240 243 264 153 240 185 z m 479 -267 b 415 -319 476 -314 443 -319 l 415 -386 b 564 -267 501 -386 542 -351 l 600 -136 l 486 -53 l 371 -136 l 415 -267 z "},"ĥ":{"ha":789,"x_min":0,"x_max":0,"o":"m 578 608 l 211 608 l 211 1042 l 28 1042 l 28 0 l 211 0 l 211 435 l 578 435 l 578 0 l 761 0 l 761 1042 l 578 1042 z m 394 1201 l 599 1068 l 599 1221 l 469 1310 l 318 1310 l 189 1221 l 189 1068 z "},"ħ":{"ha":789,"x_min":0,"x_max":0,"o":"m -61 760 l 28 760 l 28 0 l 211 0 l 211 435 l 578 435 l 578 0 l 761 0 l 761 760 l 849 760 l 849 892 l 761 892 l 761 1042 l 578 1042 l 578 892 l 211 892 l 211 1042 l 28 1042 l 28 892 l -61 892 z m 211 608 l 211 760 l 578 760 l 578 608 z "},"ì":{"ha":239,"x_min":0,"x_max":0,"o":"m 28 0 l 211 0 l 211 1042 l 28 1042 z m -6 1097 l 219 1097 l -147 1346 l -147 1181 z "},"í":{"ha":239,"x_min":0,"x_max":0,"o":"m 28 1042 l 211 1042 l 211 0 l 28 0 z m 390 1181 l 390 1346 l 24 1097 l 249 1097 z "},"î":{"ha":239,"x_min":0,"x_max":0,"o":"m 28 0 l 211 0 l 211 1042 l 28 1042 z m 121 1201 l 325 1068 l 325 1221 l 196 1310 l 44 1310 l -85 1221 l -85 1068 z "},"ĩ":{"ha":239,"x_min":0,"x_max":0,"o":"m 28 1042 l 211 1042 l 211 0 l 28 0 z m 219 1090 b 325 1135 261 1090 296 1106 l 325 1278 b 222 1219 304 1250 279 1219 b 21 1282 168 1219 88 1282 b -85 1238 -21 1282 -56 1267 l -85 1094 b 18 1153 -64 1122 -39 1153 b 219 1090 71 1153 153 1090 z "},"ï":{"ha":239,"x_min":0,"x_max":0,"o":"m 28 1042 l 211 1042 l 211 0 l 28 0 z m 301 1300 l 163 1300 l 119 1169 l 232 1089 l 346 1169 z m 75 1300 l -64 1300 l -107 1169 l 6 1089 l 119 1169 z "},"ī":{"ha":239,"x_min":0,"x_max":0,"o":"m 28 0 l 211 0 l 211 1042 l 28 1042 z m -85 1126 l 325 1126 l 325 1258 l -85 1258 z "},"ĭ":{"ha":239,"x_min":0,"x_max":0,"o":"m 28 0 l 211 0 l 211 1042 l 28 1042 z m 119 1214 b 44 1292 76 1214 49 1246 l -92 1292 b 119 1089 -87 1165 0 1089 b 332 1292 239 1089 328 1165 l 196 1292 b 119 1214 192 1246 163 1214 z "},"į":{"ha":239,"x_min":0,"x_max":0,"o":"m 267 -151 b 218 -175 250 -165 235 -175 b 190 -146 200 -175 190 -164 l 190 0 l 211 0 l 211 1042 l 28 1042 l 28 0 l 46 0 l 46 -165 b 201 -321 46 -267 101 -321 b 336 -271 253 -321 297 -303 z "},"ĵ":{"ha":624,"x_min":0,"x_max":0,"o":"m 283 -29 b 439 -110 344 -46 332 -110 b 594 125 607 -110 594 6 l 594 1042 l 413 1042 l 413 217 b 497 42 413 94 497 136 b 436 -11 497 17 471 -11 b 347 100 361 -11 413 100 b 264 79 306 100 294 79 b 218 147 244 79 218 107 b 331 350 218 218 331 260 b 208 485 331 407 297 485 b 61 344 96 485 61 417 b 78 192 61 314 78 224 b 42 54 78 121 42 101 b 147 -42 42 -3 79 -42 b 283 -29 211 -42 235 -15 z m 313 1201 l 517 1068 l 517 1221 l 388 1310 l 236 1310 l 107 1221 l 107 1068 z "},"ķ":{"ha":751,"x_min":0,"x_max":0,"o":"m 211 1042 l 28 1042 l 28 0 l 211 0 l 211 299 b 315 321 244 293 289 299 b 467 508 400 390 346 508 b 550 418 519 508 550 469 b 468 314 550 374 525 338 b 338 135 396 283 338 207 b 468 -15 338 11 410 -15 b 579 83 524 -15 579 7 b 508 233 579 135 508 172 b 724 447 508 324 724 274 b 564 564 724 546 663 592 b 497 592 533 556 497 560 b 590 704 497 632 590 619 b 490 814 590 794 490 749 b 585 847 490 839 514 846 b 692 963 633 849 692 890 b 583 1061 692 1003 658 1061 b 433 919 440 1061 517 919 b 274 839 306 919 274 883 b 449 657 274 718 449 750 b 331 546 449 583 394 546 b 211 593 263 546 236 574 z m 299 -267 b 235 -319 296 -314 263 -319 l 235 -386 b 383 -267 321 -386 361 -351 l 419 -136 l 306 -53 l 190 -136 l 235 -267 z "},"ĺ":{"ha":789,"x_min":0,"x_max":0,"o":"m 28 0 l 28 1042 l 211 1042 l 211 174 l 761 174 l 761 0 z m 397 1181 l 397 1346 l 31 1097 l 256 1097 z "},"ľ":{"ha":789,"x_min":0,"x_max":0,"o":"m 28 0 l 28 1042 l 211 1042 l 211 174 l 761 174 l 761 0 z m 449 896 b 375 822 444 836 411 822 l 375 749 b 542 914 478 753 506 788 l 581 1047 l 454 1139 l 326 1047 l 381 896 z "},"ļ":{"ha":789,"x_min":0,"x_max":0,"o":"m 761 0 l 761 174 l 211 174 l 211 1042 l 28 1042 l 28 0 z m 388 -267 b 324 -319 385 -314 351 -319 l 324 -386 b 472 -267 410 -386 450 -351 l 508 -136 l 394 -53 l 279 -136 l 324 -267 z "},"ŀ":{"ha":789,"x_min":0,"x_max":0,"o":"m 761 0 l 761 174 l 211 174 l 211 1042 l 28 1042 l 28 0 z m 604 565 l 463 667 l 322 565 l 375 403 l 550 403 z "},"ł":{"ha":943,"x_min":0,"x_max":0,"o":"m 486 453 b 561 544 557 453 572 500 b 618 633 549 596 560 633 b 683 719 642 633 683 658 b 588 814 683 765 649 814 b 492 715 524 814 489 776 b 432 636 493 674 468 636 b 365 710 390 636 365 640 l 365 1042 l 182 1042 l 182 594 b 115 528 182 535 157 528 b 28 439 63 528 28 504 b 104 365 28 414 49 365 b 182 406 140 365 150 382 l 182 0 l 915 0 l 915 174 l 365 174 l 365 425 b 403 489 365 478 381 489 b 486 453 422 489 433 453 z "},"ń":{"ha":808,"x_min":0,"x_max":0,"o":"m 28 0 l 28 1042 l 211 1042 l 211 1013 b 289 861 211 956 225 861 b 417 897 343 861 360 897 b 508 803 471 897 508 863 b 406 464 508 665 406 593 b 501 344 406 394 432 344 b 597 492 575 344 597 403 l 597 1042 l 781 1042 l 781 0 l 597 0 l 597 200 b 554 221 588 213 571 221 b 494 129 515 221 494 188 b 390 53 494 92 461 53 b 258 222 329 53 258 124 b 326 500 258 349 326 374 b 267 608 326 549 314 608 b 211 522 231 608 211 565 l 211 0 z m 657 1181 l 657 1346 l 290 1097 l 515 1097 z "},"ň":{"ha":808,"x_min":0,"x_max":0,"o":"m 211 0 l 211 522 b 267 608 211 565 231 608 b 326 500 314 608 326 549 b 258 222 326 374 258 349 b 390 53 258 124 329 53 b 494 129 461 53 494 92 b 554 221 494 188 515 221 b 597 200 571 221 588 213 l 597 0 l 781 0 l 781 1042 l 597 1042 l 597 492 b 501 344 597 403 575 344 b 406 464 432 344 406 394 b 508 803 406 593 508 665 b 417 897 508 863 471 897 b 289 861 360 897 343 861 b 211 1013 225 861 211 956 l 211 1042 l 28 1042 l 28 0 z m 199 1339 l 199 1186 l 328 1097 l 479 1097 l 608 1186 l 608 1339 l 404 1206 z "},"ñ":{"ha":808,"x_min":0,"x_max":0,"o":"m 28 0 l 28 1042 l 211 1042 l 211 1013 b 289 861 211 956 225 861 b 417 897 343 861 360 897 b 508 803 471 897 508 863 b 406 464 508 665 406 593 b 501 344 406 394 432 344 b 597 492 575 344 597 403 l 597 1042 l 781 1042 l 781 0 l 597 0 l 597 200 b 554 221 588 213 571 221 b 494 129 515 221 494 188 b 390 53 494 92 461 53 b 258 222 329 53 258 124 b 326 500 258 349 326 374 b 267 608 326 549 314 608 b 211 522 231 608 211 565 l 211 0 z m 503 1090 b 608 1135 544 1090 579 1106 l 608 1278 b 506 1219 588 1250 563 1219 b 304 1282 451 1219 371 1282 b 199 1238 263 1282 228 1267 l 199 1094 b 301 1153 219 1122 244 1153 b 503 1090 354 1153 436 1090 z "},"ņ":{"ha":808,"x_min":0,"x_max":0,"o":"m 211 0 l 211 522 b 267 608 211 565 231 608 b 326 500 314 608 326 549 b 258 222 326 374 258 349 b 390 53 258 124 329 53 b 494 129 461 53 494 92 b 554 221 494 188 515 221 b 597 200 571 221 588 213 l 597 0 l 781 0 l 781 1042 l 597 1042 l 597 492 b 501 344 597 403 575 344 b 406 464 432 344 406 394 b 508 803 406 593 508 665 b 417 897 508 863 471 897 b 289 861 360 897 343 861 b 211 1013 225 861 211 956 l 211 1042 l 28 1042 l 28 0 z m 397 -267 b 333 -319 394 -314 361 -319 l 333 -386 b 482 -267 419 -386 460 -351 l 518 -136 l 404 -53 l 289 -136 l 333 -267 z "},"ò":{"ha":965,"x_min":0,"x_max":0,"o":"m 64 403 b 49 272 65 338 49 313 b 231 79 49 144 183 167 b 450 -15 264 15 385 -15 b 721 172 603 -15 721 19 b 914 426 721 293 914 194 b 938 625 914 503 938 550 b 892 771 938 675 926 724 b 678 883 839 844 728 797 b 458 1051 618 989 586 1051 b 169 768 228 1051 233 856 b 31 590 104 679 46 696 b 64 403 21 522 63 493 z m 249 744 b 439 881 267 824 347 881 b 647 651 594 881 644 811 b 860 424 650 476 856 547 b 768 326 860 354 824 304 b 592 246 707 351 592 321 b 475 86 592 119 535 86 b 311 246 344 86 318 210 b 211 390 289 358 211 307 b 265 542 211 443 265 468 b 249 744 265 632 228 654 z m 371 1097 l 596 1097 l 229 1346 l 229 1181 z "},"ó":{"ha":965,"x_min":0,"x_max":0,"o":"m 64 403 b 49 272 65 338 49 313 b 231 79 49 144 183 167 b 450 -15 264 15 385 -15 b 721 172 603 -15 721 19 b 914 426 721 293 914 194 b 938 625 914 503 938 550 b 892 771 938 675 926 724 b 678 883 839 844 728 797 b 458 1051 618 989 586 1051 b 169 768 228 1051 233 856 b 31 590 104 679 46 696 b 64 403 21 522 63 493 z m 249 744 b 439 881 267 824 347 881 b 647 651 594 881 644 811 b 860 424 650 476 856 547 b 768 326 860 354 824 304 b 592 246 707 351 592 321 b 475 86 592 119 535 86 b 311 246 344 86 318 210 b 211 390 289 358 211 307 b 265 542 211 443 265 468 b 249 744 265 632 228 654 z m 708 1181 l 708 1346 l 342 1097 l 567 1097 z "},"ô":{"ha":965,"x_min":0,"x_max":0,"o":"m 64 403 b 49 272 65 338 49 313 b 231 79 49 144 183 167 b 450 -15 264 15 385 -15 b 721 172 603 -15 721 19 b 914 426 721 293 914 194 b 938 625 914 503 938 550 b 892 771 938 675 926 724 b 678 883 839 844 728 797 b 458 1051 618 989 586 1051 b 169 768 228 1051 233 856 b 31 590 104 679 46 696 b 64 403 21 522 63 493 z m 249 744 b 439 881 267 824 347 881 b 647 651 594 881 644 811 b 860 424 650 476 856 547 b 768 326 860 354 824 304 b 592 246 707 351 592 321 b 475 86 592 119 535 86 b 311 246 344 86 318 210 b 211 390 289 358 211 307 b 265 542 211 443 265 468 b 249 744 265 632 228 654 z m 456 1201 l 660 1068 l 660 1221 l 531 1310 l 379 1310 l 250 1221 l 250 1068 z "},"õ":{"ha":965,"x_min":0,"x_max":0,"o":"m 64 403 b 49 272 65 338 49 313 b 231 79 49 144 183 167 b 450 -15 264 15 385 -15 b 721 172 603 -15 721 19 b 914 426 721 293 914 194 b 938 625 914 503 938 550 b 892 771 938 675 926 724 b 678 883 839 844 728 797 b 458 1051 618 989 586 1051 b 169 768 228 1051 233 856 b 31 590 104 679 46 696 b 64 403 21 522 63 493 z m 249 744 b 439 881 267 824 347 881 b 647 651 594 881 644 811 b 860 424 650 476 856 547 b 768 326 860 354 824 304 b 592 246 707 351 592 321 b 475 86 592 119 535 86 b 311 246 344 86 318 210 b 211 390 289 358 211 307 b 265 542 211 443 265 468 b 249 744 265 632 228 654 z m 554 1090 b 660 1135 596 1090 631 1106 l 660 1278 b 557 1219 639 1250 614 1219 b 356 1282 503 1219 422 1282 b 250 1238 314 1282 279 1267 l 250 1094 b 353 1153 271 1122 296 1153 b 554 1090 406 1153 488 1090 z "},"ö":{"ha":965,"x_min":0,"x_max":0,"o":"m 64 403 b 49 272 65 338 49 313 b 231 79 49 144 183 167 b 450 -15 264 15 385 -15 b 721 172 603 -15 721 19 b 914 426 721 293 914 194 b 938 625 914 503 938 550 b 892 771 938 675 926 724 b 678 883 839 844 728 797 b 458 1051 618 989 586 1051 b 169 768 228 1051 233 856 b 31 590 104 679 46 696 b 64 403 21 522 63 493 z m 249 744 b 439 881 267 824 347 881 b 647 651 594 881 644 811 b 860 424 650 476 856 547 b 768 326 860 354 824 304 b 592 246 707 351 592 321 b 475 86 592 119 535 86 b 311 246 344 86 318 210 b 211 390 289 358 211 307 b 265 542 211 443 265 468 b 249 744 265 632 228 654 z m 410 1300 l 271 1300 l 228 1169 l 340 1089 l 454 1169 z m 636 1300 l 497 1300 l 454 1169 l 567 1089 l 681 1169 z "},"ō":{"ha":965,"x_min":0,"x_max":0,"o":"m 64 403 b 49 272 65 338 49 313 b 231 79 49 144 183 167 b 450 -15 264 15 385 -15 b 721 172 603 -15 721 19 b 914 426 721 293 914 194 b 938 625 914 503 938 550 b 892 771 938 675 926 724 b 678 883 839 844 728 797 b 458 1051 618 989 586 1051 b 169 768 228 1051 233 856 b 31 590 104 679 46 696 b 64 403 21 522 63 493 z m 249 744 b 439 881 267 824 347 881 b 647 651 594 881 644 811 b 860 424 650 476 856 547 b 768 326 860 354 824 304 b 592 246 707 351 592 321 b 475 86 592 119 535 86 b 311 246 344 86 318 210 b 211 390 289 358 211 307 b 265 542 211 443 265 468 b 249 744 265 632 228 654 z m 236 1126 l 646 1126 l 646 1258 l 236 1258 z "},"ŏ":{"ha":965,"x_min":0,"x_max":0,"o":"m 64 403 b 49 272 65 338 49 313 b 231 79 49 144 183 167 b 450 -15 264 15 385 -15 b 721 172 603 -15 721 19 b 914 426 721 293 914 194 b 938 625 914 503 938 550 b 892 771 938 675 926 724 b 678 883 839 844 728 797 b 458 1051 618 989 586 1051 b 169 768 228 1051 233 856 b 31 590 104 679 46 696 b 64 403 21 522 63 493 z m 249 744 b 439 881 267 824 347 881 b 647 651 594 881 644 811 b 860 424 650 476 856 547 b 768 326 860 354 824 304 b 592 246 707 351 592 321 b 475 86 592 119 535 86 b 311 246 344 86 318 210 b 211 390 289 358 211 307 b 265 542 211 443 265 468 b 249 744 265 632 228 654 z m 453 1214 b 378 1292 410 1214 382 1246 l 242 1292 b 453 1089 246 1165 333 1089 b 665 1292 572 1089 661 1165 l 529 1292 b 453 1214 525 1246 496 1214 z "},"ő":{"ha":965,"x_min":0,"x_max":0,"o":"m 64 403 b 49 272 65 338 49 313 b 231 79 49 144 183 167 b 450 -15 264 15 385 -15 b 721 172 603 -15 721 19 b 914 426 721 293 914 194 b 938 625 914 503 938 550 b 892 771 938 675 926 724 b 678 883 839 844 728 797 b 458 1051 618 989 586 1051 b 169 768 228 1051 233 856 b 31 590 104 679 46 696 b 64 403 21 522 63 493 z m 249 744 b 439 881 267 824 347 881 b 647 651 594 881 644 811 b 860 424 650 476 856 547 b 768 326 860 354 824 304 b 592 246 707 351 592 321 b 475 86 592 119 535 86 b 311 246 344 86 318 210 b 211 390 289 358 211 307 b 265 542 211 443 265 468 b 249 744 265 632 228 654 z m 525 1179 l 525 1338 l 225 1097 l 414 1097 z m 767 1179 l 767 1338 l 461 1097 l 650 1097 z "},"ǿ":{"ha":976,"x_min":0,"x_max":0,"o":"m 651 776 b 586 724 651 742 629 724 b 461 754 543 724 508 754 b 349 629 393 754 349 704 b 431 386 349 533 431 471 b 283 314 431 332 376 314 b 199 390 229 314 199 342 b 276 542 199 443 276 468 b 246 743 276 632 225 653 b 450 881 264 822 358 881 b 651 776 563 881 651 835 z m 78 413 b 60 272 79 347 60 313 b 239 63 60 144 192 150 b 461 -15 272 -1 379 -15 b 732 172 614 -15 732 39 b 925 426 732 293 925 194 b 949 625 925 503 949 550 b 893 767 949 675 928 719 b 689 883 840 840 739 797 b 469 1051 629 989 588 1051 b 192 761 239 1051 257 849 b 28 596 128 672 28 699 b 78 413 28 526 76 503 z m 706 628 b 871 424 706 453 871 575 b 779 326 871 354 835 304 b 650 249 718 351 650 324 b 486 86 650 122 613 86 b 333 207 379 86 333 154 b 551 303 333 306 488 161 b 535 543 586 379 535 458 b 654 676 535 628 592 676 b 706 628 683 676 706 660 z m 713 1181 l 713 1346 l 346 1097 l 571 1097 z "},"ŕ":{"ha":739,"x_min":0,"x_max":0,"o":"m 211 1042 b 286 964 204 974 232 964 b 558 1056 375 964 436 1056 b 711 928 661 1056 711 1013 b 686 754 711 869 686 854 b 711 618 686 679 711 678 b 539 486 711 531 618 486 b 339 538 428 486 422 538 b 264 451 296 538 264 510 b 365 365 264 400 300 363 b 594 474 522 372 496 474 b 710 367 667 474 710 428 b 624 239 710 290 649 293 b 613 119 606 199 613 171 b 472 -11 613 40 553 -11 b 365 113 421 -11 365 33 b 526 292 365 213 438 261 b 579 339 558 303 579 315 b 547 372 579 358 567 372 b 511 361 535 372 519 367 b 331 267 468 331 415 267 b 211 319 301 267 235 272 l 211 0 l 28 0 l 28 1042 z m 211 706 b 278 726 231 718 264 726 b 493 617 378 726 382 617 b 617 761 560 617 617 678 b 500 888 617 813 576 888 b 313 782 400 888 394 782 b 211 831 240 782 222 814 z m 608 1181 l 608 1346 l 242 1097 l 467 1097 z "},"ŗ":{"ha":739,"x_min":0,"x_max":0,"o":"m 28 1042 l 28 0 l 211 0 l 211 319 b 331 267 235 272 301 267 b 511 361 415 267 468 331 b 547 372 519 367 535 372 b 579 339 567 372 579 358 b 526 292 579 315 558 303 b 365 113 438 261 365 213 b 472 -11 365 33 421 -11 b 613 119 553 -11 613 40 b 624 239 613 171 606 199 b 710 367 649 293 710 290 b 594 474 710 428 667 474 b 365 365 496 474 522 372 b 264 451 300 363 264 400 b 339 538 264 510 296 538 b 539 486 422 538 428 486 b 711 618 618 486 711 531 b 686 754 711 678 686 679 b 711 928 686 854 711 869 b 558 1056 711 1013 661 1056 b 286 964 436 1056 375 964 b 211 1042 232 964 204 974 z m 211 831 b 313 782 222 814 240 782 b 500 888 394 782 400 888 b 617 761 576 888 617 813 b 493 617 617 678 560 617 b 278 726 382 617 378 726 b 211 706 264 726 231 718 z m 307 -267 b 243 -319 304 -314 271 -319 l 243 -386 b 392 -267 329 -386 369 -351 l 428 -136 l 314 -53 l 199 -136 l 243 -267 z "},"ř":{"ha":739,"x_min":0,"x_max":0,"o":"m 28 1042 l 28 0 l 211 0 l 211 319 b 331 267 235 272 301 267 b 511 361 415 267 468 331 b 547 372 519 367 535 372 b 579 339 567 372 579 358 b 526 292 579 315 558 303 b 365 113 438 261 365 213 b 472 -11 365 33 421 -11 b 613 119 553 -11 613 40 b 624 239 613 171 606 199 b 710 367 649 293 710 290 b 594 474 710 428 667 474 b 365 365 496 474 522 372 b 264 451 300 363 264 400 b 339 538 264 510 296 538 b 539 486 422 538 428 486 b 711 618 618 486 711 531 b 686 754 711 678 686 679 b 711 928 686 854 711 869 b 558 1056 711 1013 661 1056 b 286 964 436 1056 375 964 b 211 1042 232 964 204 974 z m 211 831 b 313 782 222 814 240 782 b 500 888 394 782 400 888 b 617 761 576 888 617 813 b 493 617 617 678 560 617 b 278 726 382 617 378 726 b 211 706 264 726 231 718 z m 164 1339 l 164 1186 l 293 1097 l 444 1097 l 574 1186 l 574 1339 l 369 1206 z "},"ś":{"ha":744,"x_min":0,"x_max":0,"o":"m 338 597 b 553 664 482 597 440 664 b 692 492 651 664 692 585 b 665 379 692 439 665 425 b 717 208 665 317 717 300 b 401 -15 717 85 593 -15 b 28 276 119 -15 28 117 b 167 414 28 372 93 414 b 279 218 288 414 292 336 b 401 58 268 108 319 58 b 553 146 451 58 553 69 b 440 304 553 228 439 211 b 476 449 440 358 476 389 b 376 544 476 515 432 544 b 190 478 297 544 264 478 b 63 601 96 478 63 536 b 136 793 63 696 132 700 b 107 939 140 843 107 885 b 244 1065 107 1011 156 1065 b 440 982 342 1065 350 982 b 565 1029 503 982 497 1029 b 678 878 642 1029 676 967 b 563 703 679 793 654 703 b 442 822 479 703 460 744 b 329 913 428 879 392 913 b 210 786 257 913 210 874 b 338 597 210 642 258 597 z m 597 1181 l 597 1346 l 231 1097 l 456 1097 z "},"ŝ":{"ha":744,"x_min":0,"x_max":0,"o":"m 338 597 b 210 786 258 597 210 642 b 329 913 210 874 257 913 b 442 822 392 913 428 879 b 563 703 460 744 479 703 b 678 878 654 703 679 793 b 565 1029 676 967 642 1029 b 440 982 497 1029 503 982 b 244 1065 350 982 342 1065 b 107 939 156 1065 107 1011 b 136 793 107 885 140 843 b 63 601 132 700 63 696 b 190 478 63 536 96 478 b 376 544 264 478 297 544 b 476 449 432 544 476 515 b 440 304 476 389 440 358 b 553 146 439 211 553 228 b 401 58 553 69 451 58 b 279 218 319 58 268 108 b 167 414 292 336 288 414 b 28 276 93 414 28 372 b 401 -15 28 117 119 -15 b 717 208 593 -15 717 85 b 665 379 717 300 665 317 b 692 492 665 425 692 439 b 553 664 692 585 651 664 b 338 597 440 664 482 597 z m 386 1201 l 590 1068 l 590 1221 l 461 1310 l 310 1310 l 181 1221 l 181 1068 z "},"š":{"ha":744,"x_min":0,"x_max":0,"o":"m 338 597 b 210 786 258 597 210 642 b 329 913 210 874 257 913 b 442 822 392 913 428 879 b 563 703 460 744 479 703 b 678 878 654 703 679 793 b 565 1029 676 967 642 1029 b 440 982 497 1029 503 982 b 244 1065 350 982 342 1065 b 107 939 156 1065 107 1011 b 136 793 107 885 140 843 b 63 601 132 700 63 696 b 190 478 63 536 96 478 b 376 544 264 478 297 544 b 476 449 432 544 476 515 b 440 304 476 389 440 358 b 553 146 439 211 553 228 b 401 58 553 69 451 58 b 279 218 319 58 268 108 b 167 414 292 336 288 414 b 28 276 93 414 28 372 b 401 -15 28 117 119 -15 b 717 208 593 -15 717 85 b 665 379 717 300 665 317 b 692 492 665 425 692 439 b 553 664 692 585 651 664 b 338 597 440 664 482 597 z m 169 1339 l 169 1186 l 299 1097 l 450 1097 l 579 1186 l 579 1339 l 375 1206 z "},"ş":{"ha":744,"x_min":0,"x_max":0,"o":"m 236 -299 b 367 -328 265 -315 315 -328 b 536 -174 453 -328 536 -276 b 438 -47 536 -101 485 -58 l 438 -14 b 717 208 608 -1 717 92 b 665 379 717 300 665 317 b 692 492 665 425 692 439 b 553 664 692 585 651 664 b 338 597 440 664 482 597 b 210 786 258 597 210 642 b 329 913 210 874 257 913 b 442 822 392 913 428 879 b 563 703 460 744 479 703 b 678 878 654 703 679 793 b 565 1029 676 967 642 1029 b 440 982 497 1029 503 982 b 244 1065 350 982 342 1065 b 107 939 156 1065 107 1011 b 136 793 107 885 140 843 b 63 601 132 700 63 696 b 190 478 63 536 96 478 b 376 544 264 478 297 544 b 476 449 432 544 476 515 b 440 304 476 389 440 358 b 553 146 439 211 553 228 b 401 58 553 69 451 58 b 279 218 319 58 268 108 b 167 414 292 336 288 414 b 28 276 93 414 28 372 b 306 -8 28 136 97 18 l 306 -128 b 396 -165 368 -121 396 -137 b 351 -201 396 -189 376 -201 b 275 -171 310 -201 275 -171 z "},"ș":{"ha":744,"x_min":0,"x_max":0,"o":"m 338 597 b 210 786 258 597 210 642 b 329 913 210 874 257 913 b 442 822 392 913 428 879 b 563 703 460 744 479 703 b 678 878 654 703 679 793 b 565 1029 676 967 642 1029 b 440 982 497 1029 503 982 b 244 1065 350 982 342 1065 b 107 939 156 1065 107 1011 b 136 793 107 885 140 843 b 63 601 132 700 63 696 b 190 478 63 536 96 478 b 376 544 264 478 297 544 b 476 449 432 544 476 515 b 440 304 476 389 440 358 b 553 146 439 211 553 228 b 401 58 553 69 451 58 b 279 218 319 58 268 108 b 167 414 292 336 288 414 b 28 276 93 414 28 372 b 401 -15 28 117 119 -15 b 717 208 593 -15 717 85 b 665 379 717 300 665 317 b 692 492 665 425 692 439 b 553 664 692 585 651 664 b 338 597 440 664 482 597 z m 374 -267 b 310 -319 371 -314 338 -319 l 310 -386 b 458 -267 396 -386 436 -351 l 494 -136 l 381 -53 l 265 -136 l 310 -267 z "},"ť":{"ha":789,"x_min":0,"x_max":0,"o":"m 28 868 l 303 868 l 303 0 l 486 0 l 486 868 l 761 868 l 761 1042 l 28 1042 z m 190 1339 l 190 1186 l 319 1097 l 471 1097 l 600 1186 l 600 1339 l 396 1206 z "},"ţ":{"ha":789,"x_min":0,"x_max":0,"o":"m 260 -299 b 390 -328 289 -315 339 -328 b 560 -174 476 -328 560 -276 b 461 -47 560 -101 508 -58 l 461 0 l 486 0 l 486 868 l 761 868 l 761 1042 l 28 1042 l 28 868 l 303 868 l 303 0 l 329 0 l 329 -128 b 419 -165 392 -121 419 -137 b 375 -201 419 -189 400 -201 b 299 -171 333 -201 299 -171 z "},"ț":{"ha":789,"x_min":0,"x_max":0,"o":"m 28 868 l 303 868 l 303 0 l 486 0 l 486 868 l 761 868 l 761 1042 l 28 1042 z m 388 -267 b 324 -319 385 -314 351 -319 l 324 -386 b 472 -267 410 -386 450 -351 l 508 -136 l 394 -53 l 279 -136 l 324 -267 z "},"ŧ":{"ha":789,"x_min":0,"x_max":0,"o":"m 154 435 l 303 435 l 303 0 l 486 0 l 486 435 l 633 435 l 633 608 l 486 608 l 486 868 l 761 868 l 761 1042 l 28 1042 l 28 868 l 303 868 l 303 608 l 154 608 z "},"ù":{"ha":810,"x_min":0,"x_max":0,"o":"m 211 1042 l 28 1042 l 28 194 b 101 96 89 197 104 157 b 297 -72 97 15 147 -72 b 450 38 371 -72 411 -24 b 542 103 476 79 501 103 b 599 0 583 103 601 65 l 782 0 l 782 1042 l 599 1042 l 599 417 b 542 300 599 356 583 300 b 435 331 496 300 486 331 b 382 269 393 331 382 293 b 428 163 382 215 428 210 b 335 71 428 104 379 71 b 211 208 261 71 211 122 z m 335 1097 l 560 1097 l 193 1346 l 193 1181 z "},"ú":{"ha":810,"x_min":0,"x_max":0,"o":"m 211 208 b 335 71 211 122 261 71 b 428 163 379 71 428 104 b 382 269 428 210 382 215 b 435 331 382 293 393 331 b 542 300 486 331 496 300 b 599 417 583 300 599 356 l 599 1042 l 782 1042 l 782 0 l 599 0 b 542 103 601 65 583 103 b 450 38 501 103 476 79 b 297 -72 411 -24 371 -72 b 101 96 147 -72 97 15 b 28 194 104 157 89 197 l 28 1042 l 211 1042 z m 631 1181 l 631 1346 l 264 1097 l 489 1097 z "},"û":{"ha":810,"x_min":0,"x_max":0,"o":"m 211 1042 l 28 1042 l 28 194 b 101 96 89 197 104 157 b 297 -72 97 15 147 -72 b 450 38 371 -72 411 -24 b 542 103 476 79 501 103 b 599 0 583 103 601 65 l 782 0 l 782 1042 l 599 1042 l 599 417 b 542 300 599 356 583 300 b 435 331 496 300 486 331 b 382 269 393 331 382 293 b 428 163 382 215 428 210 b 335 71 428 104 379 71 b 211 208 261 71 211 122 z m 406 1201 l 610 1068 l 610 1221 l 481 1310 l 329 1310 l 200 1221 l 200 1068 z "},"ũ":{"ha":810,"x_min":0,"x_max":0,"o":"m 211 208 b 335 71 211 122 261 71 b 428 163 379 71 428 104 b 382 269 428 210 382 215 b 435 331 382 293 393 331 b 542 300 486 331 496 300 b 599 417 583 300 599 356 l 599 1042 l 782 1042 l 782 0 l 599 0 b 542 103 601 65 583 103 b 450 38 501 103 476 79 b 297 -72 411 -24 371 -72 b 101 96 147 -72 97 15 b 28 194 104 157 89 197 l 28 1042 l 211 1042 z m 504 1090 b 610 1135 546 1090 581 1106 l 610 1278 b 507 1219 589 1250 564 1219 b 306 1282 453 1219 372 1282 b 200 1238 264 1282 229 1267 l 200 1094 b 303 1153 221 1122 246 1153 b 504 1090 356 1153 438 1090 z "},"ü":{"ha":810,"x_min":0,"x_max":0,"o":"m 211 208 b 335 71 211 122 261 71 b 428 163 379 71 428 104 b 382 269 428 210 382 215 b 435 331 382 293 393 331 b 542 300 486 331 496 300 b 599 417 583 300 599 356 l 599 1042 l 782 1042 l 782 0 l 599 0 b 542 103 601 65 583 103 b 450 38 501 103 476 79 b 297 -72 411 -24 371 -72 b 101 96 147 -72 97 15 b 28 194 104 157 89 197 l 28 1042 l 211 1042 z m 586 1300 l 447 1300 l 404 1169 l 517 1089 l 631 1169 z m 360 1300 l 221 1300 l 178 1169 l 290 1089 l 404 1169 z "},"ū":{"ha":810,"x_min":0,"x_max":0,"o":"m 211 1042 l 28 1042 l 28 194 b 101 96 89 197 104 157 b 297 -72 97 15 147 -72 b 450 38 371 -72 411 -24 b 542 103 476 79 501 103 b 599 0 583 103 601 65 l 782 0 l 782 1042 l 599 1042 l 599 417 b 542 300 599 356 583 300 b 435 331 496 300 486 331 b 382 269 393 331 382 293 b 428 163 382 215 428 210 b 335 71 428 104 379 71 b 211 208 261 71 211 122 z m 200 1126 l 610 1126 l 610 1258 l 200 1258 z "},"ŭ":{"ha":810,"x_min":0,"x_max":0,"o":"m 211 1042 l 28 1042 l 28 194 b 101 96 89 197 104 157 b 297 -72 97 15 147 -72 b 450 38 371 -72 411 -24 b 542 103 476 79 501 103 b 599 0 583 103 601 65 l 782 0 l 782 1042 l 599 1042 l 599 417 b 542 300 599 356 583 300 b 435 331 496 300 486 331 b 382 269 393 331 382 293 b 428 163 382 215 428 210 b 335 71 428 104 379 71 b 211 208 261 71 211 122 z m 404 1214 b 329 1292 361 1214 333 1246 l 193 1292 b 404 1089 197 1165 285 1089 b 617 1292 524 1089 613 1165 l 481 1292 b 404 1214 476 1246 447 1214 z "},"ů":{"ha":810,"x_min":0,"x_max":0,"o":"m 211 1042 l 28 1042 l 28 194 b 101 96 89 197 104 157 b 297 -72 97 15 147 -72 b 450 38 371 -72 411 -24 b 542 103 476 79 501 103 b 599 0 583 103 601 65 l 782 0 l 782 1042 l 599 1042 l 599 417 b 542 300 599 356 583 300 b 435 331 496 300 486 331 b 382 269 393 331 382 293 b 428 163 382 215 428 210 b 335 71 428 104 379 71 b 211 208 261 71 211 122 z m 250 1200 b 404 1046 250 1115 319 1046 b 558 1200 489 1046 558 1115 b 404 1354 558 1285 489 1354 b 250 1200 319 1354 250 1285 z m 350 1200 b 404 1254 350 1231 374 1254 b 458 1200 435 1254 458 1231 b 404 1146 458 1169 435 1146 b 350 1200 374 1146 350 1169 z "},"ű":{"ha":810,"x_min":0,"x_max":0,"o":"m 211 208 b 335 71 211 122 261 71 b 428 163 379 71 428 104 b 382 269 428 210 382 215 b 435 331 382 293 393 331 b 542 300 486 331 496 300 b 599 417 583 300 599 356 l 599 1042 l 782 1042 l 782 0 l 599 0 b 542 103 601 65 583 103 b 450 38 501 103 476 79 b 297 -72 411 -24 371 -72 b 101 96 147 -72 97 15 b 28 194 104 157 89 197 l 28 1042 l 211 1042 z m 475 1179 l 475 1338 l 175 1097 l 364 1097 z m 717 1179 l 717 1338 l 411 1097 l 600 1097 z "},"ų":{"ha":810,"x_min":0,"x_max":0,"o":"m 818 -151 b 769 -175 801 -165 786 -175 b 742 -146 751 -175 742 -164 l 742 0 l 782 0 l 782 1042 l 599 1042 l 599 417 b 542 300 599 356 583 300 b 435 331 496 300 486 331 b 382 269 393 331 382 293 b 428 163 382 215 428 210 b 335 71 428 104 379 71 b 211 208 261 71 211 122 l 211 1042 l 28 1042 l 28 194 b 101 96 89 197 104 157 b 297 -72 97 15 147 -72 b 450 38 371 -72 411 -24 b 542 103 476 79 501 103 b 597 36 575 103 593 78 l 597 -165 b 753 -321 597 -267 653 -321 b 888 -271 804 -321 849 -303 z "},"ẁ":{"ha":1040,"x_min":0,"x_max":0,"o":"m 1013 0 l 1013 1042 l 829 1042 l 829 422 b 749 208 829 258 799 208 b 678 293 692 208 678 250 b 796 653 678 424 796 503 b 660 799 796 739 740 799 b 415 553 465 799 543 553 b 318 583 379 553 368 583 b 240 476 254 583 240 506 b 357 204 240 374 357 293 b 322 168 357 183 346 168 b 207 331 258 168 207 219 l 207 1042 l 28 1042 l 28 0 l 207 0 b 251 83 207 56 219 83 b 353 31 285 83 281 31 b 421 140 431 31 421 115 b 510 269 421 243 510 161 b 446 429 510 347 446 339 b 524 529 446 496 485 529 b 608 399 563 529 608 506 b 522 122 608 271 522 250 b 656 -15 522 32 567 -15 b 785 83 750 -15 729 83 b 829 0 818 83 832 42 z m 478 1097 l 703 1097 l 336 1346 l 336 1181 z "},"ẃ":{"ha":1040,"x_min":0,"x_max":0,"o":"m 829 0 b 785 83 832 42 818 83 b 656 -15 729 83 750 -15 b 522 122 567 -15 522 32 b 608 399 522 250 608 271 b 524 529 608 506 563 529 b 446 429 485 529 446 496 b 510 269 446 339 510 347 b 421 140 510 161 421 243 b 353 31 421 115 431 31 b 251 83 281 31 285 83 b 207 0 219 83 207 56 l 28 0 l 28 1042 l 207 1042 l 207 331 b 322 168 207 219 258 168 b 357 204 346 168 357 183 b 240 476 357 293 240 374 b 318 583 240 506 254 583 b 415 553 368 583 379 553 b 660 799 543 553 465 799 b 796 653 740 799 796 739 b 678 293 796 503 678 424 b 749 208 678 250 692 208 b 829 422 799 208 829 258 l 829 1042 l 1013 1042 l 1013 0 z m 758 1181 l 758 1346 l 392 1097 l 617 1097 z "},"ŵ":{"ha":1040,"x_min":0,"x_max":0,"o":"m 1013 0 l 1013 1042 l 829 1042 l 829 422 b 749 208 829 258 799 208 b 678 293 692 208 678 250 b 796 653 678 424 796 503 b 660 799 796 739 740 799 b 415 553 465 799 543 553 b 318 583 379 553 368 583 b 240 476 254 583 240 506 b 357 204 240 374 357 293 b 322 168 357 183 346 168 b 207 331 258 168 207 219 l 207 1042 l 28 1042 l 28 0 l 207 0 b 251 83 207 56 219 83 b 353 31 285 83 281 31 b 421 140 431 31 421 115 b 510 269 421 243 510 161 b 446 429 510 347 446 339 b 524 529 446 496 485 529 b 608 399 563 529 608 506 b 522 122 608 271 522 250 b 656 -15 522 32 567 -15 b 785 83 750 -15 729 83 b 829 0 818 83 832 42 z m 521 1201 l 725 1068 l 725 1221 l 596 1310 l 444 1310 l 315 1221 l 315 1068 z "},"ẅ":{"ha":1040,"x_min":0,"x_max":0,"o":"m 829 0 b 785 83 832 42 818 83 b 656 -15 729 83 750 -15 b 522 122 567 -15 522 32 b 608 399 522 250 608 271 b 524 529 608 506 563 529 b 446 429 485 529 446 496 b 510 269 446 339 510 347 b 421 140 510 161 421 243 b 353 31 421 115 431 31 b 251 83 281 31 285 83 b 207 0 219 83 207 56 l 28 0 l 28 1042 l 207 1042 l 207 331 b 322 168 207 219 258 168 b 357 204 346 168 357 183 b 240 476 357 293 240 374 b 318 583 240 506 254 583 b 415 553 368 583 379 553 b 660 799 543 553 465 799 b 796 653 740 799 796 739 b 678 293 796 503 678 424 b 749 208 678 250 692 208 b 829 422 799 208 829 258 l 829 1042 l 1013 1042 l 1013 0 z m 701 1300 l 563 1300 l 519 1169 l 632 1089 l 746 1169 z m 475 1300 l 336 1300 l 293 1169 l 406 1089 l 519 1169 z "},"ỳ":{"ha":806,"x_min":0,"x_max":0,"o":"m 778 914 b 636 1051 778 1008 731 1051 b 474 881 546 1051 474 1003 b 571 593 474 775 571 729 b 472 500 571 531 536 500 b 393 590 424 500 393 533 b 438 718 393 651 438 681 b 372 771 438 742 418 771 b 282 726 324 771 317 726 b 238 767 251 726 238 738 b 297 943 238 838 296 857 b 161 1065 299 1024 243 1065 b 28 947 108 1065 31 1036 b 138 758 28 829 138 826 b 90 613 138 688 90 675 b 174 519 90 558 118 519 b 282 532 226 519 239 532 b 315 449 313 532 315 503 l 315 0 l 500 0 l 500 403 b 538 449 500 432 515 449 b 635 417 576 449 576 417 b 738 531 699 417 739 463 b 649 708 735 643 649 626 b 778 914 649 803 778 781 z m 319 1097 l 544 1097 l 178 1346 l 178 1181 z "},"ý":{"ha":806,"x_min":0,"x_max":0,"o":"m 778 914 b 636 1051 778 1008 731 1051 b 474 881 546 1051 474 1003 b 571 593 474 775 571 729 b 472 500 571 531 536 500 b 393 590 424 500 393 533 b 438 718 393 651 438 681 b 372 771 438 742 418 771 b 282 726 324 771 317 726 b 238 767 251 726 238 738 b 297 943 238 838 296 857 b 161 1065 299 1024 243 1065 b 28 947 108 1065 31 1036 b 138 758 28 829 138 826 b 90 613 138 688 90 675 b 174 519 90 558 118 519 b 282 532 226 519 239 532 b 315 449 313 532 315 503 l 315 0 l 500 0 l 500 403 b 538 449 500 432 515 449 b 635 417 576 449 576 417 b 738 531 699 417 739 463 b 649 708 735 643 649 626 b 778 914 649 803 778 781 z m 656 1181 l 656 1346 l 289 1097 l 514 1097 z "},"ŷ":{"ha":806,"x_min":0,"x_max":0,"o":"m 778 914 b 636 1051 778 1008 731 1051 b 474 881 546 1051 474 1003 b 571 593 474 775 571 729 b 472 500 571 531 536 500 b 393 590 424 500 393 533 b 438 718 393 651 438 681 b 372 771 438 742 418 771 b 282 726 324 771 317 726 b 238 767 251 726 238 738 b 297 943 238 838 296 857 b 161 1065 299 1024 243 1065 b 28 947 108 1065 31 1036 b 138 758 28 829 138 826 b 90 613 138 688 90 675 b 174 519 90 558 118 519 b 282 532 226 519 239 532 b 315 449 313 532 315 503 l 315 0 l 500 0 l 500 403 b 538 449 500 432 515 449 b 635 417 576 449 576 417 b 738 531 699 417 739 463 b 649 708 735 643 649 626 b 778 914 649 803 778 781 z m 417 1201 l 621 1068 l 621 1221 l 492 1310 l 340 1310 l 211 1221 l 211 1068 z "},"ÿ":{"ha":806,"x_min":0,"x_max":0,"o":"m 778 914 b 636 1051 778 1008 731 1051 b 474 881 546 1051 474 1003 b 571 593 474 775 571 729 b 472 500 571 531 536 500 b 393 590 424 500 393 533 b 438 718 393 651 438 681 b 372 771 438 742 418 771 b 282 726 324 771 317 726 b 238 767 251 726 238 738 b 297 943 238 838 296 857 b 161 1065 299 1024 243 1065 b 28 947 108 1065 31 1036 b 138 758 28 829 138 826 b 90 613 138 688 90 675 b 174 519 90 558 118 519 b 282 532 226 519 239 532 b 315 449 313 532 315 503 l 315 0 l 500 0 l 500 403 b 538 449 500 432 515 449 b 635 417 576 449 576 417 b 738 531 699 417 739 463 b 649 708 735 643 649 626 b 778 914 649 803 778 781 z m 599 1300 l 460 1300 l 417 1169 l 529 1089 l 643 1169 z m 372 1300 l 233 1300 l 190 1169 l 303 1089 l 417 1169 z "},"ź":{"ha":715,"x_min":0,"x_max":0,"o":"m 688 0 l 28 0 l 28 176 b 114 315 28 253 60 315 b 243 244 179 315 178 244 b 306 299 286 244 306 265 b 139 594 306 400 139 383 b 317 768 139 722 260 768 b 511 696 429 768 461 696 b 572 771 542 696 572 718 b 496 858 572 814 539 858 l 28 858 l 28 1042 l 688 1042 l 688 858 b 644 731 654 844 642 818 b 649 540 646 672 649 588 b 556 404 649 456 622 404 b 463 513 496 404 463 439 b 383 594 463 558 421 594 b 299 517 347 594 299 579 b 506 282 299 374 506 408 b 424 231 506 229 464 224 b 379 208 397 236 379 228 b 417 182 379 190 399 182 l 688 183 z m 554 1181 l 554 1346 l 188 1097 l 413 1097 z "},"ž":{"ha":715,"x_min":0,"x_max":0,"o":"m 688 183 l 417 182 b 379 208 399 182 379 190 b 424 231 379 228 397 236 b 506 282 464 224 506 229 b 299 517 506 408 299 374 b 383 594 299 579 347 594 b 463 513 421 594 463 558 b 556 404 463 439 496 404 b 649 540 622 404 649 456 b 644 731 649 588 646 672 b 688 858 642 818 654 844 l 688 1042 l 28 1042 l 28 858 l 496 858 b 572 771 539 858 572 814 b 511 696 572 718 542 696 b 317 768 461 696 429 768 b 139 594 260 768 139 722 b 306 299 139 383 306 400 b 243 244 306 265 286 244 b 114 315 178 244 179 315 b 28 176 60 315 28 253 l 28 0 l 688 0 z m 160 1339 l 160 1186 l 289 1097 l 440 1097 l 569 1186 l 569 1339 l 365 1206 z "},"ż":{"ha":715,"x_min":0,"x_max":0,"o":"m 688 0 l 28 0 l 28 176 b 114 315 28 253 60 315 b 243 244 179 315 178 244 b 306 299 286 244 306 265 b 139 594 306 400 139 383 b 317 768 139 722 260 768 b 511 696 429 768 461 696 b 572 771 542 696 572 718 b 496 858 572 814 539 858 l 28 858 l 28 1042 l 688 1042 l 688 858 b 644 731 654 844 642 818 b 649 540 646 672 649 588 b 556 404 649 456 622 404 b 463 513 496 404 463 439 b 383 594 463 558 421 594 b 299 517 347 594 299 579 b 506 282 299 374 506 408 b 424 231 506 229 464 224 b 379 208 397 236 379 228 b 417 182 379 190 399 182 l 688 183 z m 426 1300 l 288 1300 l 244 1169 l 357 1089 l 471 1169 z "},"ı":{"ha":239,"x_min":0,"x_max":0,"o":"m 28 0 l 211 0 l 211 1042 l 28 1042 z "},"ﬁ":{"ha":1039,"x_min":0,"x_max":0,"o":"m 943 0 l 943 560 b 1011 813 943 724 1011 708 b 901 917 1011 876 971 917 b 649 726 743 917 804 726 b 518 904 540 726 526 808 b 367 1051 508 1010 443 1051 b 189 857 250 1051 189 975 l 189 593 l 28 593 l 28 410 l 189 410 l 189 0 l 372 0 l 372 410 l 543 410 l 543 593 l 372 593 l 372 767 b 425 835 372 810 394 835 b 483 764 464 835 483 803 b 465 679 483 732 465 713 b 539 608 465 636 492 608 b 690 669 613 608 628 669 b 760 575 742 669 760 631 l 760 0 z "},"ﬀ":{"ha":1086,"x_min":0,"x_max":0,"o":"m 372 0 l 372 410 l 543 410 l 543 593 l 372 593 l 372 688 b 424 806 372 749 378 806 b 461 701 463 806 461 747 b 543 622 461 653 488 621 b 611 667 576 624 599 646 l 611 0 l 794 0 l 794 435 l 1058 435 l 1058 608 l 794 608 l 794 868 l 1058 868 l 1058 1042 l 681 1042 b 582 883 607 1042 590 956 b 531 794 575 822 565 794 b 461 915 494 794 474 849 b 331 1051 444 1004 403 1051 b 189 894 233 1051 189 979 l 189 593 l 28 593 l 28 410 l 189 410 l 189 0 z "},"ﬂ":{"ha":1057,"x_min":0,"x_max":0,"o":"m 372 0 l 372 410 l 543 410 l 543 593 l 372 593 l 372 688 b 424 806 372 749 378 806 b 461 701 463 806 461 747 b 543 622 461 653 488 621 b 610 649 576 624 596 633 l 610 0 l 1029 0 l 1029 183 l 793 183 l 793 596 b 840 872 799 783 840 781 b 714 997 840 957 782 997 b 582 883 640 997 590 956 b 531 794 575 822 565 794 b 461 915 494 794 474 849 b 331 1051 444 1004 403 1051 b 189 894 233 1051 189 979 l 189 593 l 28 593 l 28 410 l 189 410 l 189 0 z "},"ˇ":{"ha":549,"x_min":0,"x_max":0,"o":"m 69 1339 l 69 1186 l 199 1097 l 350 1097 l 479 1186 l 479 1339 l 275 1206 z "},"ˆ":{"ha":549,"x_min":0,"x_max":0,"o":"m 275 1201 l 479 1068 l 479 1221 l 350 1310 l 199 1310 l 69 1221 l 69 1068 z "},"´":{"ha":506,"x_min":0,"x_max":0,"o":"m 436 1181 l 436 1346 l 69 1097 l 294 1097 z "},"`":{"ha":506,"x_min":0,"x_max":0,"o":"m 211 1097 l 436 1097 l 69 1346 l 69 1181 z "},"¯":{"ha":549,"x_min":0,"x_max":0,"o":"m 69 1126 l 479 1126 l 479 1258 l 69 1258 z "},"˘":{"ha":563,"x_min":0,"x_max":0,"o":"m 281 1214 b 206 1292 238 1214 210 1246 l 69 1292 b 281 1089 74 1165 161 1089 b 493 1292 400 1089 489 1165 l 357 1292 b 281 1214 353 1246 324 1214 z "},"˚":{"ha":447,"x_min":0,"x_max":0,"o":"m 69 1200 b 224 1046 69 1115 139 1046 b 378 1200 308 1046 378 1115 b 224 1354 378 1285 308 1354 b 69 1200 139 1354 69 1285 z m 169 1200 b 224 1254 169 1231 193 1254 b 278 1200 254 1254 278 1231 b 224 1146 278 1169 254 1146 b 169 1200 193 1146 169 1169 z "},"˜":{"ha":549,"x_min":0,"x_max":0,"o":"m 374 1090 b 479 1135 415 1090 450 1106 l 479 1278 b 376 1219 458 1250 433 1219 b 175 1282 322 1219 242 1282 b 69 1238 133 1282 99 1267 l 69 1094 b 172 1153 90 1122 115 1153 b 374 1090 225 1153 307 1090 z "},"˙":{"ha":365,"x_min":0,"x_max":0,"o":"m 251 1300 l 113 1300 l 69 1169 l 182 1089 l 296 1169 z "},"˝":{"ha":681,"x_min":0,"x_max":0,"o":"m 369 1179 l 369 1338 l 69 1097 l 258 1097 z m 611 1179 l 611 1338 l 306 1097 l 494 1097 z "},"¨":{"ha":592,"x_min":0,"x_max":0,"o":"m 251 1300 l 113 1300 l 69 1169 l 182 1089 l 296 1169 z m 478 1300 l 339 1300 l 296 1169 l 408 1089 l 522 1169 z "},"¸":{"ha":439,"x_min":0,"x_max":0,"o":"m 69 -299 b 200 -328 99 -315 149 -328 b 369 -174 286 -328 369 -276 b 271 -47 369 -101 318 -58 l 271 21 l 139 21 l 139 -128 b 229 -165 201 -121 229 -137 b 185 -201 229 -189 210 -201 b 108 -171 143 -201 108 -171 z "},"˛":{"ha":429,"x_min":0,"x_max":0,"o":"m 290 -151 b 242 -175 274 -165 258 -175 b 214 -146 224 -175 214 -164 l 214 36 l 69 36 l 69 -165 b 225 -321 69 -267 125 -321 b 360 -271 276 -321 321 -303 z "},"$":{"ha":450,"x_min":0,"x_max":0,"o":"m 172 838 b 35 664 93 817 35 749 b 206 468 35 551 131 506 b 311 376 263 439 311 417 b 228 301 311 328 274 301 b 107 404 174 301 129 357 l 28 328 b 172 204 51 275 108 225 l 172 121 l 275 121 l 275 200 b 422 378 358 218 422 286 b 265 563 422 482 339 526 b 144 664 203 593 144 618 b 225 740 144 711 181 740 b 340 639 278 740 318 685 l 421 715 b 275 839 396 768 338 819 l 275 921 l 172 921 z "},"¢":{"ha":539,"x_min":0,"x_max":0,"o":"m 301 843 b 28 521 146 818 28 688 b 301 199 28 354 146 222 l 301 121 l 404 121 l 404 197 b 511 236 443 203 479 217 l 457 328 b 404 304 440 317 424 308 l 404 739 b 458 717 424 735 442 726 l 511 806 b 404 843 479 825 443 838 l 404 921 l 301 921 z m 133 521 b 301 739 133 629 200 717 l 301 304 b 133 521 201 326 133 413 z "},"£":{"ha":557,"x_min":0,"x_max":0,"o":"m 529 565 l 529 669 l 425 669 b 219 846 408 763 324 846 b 28 664 115 846 28 768 b 182 471 28 561 94 514 b 257 383 233 446 257 419 b 58 314 257 343 229 303 l 58 208 l 529 208 l 529 313 l 326 313 b 367 399 350 338 365 367 b 240 561 371 483 314 525 b 138 664 178 592 138 618 b 218 740 138 711 174 740 b 336 599 271 740 332 690 l 336 565 z "},"¥":{"ha":561,"x_min":0,"x_max":0,"o":"m 226 471 l 226 311 l 61 311 l 61 208 l 500 208 l 500 311 l 335 311 l 335 471 l 500 471 l 500 572 l 351 572 l 533 833 l 410 833 l 281 638 l 151 833 l 28 833 l 210 572 l 61 572 l 61 471 z "},"€":{"ha":539,"x_min":0,"x_max":0,"o":"m 354 194 b 511 236 411 194 467 208 l 457 328 b 354 299 428 308 393 299 b 181 379 282 299 221 329 l 511 379 l 511 482 l 136 482 b 133 521 133 494 133 507 b 136 563 133 535 135 549 l 511 563 l 511 664 l 181 664 b 354 744 221 713 281 744 b 458 717 393 744 429 736 l 511 806 b 354 847 467 833 411 847 b 28 521 174 847 28 706 b 354 194 28 336 174 194 z "},"#":{"ha":757,"x_min":0,"x_max":0,"o":"m 129 260 l 129 0 l 228 0 l 228 260 l 529 260 l 529 0 l 628 0 l 628 260 l 729 260 l 729 357 l 628 357 l 628 685 l 729 685 l 729 782 l 628 782 l 628 1042 l 529 1042 l 529 782 l 228 782 l 228 1042 l 129 1042 l 129 782 l 28 782 l 28 685 l 129 685 l 129 357 l 28 357 l 28 260 z m 228 685 l 529 685 l 529 357 l 228 357 z "},"%":{"ha":831,"x_min":0,"x_max":0,"o":"m 28 0 l 132 0 l 803 1042 l 699 1042 z m 390 246 b 596 42 390 128 481 42 b 801 246 711 42 801 128 b 596 450 801 364 711 450 b 390 246 481 450 390 364 z m 710 246 b 596 132 710 178 661 132 b 482 246 531 132 482 178 b 596 360 482 314 531 360 b 710 246 661 360 710 314 z m 29 797 b 235 593 29 679 119 593 b 440 797 350 593 440 679 b 235 1001 440 915 350 1001 b 29 797 119 1001 29 915 z m 349 797 b 235 683 349 729 300 683 b 121 797 169 683 121 729 b 235 911 121 865 169 911 b 349 797 300 911 349 865 z "},"‰":{"ha":921,"x_min":0,"x_max":0,"o":"m 893 390 b 688 596 893 504 801 596 b 483 418 583 596 497 518 b 390 246 428 382 390 318 b 596 40 390 132 482 40 b 800 218 700 40 786 118 b 893 390 856 254 893 318 z m 29 797 b 235 593 29 679 119 593 b 440 797 350 593 440 679 b 235 1001 440 915 350 1001 b 29 797 119 1001 29 915 z m 28 0 l 132 0 l 803 1042 l 699 1042 z m 349 797 b 235 683 349 729 300 683 b 121 797 169 683 121 729 b 235 911 121 865 169 911 b 349 797 300 911 349 865 z m 479 246 b 499 308 479 269 486 290 b 688 186 529 236 603 186 l 697 186 b 596 129 678 151 640 129 b 479 246 529 129 479 182 z m 804 390 b 785 325 804 365 797 343 b 596 451 754 399 681 451 l 588 451 b 688 507 607 485 644 507 b 804 390 754 507 804 454 z m 596 361 b 708 276 649 361 694 325 b 688 275 701 275 694 275 b 575 360 633 275 589 310 b 596 361 582 361 589 361 z "},"⁄":{"ha":831,"x_min":0,"x_max":0,"o":"m 28 0 l 128 0 l 803 1042 l 703 1042 z "},"^":{"ha":757,"x_min":0,"x_max":0,"o":"m 308 1042 l 28 340 l 215 340 l 381 800 l 546 340 l 729 340 l 453 1042 z "},"~":{"ha":757,"x_min":0,"x_max":0,"o":"m 536 381 b 729 464 615 381 676 411 l 729 651 b 542 543 690 603 644 543 b 219 660 444 543 343 660 b 28 575 140 660 81 629 l 28 390 b 221 496 67 439 118 496 b 536 381 318 496 413 381 z "},"·":{"ha":338,"x_min":0,"x_max":0,"o":"m 310 565 l 168 667 l 28 565 l 81 403 l 256 403 z "},"+":{"ha":757,"x_min":0,"x_max":0,"o":"m 465 171 l 465 435 l 729 435 l 729 608 l 465 608 l 465 872 l 292 872 l 292 608 l 28 608 l 28 435 l 292 435 l 292 171 z "},"±":{"ha":757,"x_min":0,"x_max":0,"o":"m 465 340 l 465 604 l 729 604 l 729 778 l 465 778 l 465 1042 l 292 1042 l 292 778 l 28 778 l 28 604 l 292 604 l 292 340 z m 28 0 l 729 0 l 729 174 l 28 174 z "},"<":{"ha":757,"x_min":0,"x_max":0,"o":"m 28 449 l 729 171 l 729 357 l 269 521 l 729 685 l 729 872 l 28 593 z "},"=":{"ha":757,"x_min":0,"x_max":0,"o":"m 28 261 l 729 261 l 729 435 l 28 435 z m 28 608 l 729 608 l 729 782 l 28 782 z "},">":{"ha":757,"x_min":0,"x_max":0,"o":"m 729 593 l 28 872 l 28 685 l 488 521 l 28 357 l 28 171 l 729 449 z "},"|":{"ha":156,"x_min":0,"x_max":0,"o":"m 128 1042 l 28 1042 l 28 0 l 128 0 z "},"¦":{"ha":156,"x_min":0,"x_max":0,"o":"m 128 1042 l 28 1042 l 28 631 l 128 631 z m 128 411 l 28 411 l 28 0 l 128 0 z "},"×":{"ha":757,"x_min":0,"x_max":0,"o":"m 500 521 l 729 750 l 607 872 l 378 643 l 150 872 l 28 750 l 256 521 l 28 293 l 150 171 l 378 399 l 607 171 l 729 293 z "},"÷":{"ha":757,"x_min":0,"x_max":0,"o":"m 290 872 l 238 710 l 378 608 l 28 608 l 28 435 l 378 435 l 238 333 l 290 171 l 465 171 l 519 333 l 378 435 l 729 435 l 729 608 l 378 608 l 519 710 l 465 872 z "},"−":{"ha":757,"x_min":0,"x_max":0,"o":"m 28 435 l 729 435 l 729 608 l 28 608 z "},"≈":{"ha":757,"x_min":0,"x_max":0,"o":"m 536 554 b 729 638 615 554 676 585 l 729 825 b 542 717 690 776 644 717 b 219 833 444 717 343 833 b 28 749 140 833 81 803 l 28 564 b 221 669 67 613 118 669 b 536 554 318 669 413 554 z m 536 207 b 729 290 615 207 676 238 l 729 478 b 542 369 690 429 644 369 b 219 486 444 369 343 486 b 28 401 140 486 81 456 l 28 217 b 221 322 67 265 118 322 b 536 207 318 322 413 207 z "},"≠":{"ha":757,"x_min":0,"x_max":0,"o":"m 28 261 l 147 261 l 106 185 l 286 185 l 328 261 l 729 261 l 729 435 l 422 435 l 517 608 l 729 608 l 729 782 l 610 782 l 651 857 l 471 857 l 429 782 l 28 782 l 28 608 l 336 608 l 242 435 l 28 435 z "},"≤":{"ha":757,"x_min":0,"x_max":0,"o":"m 28 0 l 729 0 l 729 174 l 28 174 z m 28 618 l 729 343 l 729 526 l 269 690 l 729 854 l 729 1042 l 28 763 z "},"≥":{"ha":757,"x_min":0,"x_max":0,"o":"m 729 174 l 28 174 l 28 0 l 729 0 z m 729 763 l 28 1042 l 28 854 l 488 690 l 28 526 l 28 343 l 729 618 z "},"¬":{"ha":757,"x_min":0,"x_max":0,"o":"m 729 0 l 729 608 l 28 608 l 28 435 l 556 435 l 556 0 z "},"°":{"ha":467,"x_min":0,"x_max":0,"o":"m 28 836 b 233 631 28 722 119 631 b 439 836 347 631 439 722 b 233 1042 439 950 347 1042 b 28 836 119 1042 28 950 z m 349 836 b 233 721 349 772 297 721 b 118 836 169 721 118 772 b 233 951 118 900 169 951 b 349 836 297 951 349 900 z "},"_":{"ha":757,"x_min":0,"x_max":0,"o":"m 729 -100 l 729 0 l 28 0 l 28 -100 z "},"-":{"ha":479,"x_min":0,"x_max":0,"o":"m 28 435 l 451 435 l 451 608 l 28 608 z "},"—":{"ha":1458,"x_min":0,"x_max":0,"o":"m 1431 435 l 1431 608 l 28 608 l 28 435 z "},"–":{"ha":757,"x_min":0,"x_max":0,"o":"m 28 435 l 729 435 l 729 608 l 28 608 z "},"'":{"ha":264,"x_min":0,"x_max":0,"o":"m 182 631 l 236 1042 l 28 1042 l 82 631 z "},"\"":{"ha":474,"x_min":0,"x_max":0,"o":"m 182 631 l 236 1042 l 28 1042 l 82 631 z m 392 631 l 446 1042 l 238 1042 l 292 631 z "},"«":{"ha":632,"x_min":0,"x_max":0,"o":"m 378 643 l 378 399 l 604 174 l 604 399 l 478 521 l 604 643 l 604 868 z m 28 521 l 378 174 l 378 399 l 250 521 l 378 643 l 378 868 z "},"‹":{"ha":404,"x_min":0,"x_max":0,"o":"m 28 521 l 376 174 l 376 399 l 250 521 l 376 643 l 376 868 z "},"›":{"ha":404,"x_min":0,"x_max":0,"o":"m 28 868 l 28 643 l 154 521 l 28 399 l 28 174 l 376 521 z "},"»":{"ha":632,"x_min":0,"x_max":0,"o":"m 28 868 l 28 643 l 154 521 l 28 399 l 28 174 l 254 399 l 254 174 l 604 521 l 254 868 l 254 643 l 382 521 l 254 399 l 254 643 z "},"‚":{"ha":338,"x_min":0,"x_max":0,"o":"m 176 0 b 72 -74 172 -60 108 -74 l 72 -147 b 265 0 175 -143 229 -107 b 310 163 290 75 310 163 l 169 264 l 28 163 l 82 0 z "},"„":{"ha":619,"x_min":0,"x_max":0,"o":"m 176 0 b 72 -74 172 -60 108 -74 l 72 -147 b 265 0 175 -143 229 -107 b 310 163 290 75 310 163 l 169 264 l 28 163 l 82 0 z m 458 0 b 354 -74 454 -60 390 -74 l 354 -147 b 547 0 457 -143 511 -107 b 592 163 572 75 592 163 l 451 264 l 310 163 l 364 0 z "},"“":{"ha":619,"x_min":0,"x_max":0,"o":"m 443 894 b 547 968 447 954 511 968 l 547 1042 b 354 894 444 1038 390 1001 b 310 732 329 819 310 732 l 450 631 l 592 732 l 538 894 z m 161 894 b 265 968 165 954 229 968 l 265 1042 b 72 894 163 1038 108 1001 b 28 732 47 819 28 732 l 168 631 l 310 732 l 256 894 z "},"”":{"ha":619,"x_min":0,"x_max":0,"o":"m 176 778 b 72 704 172 718 108 704 l 72 631 b 265 778 175 635 229 671 b 310 940 290 853 310 940 l 169 1042 l 28 940 l 82 778 z m 458 778 b 354 704 454 718 390 704 l 354 631 b 547 778 457 635 511 671 b 592 940 572 853 592 940 l 451 1042 l 310 940 l 364 778 z "},"‘":{"ha":338,"x_min":0,"x_max":0,"o":"m 161 894 b 265 968 165 954 229 968 l 265 1042 b 72 894 163 1038 108 1001 b 28 732 47 819 28 732 l 168 631 l 310 732 l 256 894 z "},"’":{"ha":338,"x_min":0,"x_max":0,"o":"m 176 778 b 72 704 172 718 108 704 l 72 631 b 265 778 175 635 229 671 b 310 940 290 853 310 940 l 169 1042 l 28 940 l 82 778 z "},",":{"ha":338,"x_min":0,"x_max":0,"o":"m 176 0 b 72 -74 172 -60 108 -74 l 72 -147 b 265 0 175 -143 229 -107 b 310 163 290 75 310 163 l 169 264 l 28 163 l 82 0 z "},".":{"ha":338,"x_min":0,"x_max":0,"o":"m 256 264 l 81 264 l 28 101 l 168 0 l 310 101 z "},":":{"ha":338,"x_min":0,"x_max":0,"o":"m 256 0 l 81 0 l 28 163 l 168 264 l 310 163 z m 256 790 l 81 790 l 28 628 l 168 526 l 310 628 z "},";":{"ha":338,"x_min":0,"x_max":0,"o":"m 176 0 b 72 -74 172 -60 108 -74 l 72 -147 b 265 0 175 -143 229 -107 b 310 163 290 75 310 163 l 169 264 l 28 163 l 82 0 z m 256 790 l 81 790 l 28 628 l 168 526 l 310 628 z "},"…":{"ha":901,"x_min":0,"x_max":0,"o":"m 310 163 l 168 264 l 28 163 l 81 0 l 256 0 z m 874 163 l 732 264 l 592 163 l 644 0 l 819 0 z m 592 163 l 450 264 l 310 163 l 363 0 l 538 0 z "},"?":{"ha":757,"x_min":0,"x_max":0,"o":"m 151 603 b 288 765 282 603 292 692 b 228 907 285 822 228 875 b 254 933 228 922 238 933 b 367 844 301 933 296 843 b 492 897 414 846 438 897 b 543 854 519 897 543 882 b 449 744 543 778 449 815 b 575 621 449 653 575 699 b 522 569 575 590 551 569 b 368 654 453 569 442 669 b 333 599 338 647 333 619 b 342 515 333 568 349 535 b 226 399 324 472 225 503 b 314 260 228 319 306 319 l 179 163 l 232 0 l 407 0 l 461 165 l 325 260 b 429 358 335 313 429 278 b 392 471 429 400 392 431 b 417 499 392 483 401 499 b 556 422 450 499 483 422 b 664 589 643 422 639 508 b 728 674 676 629 726 617 b 654 792 729 746 657 714 b 674 938 653 839 674 892 b 574 1033 674 989 629 1033 b 446 1004 532 1033 499 1004 b 174 1101 354 1004 300 1101 b 44 986 108 1101 44 1060 b 65 869 44 946 65 894 b 28 721 65 804 28 788 b 151 603 28 654 78 603 z "},"¿":{"ha":757,"x_min":0,"x_max":0,"o":"m 606 439 b 469 276 475 439 465 350 b 514 113 474 203 564 138 b 390 197 460 85 471 178 b 214 188 326 213 244 111 b 308 297 186 258 308 226 b 189 421 308 389 189 343 b 236 461 189 451 215 461 b 389 388 306 461 315 350 b 415 526 456 421 403 494 b 531 635 433 569 528 531 b 443 782 526 714 451 722 l 578 879 l 525 1042 l 350 1042 l 296 876 l 432 782 b 335 714 425 731 357 789 b 361 557 314 642 385 581 b 172 633 315 511 282 661 b 93 453 78 610 117 528 b 29 368 81 413 31 425 b 103 250 28 296 100 328 b 119 31 106 174 47 79 b 311 38 200 -24 235 38 b 635 -40 425 38 517 -111 b 681 158 669 -19 722 33 b 729 321 656 233 729 231 b 606 439 729 388 679 439 z "},"!":{"ha":338,"x_min":0,"x_max":0,"o":"m 310 165 l 174 260 l 272 1042 l 64 1042 l 163 260 l 28 163 l 81 0 l 256 0 z "},"¡":{"ha":338,"x_min":0,"x_max":0,"o":"m 256 1042 l 81 1042 l 28 879 l 163 782 l 64 0 l 272 0 l 174 782 l 310 876 z "},"(":{"ha":306,"x_min":0,"x_max":0,"o":"m 28 521 b 278 -22 28 299 136 99 l 278 117 b 128 521 194 213 128 356 b 278 925 128 686 194 829 l 278 1064 b 28 521 136 943 28 743 z "},")":{"ha":306,"x_min":0,"x_max":0,"o":"m 278 521 b 28 1064 278 743 169 943 l 28 925 b 178 521 111 829 178 686 b 28 117 178 356 111 213 l 28 -22 b 278 521 169 99 278 299 z "},"[":{"ha":306,"x_min":0,"x_max":0,"o":"m 278 0 l 278 96 l 128 96 l 128 946 l 278 946 l 278 1042 l 28 1042 l 28 0 z "},"]":{"ha":306,"x_min":0,"x_max":0,"o":"m 278 0 l 278 1042 l 28 1042 l 28 946 l 178 946 l 178 96 l 28 96 l 28 0 z "},"{":{"ha":326,"x_min":0,"x_max":0,"o":"m 28 471 b 165 157 150 439 189 315 b 199 -22 154 83 175 1 l 299 -22 b 268 157 272 4 263 101 b 115 521 286 342 246 479 b 268 885 246 563 286 700 b 299 1064 263 940 272 1038 l 199 1064 b 165 885 175 1040 154 958 b 28 571 189 726 150 603 z "},"}":{"ha":326,"x_min":0,"x_max":0,"o":"m 299 571 b 161 885 176 603 138 726 b 128 1064 172 958 151 1040 l 28 1064 b 58 885 54 1038 64 940 b 211 521 40 700 81 563 b 58 157 81 479 40 342 b 28 -22 64 101 54 4 l 128 -22 b 161 157 151 1 172 83 b 299 471 138 315 176 439 z "},"/":{"ha":597,"x_min":0,"x_max":0,"o":"m 28 0 l 128 0 l 569 1042 l 469 1042 z "},"\\":{"ha":597,"x_min":0,"x_max":0,"o":"m 128 1042 l 28 1042 l 469 0 l 569 0 z "},"*":{"ha":747,"x_min":0,"x_max":0,"o":"m 478 721 b 643 715 531 765 582 704 b 714 840 693 725 732 781 b 582 894 693 904 621 907 b 438 808 539 881 494 786 b 442 1006 367 835 476 894 b 317 1085 417 1089 375 1107 b 278 961 272 1065 247 1019 b 332 861 307 904 315 914 b 279 786 350 806 317 788 b 126 896 221 785 207 868 b 38 844 93 907 54 886 b 90 711 13 790 39 733 b 278 696 154 682 257 739 b 201 601 303 644 257 597 b 76 515 121 607 76 564 b 200 432 76 464 129 432 b 381 546 301 432 381 482 b 349 640 381 596 349 601 b 406 656 349 665 385 669 b 538 435 481 607 399 506 b 675 472 593 406 657 436 b 624 582 692 506 667 563 b 531 615 592 597 560 603 b 478 721 472 644 451 697 z "},"•":{"ha":796,"x_min":0,"x_max":0,"o":"m 28 521 b 397 150 28 311 192 150 b 768 521 603 150 768 311 b 397 893 768 731 603 893 b 28 521 192 893 28 731 z "},"&":{"ha":1046,"x_min":0,"x_max":0,"o":"m 896 532 b 788 386 829 532 774 475 b 860 199 801 299 860 275 b 786 104 860 144 838 104 b 724 194 733 104 724 164 b 744 314 724 239 744 265 b 528 460 744 461 528 357 b 564 501 528 493 542 501 b 681 479 629 501 610 479 b 811 715 788 479 811 650 b 665 892 811 799 767 881 b 407 1044 518 907 571 1044 b 224 817 286 1044 307 932 b 64 636 169 742 68 769 b 182 490 61 554 113 490 b 315 536 265 490 257 536 b 361 488 351 536 361 513 b 257 429 361 463 331 429 b 135 439 219 429 175 439 b 29 347 79 439 29 404 b 68 235 29 283 68 292 b 33 101 68 181 33 158 b 240 -26 33 3 161 -26 b 435 75 292 -26 435 -18 b 510 168 435 138 474 168 b 574 108 539 168 567 149 b 783 -24 594 -3 696 -24 b 958 71 903 -24 958 14 b 925 185 958 132 925 139 b 1018 390 925 251 1018 306 b 896 532 1018 504 960 532 z m 296 678 b 407 783 296 750 351 776 b 557 867 486 793 471 867 b 643 751 618 867 643 813 b 476 568 643 643 581 568 b 296 678 365 568 296 596 z m 515 225 b 436 244 479 225 461 244 b 365 182 389 246 365 214 b 281 94 365 111 321 94 b 165 214 193 94 165 139 b 286 322 165 276 213 317 b 397 294 338 326 354 294 b 508 357 463 294 436 357 b 585 286 571 357 585 314 b 515 225 585 244 557 225 z "},"†":{"ha":757,"x_min":0,"x_max":0,"o":"m 28 707 l 28 607 l 329 607 l 329 0 l 429 0 l 429 607 l 729 607 l 729 707 l 429 707 l 429 1042 l 329 1042 l 329 707 z "},"‡":{"ha":757,"x_min":0,"x_max":0,"o":"m 329 335 l 329 0 l 429 0 l 429 335 l 729 335 l 729 435 l 429 435 l 429 607 l 729 607 l 729 707 l 429 707 l 429 1042 l 329 1042 l 329 707 l 28 707 l 28 607 l 329 607 l 329 435 l 28 435 l 28 335 z "},"¶":{"ha":763,"x_min":0,"x_max":0,"o":"m 574 735 b 735 867 574 839 640 875 l 735 1042 l 264 1042 b 160 981 269 1017 269 968 b 26 889 72 990 31 949 b 151 710 19 785 149 792 b 69 576 153 653 88 638 b 151 444 53 521 69 461 b 281 535 229 429 281 467 b 338 635 281 590 301 635 b 390 463 394 635 390 531 l 390 -139 l 574 -139 z "},"©":{"ha":1142,"x_min":0,"x_max":0,"o":"m 28 521 b 571 -22 28 214 271 -22 b 1114 521 871 -22 1114 214 b 571 1064 1114 828 871 1064 b 28 521 271 1064 28 828 z m 128 521 b 571 967 128 772 324 967 b 1015 521 817 967 1015 772 b 571 75 1015 269 817 75 b 128 521 324 75 128 269 z m 579 299 b 358 521 453 299 358 394 b 579 744 358 647 453 744 b 764 638 663 744 726 703 l 840 714 b 579 847 781 796 688 847 b 253 521 399 847 253 706 b 579 194 253 336 399 194 b 840 328 686 194 781 247 l 764 404 b 579 299 726 339 663 299 z "},"®":{"ha":1142,"x_min":0,"x_max":0,"o":"m 28 521 b 571 -22 28 214 271 -22 b 1114 521 871 -22 1114 214 b 571 1064 1114 828 871 1064 b 28 521 271 1064 28 828 z m 128 521 b 571 967 128 772 324 967 b 1015 521 817 967 1015 772 b 571 75 1015 269 817 75 b 128 521 324 75 128 269 z m 603 469 b 699 360 668 469 693 422 b 721 208 701 336 707 282 l 835 208 b 811 361 819 285 814 331 b 736 517 801 449 772 489 b 803 651 775 549 803 594 b 603 833 803 764 710 833 l 349 833 l 349 208 l 458 208 l 458 469 z m 693 651 b 606 574 693 600 653 574 l 458 574 l 458 729 l 606 729 b 693 651 653 729 693 703 z "},"™":{"ha":1042,"x_min":0,"x_max":0,"o":"m 28 939 l 193 939 l 193 418 l 303 418 l 303 939 l 468 939 l 468 1043 l 28 1043 z m 679 1043 l 501 1043 l 501 418 l 608 418 l 608 878 l 711 418 l 804 418 l 907 878 l 907 418 l 1014 418 l 1014 1043 l 836 1043 l 757 663 z "},"@":{"ha":1011,"x_min":0,"x_max":0,"o":"m 567 -22 b 903 81 686 -24 813 15 l 865 181 b 567 74 788 113 679 74 b 128 518 303 74 128 253 b 569 968 128 783 306 968 b 883 693 746 968 883 850 b 758 479 883 590 835 519 l 632 831 l 517 831 l 296 210 l 404 210 l 453 353 b 571 336 490 343 531 336 b 699 350 615 336 658 340 l 749 210 l 857 210 l 793 383 b 983 693 906 439 983 542 b 569 1064 983 917 788 1064 b 28 518 260 1064 28 839 b 567 -22 28 196 260 -19 z m 574 706 l 665 446 b 571 438 635 440 604 438 b 485 449 540 438 513 442 z "}}}
